<?xml version="1.0" encoding="UTF-8" standalone="no"?>
<!-- Uploaded to: SVG Repo, www.svgrepo.com, Generator: SVG Repo Mixer Tools -->

<svg
   width="800"
   height="800"
   viewBox="0 0 24 24"
   fill="none"
   version="1.1"
   id="svg4"
   sodipodi:docname="home_active.svg"
   xmlns:inkscape="http://www.inkscape.org/namespaces/inkscape"
   xmlns:sodipodi="http://sodipodi.sourceforge.net/DTD/sodipodi-0.dtd"
   xmlns="http://www.w3.org/2000/svg"
   xmlns:svg="http://www.w3.org/2000/svg">
  <defs
     id="defs8" />
  <sodipodi:namedview
     id="namedview6"
     pagecolor="#ffffff"
     bordercolor="#000000"
     borderopacity="0.25"
     inkscape:showpageshadow="2"
     inkscape:pageopacity="0.0"
     inkscape:pagecheckerboard="0"
     inkscape:deskcolor="#d1d1d1"
     showgrid="false" />
  <path
     fill-rule="evenodd"
     clip-rule="evenodd"
     d="M 12.2796,3.71579 C 12.097,3.66261 11.903,3.66261 11.7203,3.71579 11.6678,3.7311 11.5754,3.7694 11.3789,3.91817 11.1723,4.07463 10.9193,4.29855 10.5251,4.64896 L 5.28544,9.3064 C 4.64309,9.87739 4.46099,10.0496 4.33439,10.24 4.21261,10.4232 4.12189,10.6252 4.06588,10.8379 4.00765,11.0591 3.99995,11.3095 3.99995,12.169 V 16 c 0,0.9456 5.5e-4,1.6047 0.03574,2.1205 0.03459,0.507 0.09927,0.8022 0.19263,1.0275 0.30448,0.7351 0.8885,1.3192 1.62358,1.6236 0.22539,0.0934 0.52059,0.1581 1.0275,0.1927 C 7.3953,20.9995 8.05439,21 8.99995,21 H 15 c 0.9455,0 1.6046,-5e-4 2.1205,-0.0357 0.5069,-0.0346 0.8021,-0.0993 1.0275,-0.1927 0.7351,-0.3044 1.3191,-0.8885 1.6236,-1.6236 0.0933,-0.2253 0.158,-0.5205 0.1926,-1.0275 C 19.9994,17.6047 20,16.9456 20,16 V 12.169 C 20,11.3095 19.9923,11.0591 19.934,10.8379 19.878,10.6252 19.7873,10.4232 19.6655,10.24 19.5389,10.0496 19.3568,9.87739 18.7145,9.3064 L 13.4748,4.64896 C 13.0806,4.29855 12.8276,4.07463 12.621,3.91817 12.4245,3.7694 12.3321,3.7311 12.2796,3.71579 Z M 11.1611,1.79556 c 0.5479,-0.15954 1.1298,-0.15954 1.6777,0 0.3801,0.11071 0.6953,0.30539 0.9894,0.52807 0.277,0.20972 0.589,0.48701 0.9482,0.80632 l 5.2668,4.68164 c 0.0284,0.0252 0.0563,0.05006 0.084,0.0746 0.5217,0.46322 0.9157,0.81316 1.2039,1.24658 0.2435,0.36639 0.425,0.77044 0.537,1.19593 0.1325,0.5033 0.1323,1.0303 0.1319,1.7279 0,0.037 0,0.0744 0,0.1124 v 3.8665 c 0,0.9018 0,1.6292 -0.0404,2.2212 -0.0416,0.6087 -0.1291,1.147 -0.3402,1.6567 -0.5075,1.2252 -1.4809,2.1985 -2.706,2.706 -0.5097,0.2111 -1.048,0.2987 -1.6568,0.3402 C 16.6646,23 15.9372,23 15.0355,23 H 8.96443 C 8.06267,23 7.33527,23 6.74326,22.9596 6.13452,22.9181 5.59624,22.8305 5.08654,22.6194 3.8614,22.1119 2.88803,21.1385 2.38056,19.9134 2.16943,19.4037 2.08187,18.8654 2.04033,18.2567 1.99994,17.6647 1.99995,16.9373 1.99995,16.0355 V 12.169 c 0,-0.038 -2e-5,-0.0754 -3e-5,-0.1124 C 1.99955,11.359 1.99928,10.832 2.1318,10.3287 2.24383,9.90321 2.42528,9.49916 2.66884,9.13277 2.95696,8.69935 3.35105,8.34941 3.87272,7.8862 3.90036,7.86165 3.92835,7.83679 3.95671,7.81159 L 9.22354,3.12996 C 9.58274,2.81064 9.89467,2.53335 10.1717,2.32363 10.4658,2.10095 10.781,1.90627 11.1611,1.79556 Z"
     fill="#f3d8a6"
     id="path2" />
  <path
     style="fill:#f3d8a6;fill-opacity:1;stroke-width:0.0285036"
     d="M 6.840855,20.947069 C 6.2404365,20.904186 5.8752393,20.801281 5.4718032,20.5613 4.8459207,20.188998 4.3380783,19.542697 4.1647278,18.897862 4.0375932,18.424942 4.0332543,18.28101 4.0332543,14.536817 v -3.548694 l 0.083426,-0.254555 C 4.2317826,10.38236 4.4106777,10.126674 4.7822829,9.7822548 5.4795486,9.1360002 11.149528,4.1140833 11.369274,3.9481386 11.620888,3.7581285 11.779112,3.6945003 12,3.6945003 c 0.220888,0 0.379112,0.063628 0.630726,0.2536383 0.219746,0.1659447 5.889725,5.1878616 6.586991,5.8341162 0.371605,0.3444192 0.5505,0.6001052 0.665603,0.9513132 l 0.08343,0.254555 v 3.548694 c 0,3.73242 -0.0038,3.860115 -0.129287,4.350785 -0.05664,0.22147 -0.228654,0.589359 -0.375052,0.802141 -0.317237,0.461088 -0.856273,0.89066 -1.352489,1.077834 -0.264102,0.09962 -0.52412,0.14618 -1.011427,0.181115 -0.491351,0.03522 -9.7622817,0.03376 -10.257636,-0.0016 z"
     id="path459" />
  <path
     style="fill:#f3d8a6;fill-opacity:1;stroke-width:0.0285036"
     d="M 6.6840855,20.919958 C 6.2218203,20.872801 5.9122191,20.782043 5.5634178,20.591438 4.8933258,20.225262 4.336809,19.52524 4.1603775,18.826603 4.0646556,18.447563 4.0486227,17.802411 4.04805,14.306655 L 4.047507,10.983857 4.11483,10.785919 C 4.3137204,10.201157 4.2924936,10.22311 6.8836116,7.9224258 10.39596,4.8037701 11.340846,3.9770673 11.533423,3.8541963 11.731646,3.7277232 11.950734,3.683361 12.160166,3.7272897 c 0.281846,0.059118 0.299697,0.07357 2.576177,2.0856795 1.559245,1.3781676 3.97379,3.5259591 4.33706,3.8579109 0.494739,0.4520869 0.670901,0.6922949 0.806656,1.0999329 l 0.07244,0.217505 -8.91e-4,3.33482 c -9e-4,3.362874 -0.01599,4.042352 -0.09841,4.431511 -0.09856,0.465331 -0.374405,0.951561 -0.750354,1.32263 -0.465073,0.459036 -0.898958,0.693806 -1.494782,0.808807 -0.209054,0.04035 -0.815146,0.04603 -5.465532,0.05126 -2.8767216,0.0032 -5.3330163,-0.0046 -5.4584319,-0.01739 z"
     id="path461" />
  <path
     style="fill:#f3d8a6;fill-opacity:1;stroke-width:0.03"
     id="path512"
     d="m 19.77451,11.017731 c 0.0026,0.0016 0.0068,0.0041 0.0091,0.0058 0.0018,0.0013 0.0035,0.0028 0.0053,0.0042 0.0025,0.002 0.0052,0.0037 0.0075,0.0059 0.0041,0.0037 0.0041,0.0027 0.0022,0.0052 -0.0011,-6e-5 -0.0023,-2.8e-5 -0.0034,-1.8e-4 -0.0024,-3.42e-4 -0.0059,-0.0013 -0.0082,-0.002 -0.0011,-3.09e-4 -0.0024,-2.1e-4 -0.0032,-9.81e-4 -3.6e-4,-3.45e-4 5.85e-4,-8.1e-4 9.03e-4,-0.0012 4.2e-4,-5.04e-4 8.76e-4,-9.78e-4 0.0013,-0.0015 0.0021,2.1e-4 0.0031,-2.5e-5 0.0049,0.0015 4.11e-4,3.48e-4 8.37e-4,8.85e-4 7.68e-4,0.0014 -6e-5,4.44e-4 -6.18e-4,7.26e-4 -0.0011,8.37e-4 -0.0018,4.47e-4 -0.0031,-2.1e-4 -0.0048,-6.9e-4 -9.09e-4,-2.4e-4 -0.0037,-10e-4 -0.0047,-10e-4 -5.97e-4,-1.6e-5 -0.0012,3e-4 -0.0018,3e-4 -9e-5,0 9e-5,-1.8e-4 1.2e-4,-3e-4 1.5e-4,-0.0011 -2.4e-4,-7.02e-4 3.09e-4,-0.0012 0,0 0.385334,0.213139 0.385334,0.213139 v 0 c 8.82e-4,-0.0016 2.7e-4,-2.7e-4 7.74e-4,-0.0025 9e-5,-3.54e-4 5.46e-4,-7.65e-4 3.12e-4,-10e-4 -3.57e-4,-4.23e-4 -0.0011,-2.1e-4 -0.0016,-4.68e-4 -0.0014,-7.23e-4 -0.003,-0.0021 -0.0042,-0.0031 -6.78e-4,-7.2e-4 -0.0013,-0.0015 -0.002,-0.0022 -6.03e-4,-5.97e-4 -0.0013,-0.0011 -0.0019,-0.0017 -2.7e-4,-3.18e-4 -6.84e-4,-7.62e-4 -5.04e-4,-0.0011 2.1e-4,-4.5e-4 8.88e-4,-4.77e-4 0.0014,-6.24e-4 0.0055,-0.0017 4.08e-4,5.46e-4 0.0058,-0.0021 9e-5,-1.8e-4 0.0028,-0.005 0.0025,-0.0056 -5.76e-4,-0.0012 -0.0022,-0.0016 -0.0033,-0.0025 -0.0042,-0.003 -0.0085,-0.0059 -0.01221,-0.0094 -4.29e-4,-6.75e-4 -0.0019,-0.0015 -0.0013,-0.002 7.38e-4,-6.96e-4 0.002,9e-5 0.003,3.96e-4 0.0025,7.71e-4 0.0049,0.0018 0.0074,0.0028 0.0018,6.72e-4 0.0035,0.0014 0.0053,0.002 0.0087,0.0033 0.0018,5.16e-4 0.0091,0.0035 0,0 -0.399258,-0.203432 -0.399258,-0.203432 z" />
  <path
     style="fill:#f3d8a6;fill-opacity:1;stroke-width:0.03"
     id="path514"
     d="m 19.771605,11.252122 c 0.0012,0.0024 0.0037,0.0046 0.0036,0.0073 -8.64e-4,0.02911 -0.03213,0.03884 -0.05477,0.04465 -0.02869,0.0074 -0.05078,0.0076 -0.08017,0.0098 -0.03352,10e-4 -0.06696,-0.0013 -0.100315,-0.0043 -0.01752,-0.0015 -0.03494,-0.0034 -0.05236,-0.0058 -0.01032,-6.21e-4 -0.02011,-0.005 -0.03042,-0.0054 -0.001,1.2e-4 -0.0022,-1.2e-4 -0.0031,3.36e-4 -0.009,0.0045 0.0052,0.0019 -0.0092,0.0052 -0.0059,0.0014 -0.01387,0.0016 -0.01974,3.15e-4 -0.0034,-7.35e-4 -0.0065,-0.0024 -0.0098,-0.0036 -0.09205,-0.121172 -0.03105,-0.03867 0.36164,0.20888 0.0036,0.0023 -0.0052,0.0078 -0.0094,0.0088 -0.0022,4.89e-4 -0.0029,-0.0037 -0.0031,-0.006 -6.48e-4,-0.0067 -0.0023,-0.01422 6.09e-4,-0.02033 0.0042,-0.0087 0.01303,-0.01439 0.01954,-0.02158 0.03483,-0.0327 0.07416,-0.06015 0.115923,-0.08327 0.01891,-0.01047 0.03811,-0.02049 0.05789,-0.02919 0.05105,-0.02246 0.07525,-0.02773 0.128418,-0.04336 0.05044,-0.0108 0.06352,-0.01513 0.113069,-0.02027 0.01414,-0.0015 0.0284,-0.0035 0.04258,-0.0025 0.01139,7.98e-4 0.02478,3.15e-4 0.03333,0.0079 0.0074,0.0065 0.01628,0.03373 0.0079,0.02854 -0.123495,-0.07632 -0.23967,-0.163897 -0.359504,-0.245846 -0.0014,0.0069 -0.0011,0.01443 -0.0042,0.02078 -0.0087,0.01791 -0.0275,0.03318 -0.04417,0.0426 -0.02254,0.01273 -0.04719,0.01932 -0.07243,0.02387 -0.01144,0.0021 -0.0231,0.0027 -0.03465,0.0041 0.01498,0.0307 -0.06536,-0.02257 -0.0503,-0.01388 0.116479,0.06717 0.226635,0.14656 0.349042,0.202203 0.01418,0.0064 -0.0078,-0.03084 -0.0061,-0.04631 0.0049,-0.04472 0.02458,-0.06042 0.05057,-0.09429 0.03042,-0.02473 0.04808,-0.04346 0.08511,-0.05739 0.01284,-0.0048 0.02678,-0.01035 0.04033,-0.0082 0.01223,0.0019 0.04251,0.02539 0.03158,0.01957 -0.365279,-0.194401 -0.391851,-0.312418 -0.325926,-0.126769 -9.69e-4,0.02381 0.0019,0.04809 -0.0029,0.07144 -0.009,0.04411 -0.03346,0.08344 -0.06181,0.117335 -0.02324,0.02779 -0.04627,0.04707 -0.07818,0.06332 -0.01016,0.0052 -0.02141,0.0078 -0.03212,0.01172 -0.136719,-0.03936 -0.374825,-0.10995 0.338363,0.184822 0.01721,0.0071 -0.01819,-0.03294 -0.02293,-0.05096 -0.01098,-0.04178 -0.0087,-0.07701 0.0046,-0.117513 0.0052,-0.01577 0.0145,-0.02985 0.02176,-0.04477 0.0087,-0.01039 0.01451,-0.02416 0.02612,-0.03117 0.0097,-0.0059 0.02246,-0.0033 0.0337,-0.0049 -0.118973,-0.06021 -0.229555,-0.141166 -0.35692,-0.180643 -0.03219,-0.01 0.04181,0.05441 0.05263,0.08633 0.02277,0.06718 0.0034,0.10507 -0.0134,0.167597 -0.01207,0.01812 -0.02107,0.03872 -0.0362,0.05437 -0.01148,0.01187 -0.02618,0.02139 -0.04192,0.02639 -0.01287,0.0041 -0.02701,-1.5e-4 -0.04052,-2.1e-4 0.121045,0.06273 0.235916,0.139178 0.363136,0.188187 0.01754,0.0068 -0.01246,-0.03567 -0.01542,-0.05423 -0.0028,-0.01765 -0.0012,-0.03573 -0.0018,-0.05359 0.0063,-0.02462 0.01165,-0.06118 0.03116,-0.08122 0.0072,-0.0074 0.01862,-0.009 0.02793,-0.01343 -0.117272,-0.07057 -0.226542,-0.156585 -0.351815,-0.211723 -0.02075,-0.0091 0.0144,0.04311 0.01911,0.06529 0.004,0.01889 0.0047,0.03835 0.007,0.05752 -0.0119,0.04704 -0.0085,0.05293 -0.03616,0.09173 -0.0076,0.01063 -0.01599,0.02104 -0.02635,0.02899 -0.0082,0.0063 -0.01785,0.01281 -0.02816,0.01282 -0.0098,6e-6 -0.01767,-0.0085 -0.02651,-0.01279 0.120513,0.06128 0.241026,0.122549 0.361538,0.183823 -0.01155,-0.0214 -0.02558,-0.04164 -0.03465,-0.06421 -0.02297,-0.05716 -0.03549,-0.123494 -0.04032,-0.184497 -0.0047,-0.05974 -0.002,-0.125843 0.0087,-0.185014 0.0045,-0.02475 0.01275,-0.04866 0.01913,-0.07299 0.01526,-0.03502 0.02313,-0.06482 0.05126,-0.09143 0.101737,-0.09625 0.568769,0.157691 -0.315767,-0.225611 -0.02016,-0.0087 0.0056,0.04363 0.01014,0.06513 0.0042,0.0201 0.01069,0.03967 0.01603,0.05951 0.0042,0.02528 0.01074,0.05028 0.01251,0.07583 0.0017,0.02513 -1.5e-4,0.05042 -0.002,0.07554 -0.0036,0.04834 -0.01185,0.09277 -0.02272,0.139844 -0.0046,0.01989 -0.0097,0.03966 -0.01549,0.05924 -0.005,0.0168 -0.01111,0.03323 -0.01666,0.04985 -0.01339,0.03089 -0.02609,0.06318 -0.04892,0.08864 -0.004,0.0045 -0.0079,0.0096 -0.01338,0.01202 -0.0062,0.0028 -0.02622,-9e-5 -0.02018,0.003 0.126424,0.06517 0.256397,0.123201 0.384595,0.184802 -0.0094,-0.02112 -0.02082,-0.04144 -0.02815,-0.06336 -0.02684,-0.08019 -0.02919,-0.16546 -0.02749,-0.249084 0.0013,-0.06568 0.006,-0.114697 0.01102,-0.180212 0.0042,-0.02855 0.007,-0.05731 0.01249,-0.08564 0.0126,-0.06522 0.03458,-0.132607 0.06388,-0.192382 0.01696,-0.0346 0.02304,-0.04113 0.04376,-0.0707 0.0013,-0.0015 0.02593,-0.03929 0.03959,-0.02573 0.0079,0.0078 0.01705,0.0374 0.007,0.03265 -0.122286,-0.05765 -0.229498,-0.145711 -0.354745,-0.196614 -0.02632,-0.0107 0.03437,0.04573 0.0466,0.07138 0.01198,0.02512 0.0169,0.05304 0.02535,0.07955 0.0033,0.04213 0.0092,0.106446 0.0095,0.148657 1.8e-4,0.032 -0.0044,0.101736 -0.0081,0.134407 -0.0054,0.04805 -0.0094,0.06197 -0.0191,0.107916 -0.0088,0.03797 -0.02148,0.07485 -0.03689,0.110621 -0.01047,0.02431 -0.01111,0.02333 -0.02151,0.04606 -0.0028,0.0062 -0.0054,0.01246 -0.0081,0.01869 -0.0078,0.01951 -0.0145,0.03955 -0.02322,0.05871 -0.01497,0.03288 0.0041,-0.01124 -0.0093,0.02022 -0.0078,0.01716 -0.0093,0.03583 -0.01,0.05439 1.5e-4,0.01346 6.54e-4,0.02697 0.0025,0.04033 0.0045,0.03366 -6e-5,-0.0078 0.0036,0.02697 0.0012,0.01499 0.0016,0.03003 0.003,0.045 5.61e-4,0.0058 8.1e-4,0.01158 0.002,0.01724 0.0017,0.0076 0.0046,0.01493 0.0066,0.02249 0.0019,0.0073 0.0033,0.01478 0.005,0.02217 0.0067,0.02794 0.01119,0.05727 0.0063,0.08593 -0.0021,0.01206 -0.0041,0.01558 -0.0084,0.02628 -0.0075,0.01213 -0.0093,0.02637 -0.01248,0.04001 -6.18e-4,0.0029 -0.0019,0.0057 -0.0027,0.0086 -3.15e-4,0.0013 -2.7e-4,0.0026 -6.3e-4,0.0038 -4.26e-4,0.0015 -0.0011,0.0028 -0.0017,0.0042 0.129492,0.07382 0.255167,0.154782 0.388475,0.221467 0.0076,0.0038 0.0029,-0.01664 0.0044,-0.02496 -9.36e-4,-0.0053 -0.002,-0.0105 -0.0028,-0.01579 -0.0021,-0.01425 -0.0029,-0.02799 -0.0044,-0.04235 -0.0031,-0.03015 -0.0041,-0.03317 -0.0069,-0.0649 -0.0011,-0.01301 -0.0019,-0.02604 -0.0029,-0.03906 -2.7e-4,-0.01333 -7.26e-4,-0.02666 -7.98e-4,-0.04 -1.8e-4,-0.03281 7.35e-4,-0.0474 0.0013,-0.08017 2.4e-4,-0.01336 3.75e-4,-0.02672 4.56e-4,-0.04009 9e-5,-0.01323 -3.81e-4,-0.02646 2.4e-5,-0.03968 3.66e-4,-0.01197 0.0015,-0.02391 0.0023,-0.03586 7.74e-4,-0.03581 -0.0031,-0.07149 -0.0038,-0.107254 -3.33e-4,-0.01823 8.4e-4,-0.0417 8.49e-4,-0.06008 6e-6,-0.0091 -3.24e-4,-0.01816 -4.83e-4,-0.02724 -0.0011,-0.02609 -0.004,-0.05204 -0.0068,-0.07798 -9.9e-4,-0.009 -0.004,-0.03748 -0.0054,-0.04682 -0.0011,-0.0074 -0.0027,-0.01481 -0.004,-0.02222 -0.0074,-0.03735 -0.0247,-0.07148 -0.03923,-0.106348 -0.01432,-0.03437 -0.01382,-0.03401 -0.02702,-0.06924 -0.01713,-0.05144 -0.0064,-0.01882 -0.0231,-0.07017 -0.0038,-0.01164 -0.008,-0.02316 -0.01141,-0.03492 -0.003,-0.01033 -0.005,-0.02094 -0.0077,-0.03133 -0.0054,-0.02024 -0.01151,-0.04028 -0.01724,-0.06043 -0.0025,-0.0091 -0.0051,-0.01824 -0.0075,-0.02741 -0.0047,-0.01797 -0.0068,-0.02715 -0.01041,-0.04485 -0.0021,-0.01033 -0.0038,-0.02076 -0.006,-0.03107 -8.64e-4,-0.004 -0.002,-0.0079 -0.0029,-0.0118 -0.0036,-0.01143 -0.007,-0.02321 -0.01378,-0.0332 -0.004,-0.0058 -0.0055,-0.007 -0.01031,-0.01196 -0.0074,-0.007 -0.01651,-0.01187 -0.02397,-0.01884 -0.003,-0.0028 -0.0077,-0.008 -0.01051,-0.011 -0.0041,-0.0079 -0.0059,-0.01589 0.0014,-0.02276 0.0036,-0.0034 0.01152,-0.007 0.01542,-0.0091 0.0046,-0.0014 0.009,-0.0032 0.01373,-0.0042 0.03082,-0.0061 0.06282,10e-4 0.09217,0.01046 0.0094,0.003 0.01848,0.0067 0.02773,0.01012 0.02333,0.01036 0.03094,0.013 0.05306,0.02573 0.0084,0.0048 0.03309,0.02022 0.02466,0.01543 -0.101062,-0.05738 -0.20146,-0.115915 -0.302568,-0.173208 -0.0043,-0.0024 0.0082,0.0055 0.01204,0.0086 0.003,0.0024 0.0056,0.0051 0.0084,0.0077 0.0023,0.0024 0.0049,0.0047 0.007,0.0073 0.0037,0.0047 0.0083,0.01435 0.0091,0.0203 0.0013,0.01021 -1.8e-4,0.01683 -0.0013,0.02744 -0.006,0.02912 -0.0137,0.05813 -0.02481,0.08576 -0.0049,0.01228 -0.01091,0.02412 -0.01647,0.03613 -0.006,0.01295 -0.01131,0.02624 -0.01818,0.03874 -0.0066,0.01201 -0.01478,0.02308 -0.02216,0.03462 -0.01161,0.01566 -0.03008,0.0402 -0.04128,0.05673 -0.01189,0.01753 -0.01844,0.02755 -0.02628,0.04689 -0.0057,0.01413 -0.0079,0.0249 -0.01141,0.03942 -9.03e-4,0.0052 -0.0018,0.01045 -0.0027,0.01567 0,0 0.360955,0.178642 0.360955,0.178642 v 0 c -0.0021,-0.0053 -0.0043,-0.01062 -0.0064,-0.01593 -0.0049,-0.0175 -0.0068,-0.02124 -0.0085,-0.03994 -0.0038,-0.04078 0.0042,-0.08116 0.01691,-0.119784 0.0057,-0.01205 0.01004,-0.02479 0.01697,-0.03616 0.0073,-0.01191 0.01653,-0.0225 0.02541,-0.03327 0.0084,-0.01022 0.01707,-0.02029 0.02646,-0.02963 0.02284,-0.02273 0.0499,-0.04034 0.07422,-0.06131 0.0116,-0.01176 0.01899,-0.0169 0.02564,-0.03204 0.0048,-0.01095 0.0063,-0.02264 0.0036,-0.03435 -0.0028,-0.01182 -0.01083,-0.02298 -0.01699,-0.03301 -0.01041,-0.01025 -0.02285,-0.02365 -0.03552,-0.03112 -0.03462,-0.0204 -0.258483,-0.169414 -0.386637,-0.216202 -0.0089,-0.0033 -0.01799,-0.006 -0.02698,-0.0091 -0.0096,-0.0026 -0.01906,-0.0055 -0.02868,-0.0079 -0.04056,-0.01006 -0.08295,-0.01725 -0.124902,-0.015 -0.009,4.86e-4 -0.01799,0.0021 -0.02698,0.0031 -0.0076,0.0022 -0.01549,0.0035 -0.02275,0.0067 -0.02172,0.0094 -0.03702,0.02914 -0.04297,0.0517 -0.0012,0.0044 -0.0014,0.0089 -0.0022,0.01335 -3e-4,0.0042 -0.0011,0.0084 -8.64e-4,0.01261 4.26e-4,0.0077 0.0052,0.02053 0.0093,0.02715 0.0032,0.0052 0.0066,0.008 0.01086,0.0121 0.0021,0.0016 0.0043,0.0032 0.0064,0.0048 0.0083,0.0058 0.0059,0.0034 0.01448,0.0098 0.01041,0.0078 0.02025,0.01635 0.02887,0.02609 0.0089,0.01079 0.01625,0.01929 0.02454,0.03081 0.02253,0.0313 0.04062,0.06547 0.05544,0.101037 0.01657,0.04171 0.0084,0.0206 0.02444,0.06336 0.0045,0.01142 0.0096,0.02257 0.01381,0.03409 0.0042,0.01137 0.0076,0.02299 0.01124,0.03453 0.01028,0.03244 0.01102,0.03581 0.02036,0.06828 0.0063,0.02913 0.0077,0.0336 0.01242,0.06228 0.0015,0.0094 0.0057,0.04038 0.0076,0.0506 0.0014,0.0074 0.0031,0.0147 0.0049,0.02198 0.0018,0.0073 0.004,0.01449 0.006,0.02173 0.0023,0.0076 0.0116,0.03838 0.01353,0.04566 0.0092,0.03465 0.01457,0.07015 0.02118,0.105337 0.002,0.0099 0.004,0.01973 0.0061,0.02957 0.0046,0.02205 0.0098,0.04397 0.01323,0.06626 0.0055,0.03589 0.0072,0.07223 0.01013,0.108372 0.0014,0.01286 0.0035,0.02567 0.0043,0.03858 8.67e-4,0.01306 7.86e-4,0.02617 8.25e-4,0.03926 6e-5,0.02338 -8.16e-4,0.05481 -0.0025,0.07815 -8.88e-4,0.01265 -0.0019,0.02529 -0.0035,0.03787 -0.0015,0.01192 -0.004,0.0237 -0.006,0.03555 -0.0032,0.01043 -0.0058,0.02105 -0.0095,0.0313 -0.0063,0.01752 -0.01317,0.03045 -0.02264,0.04614 -0.0044,0.0073 -0.01254,0.02007 -0.0194,0.02619 -0.0025,0.0022 -0.0058,0.0035 -0.0087,0.0052 4.2e-4,-0.162062 -0.0038,-0.01619 0.386557,0.208888 8.4e-4,4.83e-4 -0.002,-3.45e-4 -0.0027,-0.0011 -7.59e-4,-8.22e-4 -7.02e-4,-0.0021 -0.0012,-0.0031 -0.003,-0.0065 -10e-4,2.1e-4 -0.0029,-0.0085 -0.003,-0.01787 -0.0047,-0.03609 -0.01143,-0.0531 -0.0042,-0.01465 -0.0063,-0.02089 -0.0091,-0.03637 -0.0032,-0.01754 -0.0039,-0.02758 -0.0052,-0.04546 -5.88e-4,-0.0077 -0.0013,-0.01532 -0.0016,-0.023 -2.4e-4,-0.0072 9e-5,-0.01443 1.2e-4,-0.02164 -5.73e-4,-0.04638 -8.49e-4,0.0046 0.0018,-0.03537 3.21e-4,-0.0049 -6e-5,-0.0098 -1.6e-5,-0.01464 1.5e-4,-0.01375 0.001,-0.02745 0.0021,-0.04116 0.0035,-0.03088 -8.88e-4,0.0051 0.0035,-0.02333 0.0019,-0.01203 0.0022,-0.02425 0.0028,-0.03638 1.8e-4,-0.01705 4.29e-4,-0.03411 3e-5,-0.05116 1.2e-4,-0.0083 9e-5,-0.01655 3e-4,-0.02482 6.09e-4,-0.02401 0.0028,-0.04798 0.0023,-0.07202 -4.14e-4,-0.0081 -6.3e-4,-0.01619 -0.0012,-0.02427 -0.0017,-0.02236 -0.0041,-0.04058 -0.0071,-0.06304 -0.0062,-0.04713 -0.01329,-0.09415 -0.01824,-0.141443 -0.0021,-0.01727 -0.01347,-0.111249 -0.01492,-0.126219 -0.0023,-0.02337 -0.0041,-0.04679 -0.0055,-0.07024 -0.0015,-0.02425 -0.0031,-0.04852 -0.0032,-0.07281 -3e-5,-0.02394 0.0016,-0.04785 0.0029,-0.07175 0.0012,-0.02285 0.0031,-0.04566 0.0046,-0.0685 0.0078,-0.01843 0.01098,-0.0396 0.02341,-0.05528 0.01089,-0.01373 0.0571,-0.01805 0.04366,-0.0293 -0.109617,-0.09179 -0.234397,-0.164597 -0.358983,-0.234737 -0.0097,-0.0054 -0.0015,0.02252 0.0012,0.0333 0.0024,0.0097 0.0093,0.01781 0.01388,0.02671 0.003,0.01204 0.0059,0.02407 0.0089,0.03611 0.0092,0.04392 0.01279,0.05763 0.01887,0.10431 0.01385,0.106211 0.01668,0.213859 0.0035,0.320318 -0.009,0.05807 -0.01615,0.112848 -0.02985,0.170039 -0.0061,0.02557 -0.01234,0.05125 -0.02163,0.07585 -0.01388,0.03677 -0.03632,0.08319 -0.07158,0.105955 -0.01345,0.0087 -0.03079,0.0088 -0.04619,0.0132 0.124949,0.06843 0.250871,0.135114 0.374847,0.20529 0.0072,0.0041 -0.01751,-0.0013 -0.0238,-0.0066 -0.0069,-0.0058 -0.0089,-0.01569 -0.01241,-0.02397 -0.01761,-0.04138 -0.02578,-0.08601 -0.03341,-0.130033 -0.002,-0.02039 -0.0049,-0.04071 -0.006,-0.06117 -0.0038,-0.0683 -5.91e-4,-0.142012 0.0175,-0.208281 0.006,-0.02181 0.0123,-0.0439 0.02304,-0.0638 0.0097,-0.0179 0.02493,-0.03213 0.0374,-0.0482 0.0121,-0.0097 0.02124,-0.02538 0.0363,-0.02897 0.0093,-0.0022 0.03293,0.01948 0.02483,0.01438 -0.628176,-0.395588 -0.371422,-0.298944 -0.308519,-0.167471 0.0235,0.04911 0.02717,0.0836 0.03868,0.137425 0.0029,0.02906 0.0077,0.05799 0.0086,0.08717 0.0016,0.05818 -0.0037,0.122202 -0.02069,0.178259 -0.0145,0.04786 -0.03564,0.0909 -0.07388,0.124156 -0.01313,0.01142 -0.03035,0.01706 -0.04552,0.02559 0.120008,0.07284 0.240016,0.145682 0.360024,0.218523 -0.0055,-0.0083 -0.01276,-0.01576 -0.01662,-0.02498 -0.0045,-0.01074 -0.0072,-0.02238 -0.0081,-0.03399 -0.0018,-0.02445 0.0053,-0.0679 0.01384,-0.08992 0.0062,-0.01586 0.01631,-0.02987 0.02446,-0.0448 0.01376,-0.01027 0.02468,-0.02641 0.04127,-0.03082 0.01341,-0.0036 0.05217,0.01674 0.04061,0.0091 -0.113393,-0.07528 -0.232131,-0.142172 -0.348195,-0.213258 0.0054,0.01198 0.01397,0.02299 0.01622,0.03595 0.0056,0.03218 -0.0071,0.05825 -0.01662,0.08765 -0.0099,0.01125 -0.01699,0.02589 -0.02977,0.03374 -0.01179,0.0073 -0.05175,0.0015 -0.04043,0.0094 0.110498,0.07773 0.232231,0.138113 0.348346,0.207168 -0.01299,-0.0114 -0.02957,-0.01971 -0.03898,-0.03421 -0.03029,-0.04671 -0.02168,-0.07996 -0.02151,-0.133057 0.01802,-0.05373 0.02283,-0.10066 0.07727,-0.133195 0.02473,-0.01478 0.105739,-0.0044 0.08342,-0.0226 -0.105349,-0.08603 -0.237181,-0.133198 -0.355772,-0.199797 0.0065,0.01187 0.01616,0.0225 0.01959,0.0356 0.0039,0.01504 0.0013,0.03106 0.0019,0.04659 -0.0028,0.01739 -0.0033,0.03527 -0.0083,0.05218 -0.01098,0.03777 -0.0256,0.06515 -0.05876,0.0879 -0.01316,0.009 -0.05703,0.0088 -0.04424,0.01832 0.444616,0.33189 0.435864,0.326073 0.344595,0.194627 -0.0018,-0.01138 -0.0049,-0.02264 -0.0055,-0.03415 -0.0022,-0.0367 0.0015,-0.06603 0.01225,-0.101792 0.01265,-0.04227 0.0318,-0.08541 0.06094,-0.119232 0.01507,-0.01749 0.03471,-0.03043 0.05207,-0.04565 0.17743,-0.08386 0.09396,-0.02453 -0.284111,-0.255237 -0.0082,-0.005 0.0094,0.01721 0.0104,0.02671 0.0011,0.0108 -8.43e-4,0.02198 -0.0042,0.0323 -0.01078,0.03315 -0.0292,0.05247 -0.04987,0.08018 -0.03974,0.03575 -0.04657,0.0474 -0.09675,0.06977 -0.01774,0.0079 -0.06974,0.0047 -0.05546,0.01787 0.09976,0.09201 0.220893,0.157714 0.331339,0.236571 2.1e-4,-0.0047 -0.0011,-0.0098 6.57e-4,-0.01414 0.0022,-0.0054 0.0071,-0.0092 0.01065,-0.01379 0.01793,-0.01538 0.02277,-0.02113 0.0454,-0.03262 0.02584,-0.01312 0.05053,-0.02065 0.07881,-0.0271 0.01391,-0.0032 0.02798,-0.0057 0.04213,-0.0075 0.01241,-0.0016 0.02495,-0.0017 0.03743,-0.0025 -0.233805,-0.178396 -0.371919,-0.404498 -0.334497,-0.231973 0.0014,0.0066 0.0063,0.01286 0.0052,0.01951 -0.0014,0.0084 -0.0071,0.01557 -0.01199,0.02248 -0.01938,0.02714 -0.03188,0.0337 -0.05893,0.05547 -0.04771,0.02782 -0.05582,0.03525 -0.110208,0.0549 -0.08449,0.03052 -0.173924,0.04161 -0.262101,0.05577 -0.01497,0.0028 -0.02988,0.0061 -0.04492,0.0085 -0.01517,0.0025 -0.03088,0.0021 -0.04567,0.0062 -0.0075,0.0021 -0.01439,0.0067 -0.01986,0.01224 -0.0062,0.0062 -0.02141,0.0172 -0.01419,0.02219 0.350144,0.241795 0.248577,0.29965 0.379548,0.221674 0.0028,-5.67e-4 0.0056,-0.0014 0.0084,-0.0017 0.0076,-8.22e-4 0.01519,-2.4e-4 0.02274,8.31e-4 0.02063,0.003 0.0051,0.0015 0.0237,0.0052 0.0016,3.12e-4 0.0032,2.4e-4 0.0048,3.39e-4 0.0099,-4.65e-4 0.0124,-0.0023 0.0192,-0.0094 0.01064,-0.0094 0.0224,-0.01739 0.0349,-0.02418 0.006,-0.0033 0.01204,-0.0066 0.01834,-0.0093 0.0083,-0.0036 0.01696,-0.0064 0.02545,-0.0096 0.01109,-0.0029 0.02204,-0.0064 0.03326,-0.0087 0.02784,-0.0058 0.05841,-0.0097 0.08681,-0.0098 0.04489,-1.8e-4 0.04919,0.0041 0.09092,0.0059 0.0077,3.36e-4 0.01531,-3.39e-4 0.02297,-5.1e-4 0,0 -0.375756,-0.240593 -0.375756,-0.240593 z" />
  <path
     style="fill:#f3d8a6;fill-opacity:1;stroke-width:0.03"
     id="path516"
     d="m 19.881446,11.990323 c 0.04605,0.662929 0.04747,1.328252 0.0584,1.992454 0.0091,0.896127 0.0012,1.792299 -0.0051,2.688414 -0.0019,0.414025 -0.0018,0.827924 -0.03216,1.240991 -0.01368,0.120761 -0.03389,0.240637 -0.06775,0.357307 -0.0338,0.114257 -0.05207,0.231797 -0.06477,0.350004 -0.0073,0.158058 -0.043,0.312788 -0.08038,0.46596 -0.04559,0.161091 -0.108631,0.317135 -0.185345,0.465857 -0.05827,0.113343 -0.14779,0.201985 -0.23579,0.29171 -0.124163,0.114387 -0.240333,0.235755 -0.374868,0.338292 -0.142578,0.120692 -0.308738,0.201746 -0.476093,0.281514 -0.18654,0.09044 -0.380107,0.159426 -0.578876,0.21666 -0.158882,0.04632 -0.311729,0.109241 -0.466803,0.166109 -0.154322,0.06093 -0.312721,0.110567 -0.474237,0.148303 -0.142791,0.02888 -0.288486,0.0353 -0.433703,0.0385 -0.157554,0.0017 -0.315122,0.0014 -0.472683,0.0019 -0.270999,8.16e-4 -0.541998,0.0016 -0.812999,0.0015 -0.283729,-0.01112 -0.567085,-0.02696 -0.85097,-0.03381 -0.298471,0.0076 -0.592671,-0.04152 -0.887161,-0.08147 -0.206108,-0.02347 -0.410985,-0.06186 -0.612937,-0.109141 0.06869,0.04415 -0.146432,-0.05283 -0.112021,-0.03436 0.157326,0.08447 0.306543,0.188297 0.474815,0.248062 0.0683,0.02426 0.144964,-0.0032 0.21744,-0.0022 0.235461,0.0034 0.416343,0.01616 0.654665,0.02936 0.570147,0.02387 1.139884,0.06348 1.710603,0.07224 0.23771,0.0036 0.430186,-2.1e-4 0.665522,-0.0031 0.365496,0.0071 0.726757,-0.04625 1.079695,-0.137228 0.05101,0.01714 0.09368,-0.03956 0.142642,-0.03636 0.0063,4.11e-4 0.0073,0.02167 0.0017,0.0188 -0.143859,-0.07382 -0.272717,-0.178604 -0.424056,-0.235536 -0.03475,-0.01307 -0.06987,0.0252 -0.105259,0.03641 -0.04684,0.01485 -0.09425,0.02784 -0.141368,0.04175 -0.47652,0.145699 -0.974415,0.176016 -1.468671,0.204486 -0.330944,0.01344 -0.663522,0.009 -0.991445,-0.04137 -0.130502,-0.02005 -0.241151,-0.04489 -0.369459,-0.07178 -0.221974,-0.0477 -0.440997,-0.109007 -0.657995,-0.175493 -0.233165,-0.08451 -0.476705,-0.128965 -0.722162,-0.157849 -0.193936,-0.01852 -0.388893,-0.01868 -0.583509,-0.01924 -0.203218,0.01184 -0.402959,0.06109 -0.600253,0.109125 -0.03648,0.0083 -0.07288,0.01691 -0.109433,0.02484 -0.1186,0.02572 -0.07732,0.0156 -0.189862,0.03687 -0.02001,0.0038 -0.04025,0.0067 -0.05989,0.01203 -0.009,0.0024 -0.03304,0.0059 -0.02546,0.01128 0.131168,0.09278 0.271218,0.172314 0.406826,0.258472 0.50316,-0.04341 1.007665,-0.07204 1.51101,-0.114681 0.137783,-0.01208 0.290602,-0.02758 0.43001,-0.03267 0.04645,-0.0017 0.09399,-0.01013 0.139431,-3.54e-4 0.02363,0.0051 0.08059,0.05262 0.05845,0.04292 -0.433363,-0.189737 -0.264172,-0.272324 -0.476251,-0.114707 -0.334641,0.198507 -0.708318,0.304176 -1.088592,0.370755 -0.05294,0.0068 -0.105678,0.01544 -0.158828,0.02035 -0.07722,0.0071 -0.171107,0.01652 -0.247996,-0.0097 -0.02243,-0.0076 -0.08038,-0.04998 -0.05923,-0.0393 0.388714,0.19636 0.271673,0.296827 0.403657,0.154161 0.148907,-0.08959 0.315179,-0.141719 0.477979,-0.198958 0.08373,-0.02944 0.184788,-0.05241 0.253296,-0.112687 -0.130266,-0.09011 -0.253532,-0.191297 -0.390798,-0.270337 -0.01852,-0.01066 -0.04241,0.0054 -0.06352,0.0087 -0.09966,0.01569 -0.193267,0.03466 -0.285925,0.07507 -0.01304,0.009 -0.03005,0.01396 -0.03913,0.02693 -0.0085,0.01211 -0.02215,0.03481 -0.01,0.04321 0.138056,0.09535 0.284318,0.179876 0.436207,0.251151 0.03469,0.01628 0.07646,0.0054 0.114739,0.0074 0.180312,0.0092 0.151943,0.0066 0.344041,0.0062 0.221375,-0.01215 0.444562,-0.05511 0.646544,-0.150452 0.282939,-0.133559 0.539398,-0.331294 0.793448,-0.510721 0.523264,-0.381695 1.002062,-0.822337 1.414798,-1.322321 0.356761,-0.432175 0.47832,-0.638872 0.795735,-1.110535 0.524646,-0.83922 0.952407,-1.73495 1.282218,-2.667724 0.165414,-0.467823 0.232383,-0.72361 0.368156,-1.193065 0.241316,-0.822811 0.374469,-1.669824 0.485317,-2.518196 0.04781,-0.361138 0.07089,-0.727089 0.164442,-1.080288 0.08016,-0.242641 0.235257,-0.442511 0.421469,-0.6130152 0.02336,-0.015074 0.0429,-0.039401 0.07009,-0.045224 0.01678,-0.00359 0.06307,0.0271 0.04742,0.020058 C 19.34516,9.871644 19.241999,9.7799067 19.11811,9.7707627 c -0.04452,-0.00329 0.02662,0.085434 0.03486,0.1293075 0.02284,0.1215448 0.02838,0.2578968 0.03691,0.3802848 0.01236,0.192491 0.0098,0.385323 0.01083,0.578032 2.1e-4,0.03871 -5.58e-4,0.07748 0.002,0.116101 0.0011,0.01664 -0.006,0.04172 0.0089,0.04923 0.136986,0.06908 0.284933,0.113858 0.427399,0.170787 0.06206,-0.158272 0.121054,-0.317723 0.180333,-0.477051 0.01659,-0.0446 0.07058,-0.203592 0.10559,-0.256205 0.0074,-0.01119 0.02259,-0.01457 0.03389,-0.02186 -0.124345,-0.05997 -0.245692,-0.126606 -0.373034,-0.179919 -0.01216,-0.0051 0.0157,0.0213 0.02193,0.03292 0.0045,0.0085 0.0017,0.02244 0.01018,0.02696 0.132621,0.07066 0.263601,0.148357 0.406446,0.195006 0.01948,0.0064 0.0031,-0.04093 0.0026,-0.06142 -5.55e-4,-0.02464 -0.0038,-0.04915 -0.0057,-0.07373 -0.009,-0.165424 -0.01224,-0.271076 -0.09745,-0.4160609 C 19.804528,9.7958331 19.646221,9.6629574 19.499908,9.5205465 19.361727,9.3725307 19.222852,9.225147 19.086831,9.0751341 18.958234,8.9120454 18.813432,8.763399 18.665467,8.6180889 18.522638,8.459781 18.359525,8.3241387 18.186605,8.2003425 18.02289,8.0756418 17.848811,7.9672125 17.674771,7.8579516 17.43221,7.6942158 17.188085,7.5326787 16.951361,7.3605312 c -0.167249,-0.10572 -0.33293,-0.220935 -0.550219,-0.2197434 -0.05359,3e-4 -0.02164,0.1061103 -0.019,0.1596306 0.01239,0.2504064 0.136509,0.4895841 0.233829,0.7142595 0.158965,0.34044 0.381927,0.6466113 0.694145,0.8611422 0.05182,0.035606 0.107444,0.06533 0.161166,0.097995 0.275975,0.1692516 0.550509,0.3195588 0.86067,0.4056792 0.154961,0.043027 0.315813,0.067843 0.473569,0.098111 0.214791,0.04332 0.430909,0.081836 0.627954,0.1809429 -0.645504,-0.3601965 -0.258234,-0.1711242 -0.143694,-0.047881 0.126709,0.04546 0.247976,0.1107273 0.380126,0.1363794 0.03585,0.00696 -0.05138,-0.051915 -0.07733,-0.077603 -0.03736,-0.036978 -0.07543,-0.073249 -0.112623,-0.110394 C 19.327389,9.4067021 19.173424,9.2565359 19.017282,9.1078037 18.789916,8.8899734 18.548802,8.6879612 18.293873,8.5034357 18.067186,8.3541632 18.210033,8.4458147 17.752392,8.1840272 17.725472,8.1686262 17.588525,8.0844212 17.56079,8.0820983 c -0.01618,-0.00136 -0.0304,0.011415 -0.0456,0.017123 -0.0074,0.021381 -0.02153,0.041536 -0.0221,0.064144 -0.0041,0.1623345 0.217585,0.4310946 0.315554,0.5509269 0.28304,0.2983014 0.655788,0.4820937 1.008015,0.6837405 0.0047,-0.049991 0.09963,0.077487 0.126118,0.041973 0.01563,-0.020948 0.01656,-0.05406 0.0064,-0.078142 -0.01291,-0.030612 -0.04505,-0.048942 -0.06948,-0.071456 C 18.820532,9.2358726 18.691272,9.1326222 18.63313,9.0853515 18.291316,8.8124019 17.948921,8.540169 17.603846,8.2713522 17.339456,8.0649708 17.090061,7.8400419 16.852309,7.6036794 16.635402,7.3826583 16.420114,7.1600688 16.202833,6.9394128 16.008195,6.7401441 15.795486,6.5605344 15.583098,6.3808356 15.417078,6.2435838 15.242422,6.117093 15.065942,5.9937204 14.92883,5.9064138 14.807081,5.800203 14.691328,5.6867928 14.561276,5.5577496 14.43307,5.4278376 14.310034,5.2920735 14.199847,5.1674664 14.102114,5.0327805 13.994703,4.9057734 13.89788,4.7930232 13.802372,4.6801275 13.696559,4.5756348 13.502829,4.3769199 13.242252,4.2680691 13.004955,4.1303313 c -0.06164,-0.025921 -0.117044,-0.062417 -0.178923,-0.087823 -0.01848,-0.00759 -0.03822,-0.012103 -0.0562,-0.020811 -0.01625,-0.00787 -0.0617,-0.037528 -0.04596,-0.028671 0.111593,0.062801 0.222384,0.1270194 0.333576,0.1905288 C 12.96954,4.125432 12.883234,4.0658124 12.804056,3.9961833 12.739065,3.9412476 12.671704,3.8893137 12.605561,3.8357274 12.411997,3.7126539 12.225578,3.5555013 11.998198,3.507927 11.931713,3.476397 11.860179,3.4654464 11.78755,3.460599 c -0.128455,-0.00776 -0.255653,-0.00593 -0.382606,0.015397 -0.206008,0.045735 -0.391503,0.1439262 -0.559238,0.2692581 -0.174553,0.1307898 -0.331558,0.2805531 -0.465045,0.4528518 -0.08791,0.1140978 -0.172092,0.2308215 -0.257638,0.3466197 -0.1358382,0.1480743 -0.09392,0.1526811 0.416741,0.2257335 0.05488,0.00785 0.08769,-0.067862 0.132039,-0.1011177 0.08503,-0.063757 0.249542,-0.1832625 0.335071,-0.2456247 0.224887,-0.1667961 0.450693,-0.330732 0.702738,-0.4539588 0.07317,-0.024014 0.188393,-0.092088 0.269236,-0.0747 0.05075,0.010915 0.186742,0.091188 0.213874,0.1060026 -0.06971,-0.039316 -0.131186,-0.099751 -0.209119,-0.1179483 -0.06434,-0.015023 0.110752,0.072075 0.166241,0.1079367 0.192908,0.1246722 0.388308,0.2453568 0.581274,0.3699321 0.237138,0.1524861 0.480426,0.2909649 0.725866,0.4307343 0.02371,0.013504 0.09532,0.053173 0.07173,0.039462 -0.105048,-0.061044 -0.210736,-0.1209813 -0.316104,-0.1814718 1.126665,0.6479838 0.14099,0.080813 0.105753,0.060592 -0.01729,-0.00992 0.03476,0.019571 0.05167,0.030144 0.05317,0.033255 0.100692,0.073243 0.149506,0.1123773 0.13711,0.079284 0.262652,0.1832658 0.411331,0.2378523 0.026,0.00954 0.02497,-0.057067 0.01303,-0.082051 C 13.91558,4.9493731 13.86255,4.9054021 13.81886,4.8563788 13.61079,4.622935 13.38144,4.4090998 13.156163,4.1926738 12.901131,3.9571789 12.856814,3.8892064 12.457481,3.7231798 c -0.02923,-0.01215 -0.07129,0.015353 -0.08395,0.044359 -0.06796,0.1556562 0.125971,0.4628553 0.189729,0.5872218 0.217349,0.3913188 0.496576,0.7425894 0.839321,1.0302672 0.15207,0.087308 0.297654,0.1870392 0.456211,0.2619252 0.04865,0.022976 0.09546,-0.039611 0.115837,-0.066089 0.01094,-0.014215 0.01606,-0.032502 0.02775,-0.046107 0.0023,-0.00269 0.01396,0.00246 0.01053,0.00156 -0.118015,-0.031041 -0.236228,-0.061327 -0.354341,-0.09199 0.119911,0.4593957 0.220422,0.9238836 0.311206,1.3898601 0.07546,0.388704 0.09989,0.7846128 0.146517,1.1772006 0.03864,0.3253272 0.0624,0.4727781 0.110064,0.7998696 0.02163,0.1295184 0.04325,0.2590365 0.06488,0.3885546 0,0 0.357546,0.1746369 0.357546,0.1746369 v 0 C 14.626215,9.2448681 14.60366,9.1152861 14.581103,8.9857041 14.533435,8.6471163 14.513596,8.5271199 14.47759,8.1909429 14.43576,7.8003954 14.419465,7.4065698 14.350867,7.0192353 14.260667,6.5548566 14.142365,6.0965646 14.051352,5.6322885 c -0.139198,-0.113505 -0.27303,-0.233928 -0.417594,-0.3405153 -0.01388,-0.010235 -0.01345,0.02443 -0.03926,0.056283 -0.0084,0.01039 -0.01738,0.022609 -0.03021,0.026404 -0.09734,0.028802 -0.503191,-0.2784522 0.239845,0.1720353 C 13.450043,5.2686084 13.164384,4.9191 12.944061,4.5265797 12.859217,4.3612557 12.81129,4.289109 12.759978,4.1166207 c -0.01008,-0.033878 -0.02613,-0.070565 -0.01689,-0.1046811 0.0047,-0.017309 0.06343,-0.00663 0.05036,-0.018917 -0.06284,-0.059095 -0.189875,-0.2204475 -0.218288,-0.138999 -0.03,0.086008 0.135287,0.1220163 0.20293,0.1830243 0.156165,0.148869 0.30984,0.2922861 0.459714,0.4476735 0.06422,0.066578 0.126388,0.1351293 0.18771,0.2043819 0.03826,0.043204 0.06544,0.097415 0.110948,0.1329 0.01201,0.00936 0.02938,-0.00802 0.04407,-0.012026 0.117642,0.069354 0.235284,0.138708 0.352926,0.208062 C 13.88274,4.9805076 13.837829,4.9353843 13.785507,4.9001334 13.549475,4.7411127 12.903569,4.4049915 13.62634,4.8087942 13.479058,4.7237847 13.332077,4.6382529 13.184495,4.553766 c -0.02328,-0.013325 -0.09366,-0.052265 -0.07071,-0.038394 0.09806,0.059254 0.196384,0.1181226 0.296082,0.1745784 0.02785,0.015771 -0.05358,-0.03503 -0.08042,-0.052456 -0.117803,-0.07647 -0.06484,-0.043394 -0.194284,-0.1191342 -0.139495,-0.089823 -0.280836,-0.176501 -0.42112,-0.2650697 -0.111599,-0.070458 -0.218382,-0.1485162 -0.33149,-0.2165259 -0.173963,-0.104601 -0.351025,-0.2039613 -0.526537,-0.3059421 -0.08685,-0.043189 -0.144554,-0.085769 -0.239978,-0.093274 -0.08296,-0.00652 -0.19946,0.061567 -0.274002,0.09052 -0.248997,0.129189 -0.468904,0.3013053 -0.693223,0.4684623 -0.139841,0.1016295 -0.196989,0.144756 -0.339738,0.2421348 -0.04668,0.031843 -0.165087,0.042303 -0.141347,0.09358 0.239024,0.5162901 0.241435,0.3625161 0.338829,0.2387742 0.08103,-0.1184124 0.169105,-0.2311458 0.253698,-0.3470175 0.129637,-0.1697808 0.280116,-0.3197961 0.453851,-0.4451214 0.166231,-0.1189443 0.349855,-0.2108601 0.552655,-0.2480301 0.12638,-0.016044 0.253444,-0.015257 0.380317,-0.00346 0.07127,0.00972 0.138906,0.029478 0.206787,0.052982 0.0245,0.00766 0.09432,0.039712 0.07232,0.026486 -0.62356,-0.3748404 -0.40938,-0.2374533 -0.274776,-0.1581027 0.01249,0.00736 0.02579,0.013268 0.03868,0.019903 0.06629,0.053904 0.132206,0.1073346 0.19974,0.1594917 0.08123,0.068856 0.161971,0.1366569 0.252267,0.1940406 0.142942,0.083594 0.285247,0.1682859 0.428824,0.2507835 0.08941,0.051373 0.192042,0.079829 0.27901,0.1366242 0.189587,0.1080552 -0.03676,-0.020739 -0.263107,-0.1534449 -0.01662,-0.00974 0.03427,0.017703 0.05063,0.027886 0.05471,0.034061 0.103143,0.076825 0.14863,0.1221939 0.107336,0.1032141 0.205936,0.2129004 0.301403,0.3271431 0.109377,0.1264287 0.208305,0.2608818 0.316344,0.3883032 0.124043,0.1345551 0.247703,0.2685549 0.379263,0.3959271 0.113834,0.1170525 0.234595,0.2270391 0.372924,0.3149226 0.178423,0.1220055 0.354018,0.248766 0.522106,0.3846891 0.21483,0.1787628 0.429355,0.3583092 0.626464,0.5568678 0.217029,0.2205843 0.432608,0.4425759 0.648511,0.6642597 0.23829,0.2392014 0.489376,0.4656819 0.754602,0.6748155 0.346538,0.2654346 0.687763,0.53772 1.027316,0.8120154 0.142936,0.1166805 0.109305,0.087615 0.237492,0.1977819 0.02236,0.019214 0.03941,0.047012 0.06676,0.057997 0.01514,0.00608 0.04023,0.0025 0.04742,-0.012145 0.01752,-0.035655 -0.197356,0.030747 -0.110296,-0.045157 0.09038,0.053264 0.180003,0.1078395 0.271145,0.159792 0.03703,0.021107 -0.07267,-0.044564 -0.108762,-0.067231 -0.154177,-0.096827 -0.303844,-0.2015326 -0.43137,-0.3326494 -0.134053,-0.1557933 -0.269631,-0.3255027 -0.324682,-0.5274669 0.0515,0.00766 0.09619,0.041041 0.141086,0.065829 0.02371,0.013093 0.09456,0.052873 0.0713,0.038987 -0.460822,-0.2751108 -0.352265,-0.2083611 -0.208813,-0.1185444 0.260679,0.1850046 0.510525,0.3840858 0.741811,0.6053418 0.153775,0.1464339 0.304725,0.294201 0.45291,0.4462272 0.03517,0.036086 0.07104,0.071489 0.106411,0.1073817 0.02378,0.024127 0.04133,0.056381 0.07103,0.072675 0.144882,0.079492 0.298724,0.1414311 0.448086,0.2121465 C 19.546979,9.6021048 19.272507,9.5091318 19.087081,9.3827913 18.88795,9.2952378 18.673759,9.2595618 18.46143,9.2174922 18.304541,9.1873452 18.145742,9.1607496 17.992175,9.115785 17.939475,9.100355 17.887422,9.082677 17.83592,9.063635 17.77981,9.04289 17.641428,8.9436602 17.669503,8.996481 c 0.03741,0.070381 0.133474,0.087157 0.200211,0.1307355 -0.0545,-0.031271 -0.110853,-0.059503 -0.163489,-0.093814 C 17.388636,8.8263828 17.156091,8.527167 16.993178,8.1877173 16.91491,8.0096223 16.851321,7.8840582 16.801001,7.696143 c -0.01709,-0.063814 -0.0289,-0.1293465 -0.03439,-0.1951797 -0.0034,-0.040423 0.03496,-0.09117 0.008,-0.1214301 -0.09041,-0.1012833 -0.22331,-0.1548003 -0.329758,-0.2390709 -0.03163,-0.02504 0.06975,0.040561 0.104623,0.060842 0.234876,0.1718475 0.477541,0.3322284 0.716786,0.4978545 0.172855,0.1108224 0.350376,0.2139012 0.512725,0.3404907 0.174126,0.1203927 0.340138,0.2520243 0.481113,0.4110414 0.147884,0.1439718 0.296063,0.2890191 0.420847,0.4540056 0.136543,0.1501293 0.276778,0.2967297 0.412297,0.4477752 0.1432,0.1423215 0.302305,0.2699127 0.424758,0.43191 0.02867,0.042217 0.048,0.065321 0.06669,0.1124889 0.03566,0.090013 0.03098,0.1891334 0.04027,0.2836524 0.01269,0.238511 0.0078,0.129803 0.400901,0.3272 0.0091,0.0046 -0.0092,-0.01822 -0.01217,-0.02792 -0.0052,-0.01667 0.0025,-0.04156 -0.01229,-0.05089 -0.134825,-0.08531 -0.281856,-0.149603 -0.422784,-0.224404 -0.01168,0.01408 -0.02657,0.02603 -0.03503,0.04225 -0.02411,0.04622 -0.08641,0.231648 -0.0979,0.263143 -0.05618,0.153974 -0.114776,0.307596 -0.188759,0.454083 0.119793,0.08297 0.235327,0.172456 0.359378,0.248915 0.01357,0.0084 -0.02016,-0.02614 -0.02328,-0.04176 -0.0077,-0.0386 -0.0069,-0.07845 -0.0086,-0.117774 -0.0086,-0.19397 -0.0052,-0.38844 -0.0148,-0.582391 -0.0066,-0.132182 -0.01008,-0.250907 -0.02562,-0.381919 -0.0055,-0.04635 0.01128,-0.1056778 -0.02215,-0.1382581 -7.5e-4,-7.32e-4 -0.330274,-0.3567264 -0.48312,-0.2854122 -0.02649,0.01236 -0.04661,0.035296 -0.06991,0.052943 -0.18518,0.1812723 -0.349706,0.3852513 -0.43467,0.6337783 -0.08925,0.359821 -0.09567,0.732784 -0.139892,1.099579 -0.0968,0.852076 -0.220529,1.702488 -0.44904,2.530852 -0.130515,0.476084 -0.190731,0.723303 -0.35325,1.19781 -0.319904,0.934025 -0.744691,1.828746 -1.277121,2.660861 -0.325349,0.471571 -0.441966,0.667701 -0.808406,1.097003 -0.421063,0.493298 -0.909406,0.923957 -1.438782,1.297189 -0.257538,0.176185 -0.513964,0.365902 -0.801239,0.492582 -0.202936,0.08949 -0.422319,0.129421 -0.642919,0.134745 -0.141837,-0.0027 -0.211655,-5.67e-4 -0.349445,-0.01568 -0.03905,-0.0043 -0.144612,-0.04574 -0.116404,-0.0184 0.0929,0.09004 0.216655,0.141635 0.32161,0.217285 0.0065,0.0047 -0.101513,-5.43e-4 0.01353,-0.01981 0.08544,-0.0341 0.182718,-0.06254 0.275958,-0.05979 0.147972,0.0043 0.409674,0.264898 -0.288165,-0.235448 -0.04513,0.054 -0.167398,0.08688 -0.224728,0.108234 -0.170295,0.06343 -0.346217,0.115693 -0.503327,0.209689 -0.02011,0.02443 -0.08169,0.04995 -0.06032,0.07328 0.106495,0.116328 0.251784,0.190235 0.382436,0.278573 0.110197,0.07451 0.352117,0.0071 0.471027,-0.0032 0.385329,-0.07371 0.761676,-0.189855 1.104811,-0.384246 0.03954,-0.03053 0.144371,-0.04879 0.11862,-0.0916 -0.0804,-0.133655 -0.232581,-0.208326 -0.35623,-0.303398 -0.0177,-0.01361 -0.04173,-0.01822 -0.064,-0.01971 -0.0508,-0.0034 -0.292138,0.02003 -0.320699,0.02278 -0.07813,0.0075 -0.15616,0.01596 -0.23424,0.02395 -0.510591,0.04626 -1.022283,0.08494 -1.535178,0.09065 0.10988,0.08523 0.216729,0.174518 0.329641,0.255688 0.0048,0.0035 0.01064,-0.0054 0.01634,-0.007 0.01834,-0.0052 0.03695,-0.0094 0.05557,-0.01351 0.09922,-0.02165 0.199196,-0.04001 0.297639,-0.06522 0.196175,-0.04559 0.394669,-0.09308 0.596761,-0.09887 0.193059,6.09e-4 0.386537,0.0017 0.578739,0.02211 0.244017,0.03013 0.484559,0.07919 0.716381,0.163103 0.215543,0.06517 0.432661,0.126047 0.654249,0.167364 0.126338,0.02444 0.238306,0.04765 0.366588,0.06545 0.326594,0.04531 0.656785,0.04329 0.985518,0.02778 0.501564,-0.03009 1.007228,-0.05622 1.492233,-0.199275 0.04882,-0.01352 0.09788,-0.02617 0.146445,-0.04055 0.03801,-0.01126 0.132879,-0.0019 0.113235,-0.03635 -0.219967,-0.385593 -0.221046,-0.303051 -0.44972,-0.239958 -0.343865,0.0917 -0.696124,0.144677 -1.052853,0.14386 -0.790084,0.02026 -1.579458,-0.01 -2.367701,-0.06695 -0.216598,-0.01419 -0.45345,-0.03181 -0.671551,-0.0386 -0.07746,-0.0024 -0.233103,-0.0795 -0.232471,-0.002 0.0019,0.236222 0.196299,0.270941 0.345035,0.305746 0.201627,0.04227 0.404299,0.08144 0.609478,0.101888 0.295055,0.03932 0.590264,0.08185 0.888904,0.07696 0.283721,0.0081 0.56709,0.0245 0.850816,0.0323 0.272921,6e-5 0.54584,9.87e-4 0.818756,0.0027 0.159202,0.0011 0.318441,0.0031 0.477631,2.9e-5 0.146629,-0.0051 0.293539,-0.01554 0.437116,-0.04756 0.162132,-0.04132 0.321933,-0.09139 0.477909,-0.152127 0.153015,-0.05826 0.305257,-0.118495 0.462439,-0.165144 0.199912,-0.05919 0.393572,-0.13362 0.582088,-0.223099 0.169777,-0.08163 0.339086,-0.164339 0.482955,-0.288328 0.133847,-0.106226 0.254466,-0.226574 0.380684,-0.341516 0.09174,-0.09251 0.182716,-0.186007 0.242097,-0.303833 0.07669,-0.152463 0.139052,-0.312382 0.187358,-0.476057 0.04016,-0.154066 0.07855,-0.310233 0.08651,-0.469849 0.01179,-0.115644 0.0296,-0.230033 0.06424,-0.341309 0.03498,-0.120973 0.05166,-0.245735 0.06283,-0.371168 0.01743,-0.419222 0.0094,-0.838337 0.0047,-1.257798 -0.0068,-0.899562 -0.01606,-1.799128 -0.0147,-2.698727 0.0037,-0.655787 0.0035,-1.311582 -0.0035,-1.967352 0,0 -0.395637,-0.198486 -0.395637,-0.198486 z" />
  <path
     style="fill:#f3d8a6;fill-opacity:1;stroke-width:0.03"
     id="path518"
     d="m 20.33593,12.948158 c -0.05063,-0.121495 -0.07254,-0.254425 -0.09626,-0.383254 -0.01291,-0.07079 -0.0215,-0.142309 -0.02622,-0.214098 -0.003,-0.04548 -0.0037,-0.09103 -0.0066,-0.136521 -0.01442,-0.128063 -0.01427,-0.256918 -0.0048,-0.385271 0.0018,-0.01483 0.0032,-0.0297 0.0053,-0.04449 0.0024,-0.01699 0.0046,-0.03415 0.0094,-0.05062 0.0014,-0.0047 0.01026,-0.01136 0.0059,-0.01364 -0.413484,-0.213882 -0.381628,-0.337665 -0.409386,-0.150465 -0.0092,0.135724 -0.02889,0.270163 -0.06069,0.402442 -0.01661,0.06908 -0.0333,0.123808 -0.05292,0.191232 -0.03227,0.09165 -0.05367,0.186308 -0.07671,0.280507 0,0 0.363483,0.195672 0.363483,0.195672 v 0 c 0.02116,-0.09813 0.03893,-0.196412 0.04823,-0.296509 0.01108,-0.07843 0.01604,-0.122051 0.03269,-0.201539 0.02638,-0.125968 0.06372,-0.250081 0.11971,-0.366237 0.0958,-0.147068 0.01827,-0.01151 -0.374217,-0.235838 -0.0039,-0.0022 0.01019,-0.0048 0.01337,-0.0016 0.0053,0.0053 0.0051,0.01408 0.0065,0.02141 0.0037,0.01993 0.0067,0.06768 0.008,0.08479 0.0027,0.06787 0.0036,0.135286 8.64e-4,0.203198 -0.0095,0.237238 0.0019,-0.08405 -0.0077,0.129358 -7.56e-4,0.01667 -6.48e-4,0.03337 -9.69e-4,0.05005 9.96e-4,0.01482 0.0013,0.0297 0.003,0.04446 0.0028,0.02515 0.01302,0.07869 0.01721,0.101821 0.01342,0.07413 0.02702,0.148224 0.03928,0.222553 0.02102,0.119026 0.04201,0.239074 0.04242,0.360314 0,0 0.401441,0.192307 0.401441,0.192307 z" />
  <path
     style="fill:#f3d8a6;fill-opacity:1;stroke-width:0.03"
     id="path520"
     d="m 18.908407,10.020554 c 0.02896,0.01054 0.09552,0.03656 0.123732,0.02864 0.04779,-0.01341 0.05812,-0.04401 0.08503,-0.082027 0.0092,-0.025772 0.02096,-0.050788 0.02773,-0.077317 0.0077,-0.030299 0.01178,-0.061469 0.01563,-0.092502 0.01237,-0.099777 0.0098,-0.200805 0.01006,-0.3011076 0.05561,-0.146619 0.04098,-0.092818 -0.393655,-0.1781454 -0.02823,-0.00554 0.0051,0.057305 0.0072,0.085989 0.0083,0.1100442 0.01621,0.2200911 0.02494,0.3301056 0.0016,0.02386 0.0039,0.047686 0.0048,0.071582 0.0072,0.1766847 -0.194089,0.033956 0.395108,0.2339044 0.02173,0.0074 0.0068,-0.045567 0.0068,-0.068519 2.1e-5,-0.027518 -0.0045,-0.054854 -0.0067,-0.082282 -0.0024,-0.029069 -0.0047,-0.05814 -0.007,-0.08721 -8.82e-4,-0.014195 -0.0082,-0.1013886 -0.0043,-0.1262892 8.16e-4,-0.00524 0.01396,-0.011037 0.0091,-0.013088 -0.131577,-0.05513 -0.260079,-0.1256706 -0.400487,-0.1509186 -0.02683,-0.00482 0.0071,0.05406 0.01149,0.080968 0.0051,0.031308 0.01123,0.062433 0.01684,0.093649 0.0128,0.056139 0.02271,0.1123347 0.04531,0.1657251 0.06866,0.1622417 0.305469,0.2216697 0.435276,0.2745867 0.01905,0.0078 0.09585,-0.07951 0.101688,-0.08561 0.01412,-0.01528 0.02323,-0.03764 0.04236,-0.045828 0.01211,-0.00518 0.0252,0.00768 0.03781,0.011518 -0.110307,-0.057057 -0.214666,-0.1274901 -0.33092,-0.1711719 -0.02681,-0.010074 0.03796,0.043141 0.05376,0.06703 0.03627,0.054838 0.07623,0.1398169 0.105404,0.1985559 0.105536,0.212097 0.126974,0.238729 0.471865,0.335785 0.02893,0.0081 0.01856,-0.05742 0.02327,-0.08711 0.0046,-0.02897 8.31e-4,-0.05878 0.0045,-0.08789 0.0018,-0.01437 0.0079,-0.02787 0.01183,-0.04181 0.145536,-0.05686 0.108359,-0.03839 -0.38562,-0.164227 -0.01835,-0.0047 0.0019,0.03783 0.002,0.05677 1.5e-4,0.01877 -0.0011,0.08047 -0.0041,0.102077 -9.57e-4,0.0069 -0.004,0.01341 -0.0061,0.02012 0.131169,0.06033 0.258943,0.128665 0.393508,0.180982 0.0089,0.0035 -0.0021,-0.01905 -0.0015,-0.02856 2.4e-4,-0.0035 0.0072,-0.0082 0.004,-0.0098 -0.129083,-0.06286 -0.254791,-0.135955 -0.391745,-0.179053 -0.02088,-0.0066 0.01518,0.04113 0.02075,0.0623 0.0083,0.03163 0.01391,0.06393 0.02087,0.09589 0.01455,0.0999 0.03536,0.199786 0.04152,0.300793 0.001,0.0168 0.0019,0.03388 -9.12e-4,0.05049 -7.71e-4,0.0046 -0.01347,0.0085 -0.0093,0.01057 0.127412,0.06239 0.258672,0.116593 0.388008,0.17489 -0.03355,-0.01929 -0.05778,-0.05035 -0.08884,-0.0727 -0.02544,-0.0183 -0.05218,-0.03491 -0.07989,-0.04954 -0.149522,-0.07896 -0.295605,-0.165776 -0.451566,-0.231101 -0.0579,-0.02425 -0.27752,-0.01932 -0.324519,-0.01976 -0.07124,0.0032 -0.142476,0.0063 -0.213707,0.0097 -0.07456,0.0035 -0.149117,0.0072 -0.223678,0.01071 -0.217182,0.01027 -0.43657,0.02492 -0.653159,-0.0046 -0.06557,-0.009 -0.129761,-0.02609 -0.194641,-0.03914 -0.250826,-0.09268 -0.127323,-0.03549 -0.369291,-0.174195 0,0 0.256027,0.20684 0.256027,0.20684 v 0 c 0.256894,0.141751 0.127345,0.08544 0.386557,0.173659 0.0642,0.01084 0.127864,0.0256 0.192604,0.03252 0.06783,0.0073 0.136196,0.0089 0.204404,0.0099 0.298467,0.0043 0.596123,-0.03572 0.894676,-0.01984 0.06511,0.0059 0.130684,0.008 0.195335,0.01775 0.05237,0.0079 0.183962,0.07935 0.154992,0.03501 -0.05057,-0.07739 -0.156416,-0.09877 -0.231699,-0.152416 -0.02164,-0.01542 0.04815,0.02286 0.07037,0.03744 0.01572,0.01032 0.03024,0.02276 0.04276,0.0368 0.0084,0.0094 0.01276,0.02173 0.01914,0.03259 0.138804,0.06416 0.273999,0.136785 0.416413,0.192471 0.0095,0.0037 -5.55e-4,-0.02057 -0.0025,-0.03062 -0.0039,-0.02019 -0.01037,-0.03979 -0.01494,-0.05984 -0.02257,-0.0991 -0.03922,-0.199413 -0.04448,-0.301074 -0.0013,-0.0295 -0.0037,-0.05898 -0.004,-0.08851 -2.4e-4,-0.0191 0.01795,-0.04645 0.0022,-0.05725 -0.125831,-0.08629 -0.266219,-0.149407 -0.402778,-0.217461 -0.0051,-0.0026 0.0011,0.01147 9.72e-4,0.01722 -2.4e-4,0.0088 -0.0096,0.02164 -0.0022,0.02635 0.126898,0.08029 0.261808,0.147152 0.392713,0.220728 -0.002,-0.0086 -0.005,-0.01703 -0.0059,-0.02581 -0.0027,-0.02528 -0.0024,-0.07877 -4.32e-4,-0.102631 0.0014,-0.01722 0.02128,-0.04125 0.0072,-0.05134 -0.335922,-0.241576 -0.549378,-0.204342 -0.379721,-0.2311 0.0098,0.06598 0.01178,0.04691 -0.0036,0.125747 -0.0022,0.01139 -0.01968,0.02631 -0.01036,0.03323 0.10684,0.07931 0.226009,0.140495 0.339014,0.210743 -0.01673,-0.01565 -0.03627,-0.02876 -0.0502,-0.04696 -0.0199,-0.02599 -0.03353,-0.05623 -0.0503,-0.08434 -0.06526,-0.135056 -0.03171,-0.06185 -0.0892,-0.195268 -0.01066,-0.02474 -0.01,-0.05877 -0.0321,-0.074152 -0.0031,-0.00214 -0.312513,-0.3240222 -0.459154,-0.2154603 -0.01574,0.011652 -0.02637,0.028956 -0.03956,0.043434 -0.01501,0.011908 -0.02809,0.02676 -0.04501,0.035724 -0.117547,0.062241 -0.462295,-0.2141355 0.278225,0.2109083 0.01794,0.01029 -0.03272,-0.0264 -0.04404,-0.04371 -0.03124,-0.047798 -0.04099,-0.1065781 -0.05464,-0.1603318 -0.0033,-0.028653 -0.0087,-0.057142 -0.0099,-0.085958 -9.33e-4,-0.022094 0.02114,-0.052954 0.0035,-0.06625 -0.120953,-0.091015 -0.263476,-0.1491744 -0.393267,-0.2270688 -0.0061,-0.00364 0.01724,-0.00243 0.02093,0.00361 0.0146,0.023867 0.02073,0.1140804 0.02273,0.1321692 0.0033,0.082067 0.0062,0.075923 -0.0018,0.1529538 -8.94e-4,0.00865 -0.01203,0.02086 -0.0048,0.025647 0.120841,0.079679 0.250132,0.1457355 0.375198,0.2186026 -0.0083,-0.0103 -0.01983,-0.018716 -0.02504,-0.030912 -0.01038,-0.024318 -0.01388,-0.051027 -0.02081,-0.07654 -0.0047,-0.034802 -0.01088,-0.069435 -0.0141,-0.1044048 -0.007,-0.076133 -0.0084,-0.1381239 -9e-5,-0.2137509 0.0026,-0.023489 0.03168,-0.055025 0.01313,-0.069664 -0.117924,-0.093061 -0.259059,-0.1521738 -0.389236,-0.2271426 -0.0062,-0.00358 0.0115,0.00861 0.01724,0.012913 0.0038,0.017171 0.0087,0.03415 0.0115,0.051514 0.0167,0.1022748 0.01884,0.2309202 -0.01474,0.3298539 -0.0074,0.02167 -0.02021,0.041066 -0.03032,0.061598 -0.01142,0.011135 -0.02044,0.02543 -0.03426,0.033405 -0.04173,0.024097 -0.124517,-0.023403 -0.16276,-0.042839 0,0 0.34942,0.2795034 0.34942,0.2795034 z" />
  <path
     style="fill:#f3d8a6;fill-opacity:1;stroke-width:0.03"
     id="path522"
     d="m 7.1831319,7.8345555 c 0.00257,-0.013138 0.00366,-0.02666 0.00772,-0.039415 0.036998,-0.1160568 0.1156026,-0.225285 0.1944015,-0.3162108 0.026816,-0.030943 0.056047,-0.059708 0.084071,-0.089561 C 7.6800117,7.1721327 7.9435383,7.0274742 8.2074624,6.8860755 8.4370689,6.7723134 8.6676168,6.6585738 8.8822071,6.5177265 8.9226594,6.4911753 8.9618838,6.4627992 9.001722,6.4353357 9.2378664,6.2662575 9.4482165,6.0650808 9.6624855,5.8699077 9.8365014,5.7129972 10.000396,5.5455321 10.157159,5.3715303 10.297434,5.2157139 10.424977,5.0492712 10.56552,4.893705 c 0.0614,-0.066999 0.128566,-0.1281423 0.19629,-0.1885761 0.02152,-0.016604 0.04197,-0.034709 0.06457,-0.049811 0.16903,-0.1129254 0.372317,-0.1943418 0.563645,-0.2599986 0.0573,-0.019665 0.115513,-0.036587 0.173269,-0.054881 0.199815,-0.057277 0.400648,-0.112257 0.60414,-0.1551186 0.09475,-0.019958 0.117876,-0.022644 0.209208,-0.037322 0.06283,-0.00576 0.08601,-0.011999 0.147074,-0.0029 0.04193,0.00625 0.09118,0.023968 0.130427,0.038347 0.02669,0.00978 0.136564,0.053124 0.15964,0.062188 0.116625,0.046988 0.23672,0.085484 0.359158,0.1141716 0.07063,0.016548 0.120156,0.025094 0.191354,0.038529 0.141635,0.027477 0.286076,0.037443 0.426642,0.070358 0.01124,0.00395 0.02282,0.00703 0.03371,0.01184 0.0097,0.00426 0.01852,0.010187 0.02778,0.01528 -0.11735,-0.066678 -0.234562,-0.133599 -0.35205,-0.2000337 -0.0062,-0.00351 0.01247,0.00703 0.01822,0.011266 0.01518,0.011177 0.01457,0.012943 0.02492,0.028052 0.01405,0.029059 0.01517,0.061372 0.01561,0.093035 -0.0078,0.060626 -0.03091,0.1195167 -0.062,0.1720188 -0.01102,0.018607 -0.02374,0.036153 -0.03561,0.05423 -0.06937,0.088592 -0.150635,0.168132 -0.235278,0.2420406 -0.04042,0.035296 -0.0829,0.06817 -0.124342,0.102255 0,0 0.305875,0.1926807 0.305875,0.1926807 v 0 c 0.04433,-0.032731 0.08868,-0.065419 0.132976,-0.098194 0.09607,-0.071086 0.195441,-0.1396818 0.278041,-0.2268912 0.01508,-0.01806 0.03115,-0.035337 0.04524,-0.054181 0.03986,-0.053311 0.06725,-0.1154697 0.08648,-0.1788123 0.0017,-0.00755 0.004,-0.014987 0.005,-0.022649 0.0042,-0.03054 -0.0048,-0.062565 -0.01032,-0.092187 -0.0068,-0.021708 -0.0143,-0.052438 -0.03586,-0.065227 C 13.751889,4.3598169 13.621694,4.242384 13.447751,4.2095853 13.313913,4.1918133 13.178444,4.1859147 13.046014,4.1577039 12.965702,4.141929 12.936071,4.1372358 12.856362,4.1170044 12.734436,4.0860576 12.615469,4.044669 12.49876,3.9979428 c -0.0792,-0.032096 -0.159927,-0.07017 -0.243963,-0.088361 -0.06984,-0.015118 -0.138649,-0.00849 -0.207261,0.00939 -0.260355,0.066776 -0.517622,0.1446702 -0.774342,0.2241558 -0.296944,0.096493 -0.591921,0.1998705 -0.874813,0.3329841 -0.01279,0.00882 -0.02639,0.016543 -0.03835,0.026446 -0.0098,0.00813 -0.03266,0.037914 -0.03969,0.047096 -0.03445,0.044966 -0.06674,0.091539 -0.101854,0.1360044 -0.03451,0.04626 -0.07746,0.1044648 -0.112839,0.1491033 -0.09071,0.1144472 -0.1887538,0.222854 -0.2838799,0.333575 C 9.6661917,5.3400885 9.5099424,5.511471 9.3435399,5.6729034 9.135135,5.8715199 8.923104,6.0681813 8.6879646,6.2351829 8.6487198,6.2623797 8.6100516,6.2904279 8.5702302,6.316773 8.3586258,6.4567677 8.131914,6.5713536 7.9080471,6.6899445 7.8052998,6.7429524 7.7118096,6.7897269 7.6115409,6.84714 7.4429823,6.9436554 7.2827145,7.0549347 7.142241,7.1896785 7.067481,7.2647475 7.0412019,7.2878145 6.9739779,7.3680096 6.9063569,7.4486776 6.8495736,7.5369468 6.7891482,7.6228359 c 0,0 0.3939837,0.2117208 0.3939837,0.2117208 z" />
  <path
     style="fill:#f3d8a6;fill-opacity:1;stroke-width:0.03"
     id="path524"
     d="m 4.2604605,11.193932 c -0.015888,-0.06797 -0.024091,-0.138232 -0.025624,-0.208026 -4.95e-4,-0.0225 5.64e-4,-0.04501 8.49e-4,-0.06752 0.00408,-0.08738 0.018305,-0.175049 0.050501,-0.256789 0.020247,-0.0514 0.030331,-0.0652 0.057485,-0.112918 0.066851,-0.108577 0.1654032,-0.190509 0.2622891,-0.271046 0.070019,-0.05552 0.1329558,-0.118959 0.1963548,-0.181705 0.04969,-0.04965 0.098412,-0.1001801 0.1464432,-0.1514321 0.053994,-0.059916 0.115953,-0.111756 0.1764477,-0.1648476 C 5.1891426,9.7272627 5.253915,9.6754584 5.3220708,9.6285888 5.3722983,9.594048 5.3935284,9.5821833 5.4457635,9.5504718 5.5690299,9.4827315 5.6894778,9.4102821 5.807832,9.3343242 5.915838,9.2628495 6.0234096,9.1907232 6.130905,9.118488 6.202983,9.072426 6.2727078,9.022663 6.339072,8.9686959 c 0.034149,-0.030748 0.069091,-0.060998 0.1004982,-0.094634 0.00505,-0.00541 0.048722,-0.055907 0.053075,-0.06093 0.061681,-0.077975 0.1202682,-0.158274 0.1815372,-0.2365746 0.063582,-0.084348 0.1332717,-0.163416 0.2059389,-0.2399586 0.079022,-0.0839 0.1598118,-0.1659726 0.2368971,-0.2516763 C 7.2106234,7.9775932 7.2971465,7.8644665 7.392026,7.7582407 7.393556,7.7568207 7.44233,7.7150977 7.430253,7.7087877 7.2955479,7.6384029 7.1584203,7.5666954 7.0111014,7.529325 6.9858,7.5229068 6.9785511,7.5701607 6.9614241,7.589859 6.882732,7.680366 6.8560578,7.7048202 6.7670577,7.7962143 6.5819679,7.9817688 6.3729462,8.1403995 6.1697481,8.3050251 6.0121278,8.4327255 6.0155316,8.431317 5.8595124,8.5634571 c -0.212664,0.184278 -0.4240356,0.3701415 -0.644037,0.5457048 -0.035146,0.028047 -0.2029527,0.1583664 -0.2465727,0.192282 -0.082947,0.067989 -0.1728933,0.129117 -0.245577,0.20877 -0.018497,0.020271 -0.035866,0.043441 -0.052711,0.065151 -0.046177,0.063058 -0.077717,0.1346259 -0.1056912,0.2071539 -0.0355,0.088328 -0.059462,0.1802853 -0.078494,0.2733472 -0.015473,0.0878 -0.026948,0.177267 -0.02392,0.266641 6.63e-4,0.01952 0.00268,0.03897 0.00401,0.05845 0.0071,0.0745 0.032827,0.137491 0.060477,0.205976 0,0 0.3722058,0.172022 0.3722058,0.172022 v 0 c -0.025531,-0.06347 -0.048393,-0.120697 -0.055821,-0.18955 -0.00153,-0.01843 -0.00376,-0.03682 -0.0046,-0.0553 -0.00393,-0.08622 0.0087,-0.172634 0.022454,-0.25746 0.019187,-0.09024 0.043647,-0.179395 0.078322,-0.2650417 0.028177,-0.068812 0.063044,-0.1341441 0.1034274,-0.1966218 0.02337,-0.036381 0.046682,-0.072768 0.073586,-0.106707 0.052767,-0.066565 0.1127274,-0.1269882 0.1710516,-0.1885641 0.032313,-0.031827 0.064121,-0.064175 0.09694,-0.09548 C 5.6279991,9.1720359 5.8862676,8.9559927 6.1462062,8.742699 6.4542861,8.4890733 6.7651017,8.2388472 7.0743471,7.9866495 7.1452362,7.9300236 7.2318489,7.8584181 7.3079406,7.8056937 7.3310775,7.789662 7.4008254,7.7799342 7.3797558,7.7612685 7.2726897,7.6664166 7.1273829,7.625061 7.0106838,7.5423483 c -0.00955,-0.00677 0.012222,-0.024428 0.023847,-0.025765 0.00859,-9.87e-4 -0.00634,0.016078 -0.00952,0.024117 C 6.952137,7.661109 6.8614563,7.7691423 6.7624542,7.8689904 6.6805053,7.9513554 6.5972205,8.0323224 6.5155746,8.1149892 6.4438911,8.1934596 6.378783,8.2774677 6.3117195,8.359863 6.2488827,8.4363537 6.1891308,8.5153521 6.1243854,8.5902375 6.0759879,8.6425077 6.0247383,8.6919645 5.9708658,8.7386016 5.9082453,8.7928242 5.8425018,8.8431396 5.7756495,8.8920303 5.6717451,8.9670015 5.566575,9.0403137 5.459148,9.1101573 5.3412921,9.1854507 5.2209225,9.2567469 5.1000615,9.3270948 4.9847079,9.3974064 4.8719454,9.4718313 4.7642157,9.5534646 4.6982268,9.6039426 4.635714,9.6581706 4.5788571,9.7189113 c -0.048814,0.049852 -0.097366,0.099954 -0.1440996,0.1517724 -0.061605,0.062215 -0.1214049,0.1263357 -0.1878141,0.1835923 -0.095829,0.08788 -0.1912056,0.17815 -0.2645928,0.286293 -0.027592,0.0494 -0.039313,0.06688 -0.060834,0.119597 -0.034822,0.0853 -0.046988,0.176836 -0.05521,0.268012 -3.78e-4,0.0052 -0.0088,0.118446 -0.00908,0.127524 -0.0014,0.04645 0.00361,0.09306 0.00239,0.139547 0,0 0.4008417,0.198683 0.4008417,0.198683 z" />
  <path
     style="fill:#f3d8a6;fill-opacity:1;stroke-width:0.03"
     id="path526"
     d="m 3.9608832,10.832761 c -0.0055,0.02165 -0.028597,0.112741 -0.031056,0.121077 -0.018741,0.06353 -0.044148,0.132081 -0.066334,0.194209 -0.029091,0.08146 -0.044323,0.123827 -0.073399,0.204871 -0.055017,0.147553 -0.1057677,0.296852 -0.1358712,0.451619 -0.016444,0.0871 -0.019622,0.17554 -0.014078,0.263772 0.013015,0.126139 0.020734,0.252579 0.0272,0.379196 0.011055,0.239281 0.012895,0.478812 0.012517,0.718303 -0.00175,0.214467 -0.00476,0.428939 -0.00932,0.643366 -0.00171,0.130976 -0.00747,0.261854 -0.010288,0.392798 -0.00232,0.09052 -0.00308,0.180989 0.00251,0.271387 0.00968,0.105803 0.030053,0.210311 0.051275,0.314306 0.022417,0.101808 0.044201,0.203748 0.068558,0.305113 0.016081,0.09659 0.038423,0.193089 0.04193,0.291262 0.131835,0.06726 0.2553873,0.154115 0.3955053,0.201769 0.021934,0.0075 -0.00297,-0.04627 -0.00587,-0.06926 -0.00488,-0.03854 -0.012021,-0.07676 -0.017465,-0.115216 -0.028511,-0.201415 -0.048983,-0.40337 -0.068853,-0.605787 -0.046705,-0.491882 -0.068655,-0.985512 -0.086365,-1.479126 -0.012775,-0.332124 -0.014162,-0.664572 -0.00306,-0.996734 0.010996,-0.212884 0.029808,-0.425628 0.065748,-0.635831 0.00421,-0.01849 0.00628,-0.03761 0.01262,-0.05548 0.0025,-0.007 0.00895,-0.01197 0.01343,-0.01795 C 4.0001382,11.548585 3.878289,11.465089 3.73998,11.424889 c -0.026098,-0.0076 0.017288,0.05174 0.022001,0.07851 0.016511,0.09377 0.018144,0.192053 0.022878,0.286633 0.017647,0.437436 0.026775,0.875215 0.035271,1.312916 0.00561,0.33613 0.00379,0.672318 -0.00227,1.008422 0.00319,0.135423 -0.015866,0.272655 0.0015,0.40759 0,0 0.3939981,0.185943 0.3939981,0.185943 v 0 c -0.00493,-0.0095 -0.011409,-0.01842 -0.014793,-0.02861 -0.00903,-0.02719 -0.015665,-0.08384 -0.01861,-0.109319 -0.010844,-0.09386 -0.015395,-0.188251 -0.021189,-0.282516 -0.015638,-0.345379 -0.035273,-0.690549 -0.050995,-1.035924 -0.00264,-0.07769 -0.00608,-0.15535 -0.00793,-0.23306 -0.00837,-0.352939 9.42e-4,-0.705852 0.013331,-1.058575 0.00304,-0.0958 0.00281,-0.174706 0.015232,-0.268841 0.00332,-0.02513 0.035546,-0.05936 0.015225,-0.07451 -0.5424273,-0.404521 -0.3949401,-0.350016 -0.3987414,-0.180944 -4.59e-4,0.02047 -0.00201,0.0409 -0.00301,0.06135 -0.013989,0.217856 -0.033964,0.435413 -0.039497,0.653726 -4.71e-4,0.125143 -0.00172,0.154084 0.0026,0.281257 0.00842,0.247615 0.033335,0.49438 0.046764,0.741725 0.033028,0.492914 0.060319,0.986224 0.085909,1.479574 0.00794,0.191189 0.018275,0.382733 0.00838,0.574105 -0.00173,0.03338 -0.00552,0.06664 -0.00923,0.09986 -0.00138,0.01242 -0.016467,0.03013 -0.00603,0.03699 0.1235133,0.08125 0.2588277,0.142952 0.3882417,0.214427 -0.013611,-0.04044 -0.020568,-0.08098 -0.028119,-0.122981 -0.010592,-0.05891 -0.020962,-0.117853 -0.030794,-0.176897 -0.016549,-0.101861 -0.040925,-0.202379 -0.063016,-0.303175 -0.023551,-0.101324 -0.046414,-0.203446 -0.052448,-0.307601 -0.00554,-0.08993 -0.00347,-0.179976 -0.00564,-0.270026 -0.00282,-0.134422 -0.0085,-0.268781 -0.010207,-0.403233 -0.00444,-0.217568 -0.00733,-0.435179 -0.00912,-0.652783 -5.13e-4,-0.236185 0.00161,-0.472339 0.00814,-0.708444 0.00275,-0.123166 0.00689,-0.246819 -0.00361,-0.369727 -0.00617,-0.08632 -0.00475,-0.172918 0.00267,-0.259166 0.00576,-0.05137 0.00675,-0.0672 0.016107,-0.119633 0.020593,-0.115406 0.054051,-0.227845 0.091188,-0.338888 0.045176,-0.132372 0.092439,-0.263926 0.1538742,-0.389833 0.011213,-0.02298 0.023989,-0.04517 0.035782,-0.06785 0.00682,-0.01313 0.013378,-0.02639 0.020068,-0.03958 0,0 -0.3829875,-0.21304 -0.3829875,-0.21304 z" />
  <path
     style="fill:#f3d8a6;fill-opacity:1;stroke-width:0.03"
     id="path528"
     d="m 4.0739529,15.108783 c -0.0047,0.0074 -0.010002,0.01437 -0.01409,0.02209 -0.011301,0.02133 -0.041184,0.08807 -0.048559,0.1063 -0.00997,0.02464 -0.020847,0.04906 -0.027997,0.07465 -0.01395,0.04994 -0.035671,0.178904 -0.044309,0.227193 -0.036816,0.225979 -0.052458,0.454452 -0.064037,0.682859 -0.00592,0.151622 -0.00949,0.303336 -0.010269,0.455076 -0.00109,0.124108 -1.5e-4,0.248228 -0.00182,0.372329 -0.00508,0.137204 -0.011047,0.274335 -0.013845,0.411612 -0.00359,0.129843 -0.00151,0.259739 7.62e-4,0.389583 -4.05e-4,0.09736 1.5e-4,0.194465 0.00917,0.291461 0.019306,0.121347 0.029607,0.243618 0.037309,0.366165 0.010413,0.135853 0.024954,0.272681 0.059296,0.404906 0.00589,0.02266 0.013132,0.04494 0.019697,0.06741 0.04163,0.119779 0.1003917,0.233463 0.1694883,0.339699 0.015251,0.02345 0.031942,0.04593 0.047912,0.06889 0.080739,0.112621 0.1768863,0.212633 0.273276,0.311703 0.081008,0.08728 0.1732533,0.162407 0.2692269,0.232415 0.2055117,0.140886 0.4259787,0.259079 0.6414123,0.383355 0.098966,0.05658 0.2011419,0.107236 0.3055764,0.152855 0.036535,0.01151 0.070131,0.03079 0.1068063,0.04188 0.00895,0.0027 0.038017,0.01073 0.048548,0.0043 0.011161,-0.0068 0.017762,-0.01924 0.026644,-0.02887 0.00632,-0.01147 0.012646,-0.02295 0.018969,-0.03442 0,0 -0.3761631,-0.219392 -0.3761631,-0.219392 v 0 c -0.00516,0.0065 -0.010312,0.01305 -0.015467,0.01958 -0.016666,0.001 -0.030893,-0.0046 -0.046625,-0.01018 -0.032413,-0.0114 -0.064419,-0.02403 -0.096213,-0.03703 -0.102039,-0.04559 -0.2017014,-0.09645 -0.2982561,-0.152774 0.6272856,0.362017 0.21561,0.129265 0.076344,0.03519 C 5.0290644,20.020583 4.9352907,19.947886 4.8534684,19.86178 4.7546973,19.761008 4.6508193,19.664383 4.565913,19.551064 4.550036,19.529084 4.533459,19.507584 4.518281,19.485114 4.449225,19.382873 4.3948139,19.271465 4.3497191,19.156848 c -0.00768,-0.02209 -0.016062,-0.04395 -0.023046,-0.06628 -0.040317,-0.128861 -0.059641,-0.263748 -0.065112,-0.398389 -0.00314,-0.119951 1.5e-4,-0.240594 -0.018406,-0.35956 -0.011572,-0.09707 -0.016695,-0.194823 -0.019003,-0.292528 -0.00397,-0.130058 -0.01048,-0.260095 -0.00618,-0.390254 0.00287,-0.136923 0.00741,-0.273803 0.015613,-0.410524 1.2e-4,-0.003 0.00445,-0.123528 0.00452,-0.128038 0.00129,-0.08175 -0.00245,-0.163551 -0.00214,-0.245303 -0.00178,-0.154094 -0.00678,-0.308136 -0.00647,-0.462252 8.1e-4,-0.22816 0.00703,-0.457564 0.050129,-0.682306 0.00894,-0.03784 0.015928,-0.0762 0.026817,-0.113523 0.026714,-0.09157 0.072487,-0.203151 0.1484832,-0.265659 0,0 -0.3809646,-0.233455 -0.3809646,-0.233455 z" />
  <path
     style="fill:#f3d8a6;fill-opacity:1;stroke-width:0.03"
     id="path530"
     d="m 4.4184879,19.760477 c 0.00559,0.0094 0.011409,0.01859 0.016777,0.02808 0.031183,0.05513 0.015168,0.03335 0.057985,0.0989 0.051811,0.07933 0.1082364,0.155294 0.1656165,0.230611 0.069961,0.08358 0.1422513,0.167109 0.2284854,0.234585 0.010327,0.0081 0.021175,0.01547 0.031762,0.02321 0.162369,0.03064 0.27477,0.178559 0.4244208,0.243369 0.028295,0.01225 0.039685,0.01469 0.068947,0.0252 0.076943,0.02765 -0.00456,1.8e-4 0.078356,0.02749 0.1008243,0.03221 0.2012943,0.06543 0.3024396,0.09663 0.015762,0.0044 0.0315,0.0089 0.047286,0.01329 0.027379,0.0075 0.054706,0.01525 0.082129,0.02261 0.01135,0.003 0.022794,0.0057 0.034187,0.0086 0.00951,0.0024 0.01887,0.0055 0.028524,0.0073 0.00648,0.0012 0.013128,9.78e-4 0.019692,0.0015 0.00589,-0.01792 0.022937,-0.03564 0.017678,-0.05376 -0.00529,-0.01823 -0.028281,-0.02548 -0.043842,-0.03636 -0.024889,-0.0174 -0.050927,-0.03316 -0.077252,-0.0483 -0.1433619,-0.08247 -0.2871099,-0.164289 -0.4317447,-0.244507 -0.042622,-0.02364 -0.08672,-0.04451 -0.1299498,-0.06702 C 5.2924452,20.34709 5.2450791,20.322 5.1976257,20.297078 5.0730123,20.232336 4.9515942,20.161851 4.8302571,20.091264 4.8106257,20.079843 4.7150094,20.024005 4.686789,20.00971 4.673756,20.00311 4.659982,19.99809 4.646578,19.99227 c -0.00867,0.0022 -0.021332,-9.03e-4 -0.026017,0.0067 -0.00935,0.01524 -0.014504,0.03522 -0.0104,0.05262 0.00449,0.01905 0.073146,0.07154 0.080983,0.07758 0.052965,0.0408 0.083764,0.05988 0.1406118,0.09788 0.2145357,0.131793 0.4304574,0.262368 0.6543471,0.377758 0.029609,0.01526 0.1049022,0.0523 0.1369161,0.06811 0.043778,0.02097 0.086901,0.04334 0.1311474,0.06334 0.00477,0.0022 0.038679,0.01727 0.047129,0.01888 0.00444,8.46e-4 0.00902,-5.43e-4 0.013524,-8.16e-4 0.00593,-0.01814 0.02092,-0.0356 0.017779,-0.05442 -0.00239,-0.01431 -0.020201,-0.021 -0.031816,-0.02969 -0.024452,-0.01829 -0.050511,-0.03433 -0.076084,-0.05102 -0.03813,-0.02488 -0.076954,-0.04869 -0.1150125,-0.07368 C 5.4960342,20.470918 5.4827214,20.460033 5.3726997,20.382056 5.2298556,20.279367 5.0943648,20.166827 4.9671381,20.045393 4.8192315,19.900067 4.830711,19.909134 4.5073569,19.773089 c -0.012118,-0.0051 -0.015367,0.02206 -0.018503,0.03483 -0.00287,0.0117 7.14e-4,0.02409 0.00107,0.03614 0.028518,0.110427 0.083368,0.21154 0.1413501,0.308906 0.041652,0.06469 0.09044,0.124977 0.148506,0.175724 0.038486,0.03364 0.051843,0.04088 0.093634,0.06925 0.095085,0.05412 0.2946891,0.193207 0.4501962,0.247215 0.054484,0.01892 0.1107789,0.02887 0.1674219,0.0385 0.010584,0.0021 0.021119,0.0044 0.031753,0.0062 0.010622,0.0018 0.021346,0.0029 0.031994,0.0046 0.054565,0.0084 0.1088643,0.01817 0.1634814,0.02621 0.066267,0.01196 0.1331271,0.02184 0.1980699,0.0401 0.034944,0.0098 0.050727,0.01627 0.084456,0.02856 0.074168,0.02746 0.1477851,0.05618 0.220521,0.08727 0.020949,0.0099 0.030047,0.01361 0.049579,0.02464 0.00612,0.0035 0.024104,0.01446 0.018006,0.01096 -0.120732,-0.06914 -0.2412105,-0.138727 -0.3619143,-0.207918 -0.00363,-0.0021 0.00707,0.0045 0.010699,0.0066 0.1296726,0.07512 0.2594583,0.150039 0.3891873,0.225058 -0.1237992,-0.07167 -0.2474331,-0.143628 -0.3713979,-0.215012 -0.00343,-0.002 0.00647,0.0046 0.00975,0.0068 0.00356,0.0024 0.00706,0.0049 0.010774,0.0071 0.1300935,0.07548 0.2604378,0.15053 0.390642,0.225821 0.1171275,0.06773 -0.4666008,-0.274082 -0.3516768,-0.202678 0.1505958,0.117136 0.3134262,0.185557 0.4768968,0.268432 0.024542,0.0084 0.045276,0.02358 0.067767,0.03587 0.019555,0.01068 0.024467,0.01227 0.045621,0.02159 0.018268,0.0074 0.037387,0.01244 0.055868,0.01925 0.00715,0.0026 0.014697,0.0047 0.021145,0.0087 0.00346,0.0022 0.011064,0.01196 0.00777,0.0095 -0.3842853,-0.283901 -0.2148108,-0.258789 -0.4069917,-0.279568 -0.176568,-0.02945 -0.3506532,-0.07168 -0.5243616,-0.114484 -0.0506,-0.0128 -0.1019349,-0.02345 -0.1515831,-0.0398 -0.00566,-0.0019 -0.021448,-0.01004 -0.016681,-0.0065 0.3628311,0.272718 0.2139843,0.269606 0.3893667,0.267306 0.154182,0.01028 0.3061641,0.04121 0.4579008,0.06915 0.1152408,0.02129 0.2313711,0.03702 0.3482958,0.0448 0.081074,0.0037 0.1622613,0.005 0.243408,0.0068 0.055869,8.61e-4 0.1117422,0.0016 0.1676169,0.0011 0.068951,-0.0016 0.1377645,-0.0031 0.2066889,-1.5e-4 0.092723,0.0029 0.1850931,0.01172 0.2770113,0.02392 0.093386,0.01 0.1871085,0.01724 0.2809461,0.02113 0.067962,0.0029 0.1359603,0.0045 0.2039823,0.0044 0.068714,9.9e-4 0.1371564,-0.0049 0.2054724,-0.01157 0.064854,-0.0076 0.1303002,-0.01174 0.1956276,-0.01021 0.046871,0.0011 0.1023333,0.0054 0.1486122,0.0085 0.1318308,0.01168 0.26313,0.02849 0.3948252,0.04151 0.081883,0.0081 0.1129233,0.0103 0.1940178,0.01692 0.1296885,0.0099 0.2595192,0.01819 0.3894681,0.02376 0.074143,0.0031 0.1483548,0.001 0.2224533,-0.0021 0.1088855,-0.0062 0.2178425,-0.01 0.3268855,-0.01178 0.151181,-0.0019 0.302371,-0.0026 0.453559,-0.0038 0.02358,-3.48e-4 0.04716,-7.56e-4 0.07074,-0.001 0.05481,-6.69e-4 0.06814,-3e-5 0.121504,-0.0024 0.04962,-0.0022 0.09923,-0.006 0.148791,-0.0091 0.01634,-0.0014 0.03266,-0.003 0.04901,-0.0041 0.05135,-0.0036 0.102807,-0.0054 0.154108,-0.01 0.01447,-0.0013 0.113718,-0.01166 0.125838,-0.01292 0.13149,-0.01553 0.263779,-0.02052 0.396037,-0.02348 0.100481,-0.0027 0.200962,0.0012 0.301437,7.56e-4 0.03494,-0.0013 0.07009,-0.0034 0.104576,-0.0096 0.03064,-0.0055 0.06091,-0.01389 0.09131,-0.02059 0.03765,-0.01168 0.07988,-0.02579 0.106835,-0.05653 0.0053,-0.0061 0.0093,-0.01321 0.01392,-0.01982 0.0029,-0.0095 0.0079,-0.01861 0.0087,-0.02851 0.0042,-0.0538 -0.03351,-0.10694 -0.06434,-0.146734 -0.04829,-0.06232 -0.07349,-0.08164 -0.132729,-0.138169 0,0 -0.346917,-0.143149 -0.346917,-0.143149 v 0 c 0.04976,0.04957 0.06976,0.06536 0.109834,0.119351 0.01513,0.02039 0.04828,0.07162 0.05093,0.100577 4.23e-4,0.0046 -0.0018,0.0091 -0.0027,0.01371 -0.0029,0.0038 -0.0053,0.008 -0.0086,0.01143 -0.02333,0.0241 -0.05938,0.03231 -0.08982,0.0428 -0.01973,0.0054 -0.03458,0.0098 -0.05484,0.01367 -0.04222,0.0081 -0.08526,0.01162 -0.128096,0.01428 -0.09614,0.0041 -0.192397,0.0048 -0.288529,0.0092 -0.131044,0.0062 -0.26172,0.01753 -0.392446,0.02838 -0.113808,0.0069 -0.227804,0.009 -0.341525,0.01739 -0.107444,0.0081 -0.214607,0.02052 -0.322413,0.02332 -0.152039,0.0038 -0.304075,0.0026 -0.456144,0.0014 -0.1160007,-6.81e-4 -0.2320077,-0.0036 -0.3480054,-0.0021 -0.073114,0.0018 -0.1461888,5.55e-4 -0.219291,0.0022 -0.1183503,0.0033 -0.2367951,0.0049 -0.3550923,-0.0016 -0.084953,-0.005 -0.1005726,-0.0053 -0.1870149,-0.01326 -0.1359042,-0.01251 -0.2710539,-0.03163 -0.4063173,-0.04953 -0.061088,-0.0071 -0.1045458,-0.01307 -0.1650936,-0.01696 -0.056458,-0.0036 -0.1122582,-0.0022 -0.1686738,2.1e-4 -0.015261,6.48e-4 -0.030526,0.0012 -0.045789,0.0018 -0.069087,0.0052 -0.1382427,0.0079 -0.2075343,0.0056 -0.065214,-1.2e-4 -0.1304355,0.0011 -0.1956414,-2.4e-4 -0.092384,-0.0031 -0.1847634,-0.0077 -0.276219,-0.02213 -0.093234,-0.01089 -0.1870887,-0.01613 -0.2807103,-0.02267 -0.072697,-0.0037 -0.1454649,-0.005 -0.2182491,-0.0057 -0.054564,-3.66e-4 -0.1091166,6.78e-4 -0.163671,0.0016 -0.077727,0.0015 -0.1554777,0.0022 -0.233127,-0.0024 -0.108819,-0.0064 -0.2173671,-0.01716 -0.3252573,-0.03287 -0.1627437,-0.02458 -0.3250953,-0.05202 -0.485574,-0.0889 -0.1874028,-0.04416 -0.070996,-0.02329 0.3047001,0.255894 0.00167,0.0012 0.00391,-0.0017 0.006,-0.0017 0.00737,-1.2e-4 0.01474,5.46e-4 0.022067,0.0013 0.013524,0.0015 0.026998,0.0034 0.040447,0.0054 0.019109,0.0029 0.038142,0.0063 0.057214,0.0094 0.1820811,0.03363 0.3625281,0.07536 0.5403999,0.126982 0.021103,0.0062 0.079393,0.03375 0.06331,0.01873 -0.104244,-0.09737 -0.2204163,-0.181146 -0.3321432,-0.269828 -0.00138,-0.0011 -0.00289,0.0027 -0.00464,0.0025 -0.00542,-5.43e-4 -0.010554,-0.0027 -0.01569,-0.0045 -0.023858,-0.0084 -0.029297,-0.01177 -0.05275,-0.02291 -0.03948,-0.02148 -0.078241,-0.04408 -0.1193184,-0.06246 -0.1487928,-0.07319 -0.3697878,-0.221307 0.2770311,0.163742 -0.1385766,-0.07583 -0.2133684,-0.116615 -0.4040142,-0.234138 -0.120477,-0.07427 0.2450721,0.141636 0.3675348,0.212582 0.00659,0.0038 -0.013327,-0.0074 -0.01991,-0.01124 -0.1295976,-0.07558 -0.2591967,-0.151149 -0.3887952,-0.226723 0.1231161,0.07129 0.2461848,0.142669 0.3693483,0.21388 0.00428,0.0025 -0.00841,-0.0052 -0.012686,-0.0077 -0.1300203,-0.07505 -0.2598336,-0.150472 -0.3902076,-0.224911 -0.019312,-0.01103 -0.041913,-0.01602 -0.061879,-0.02553 -0.071755,-0.02771 -0.1434753,-0.05562 -0.216309,-0.08039 -0.037026,-0.01106 -0.045279,-0.01418 -0.083675,-0.02289 -0.065369,-0.01484 -0.1318431,-0.02426 -0.1976352,-0.03692 -0.079337,-0.01537 -0.1581918,-0.0334 -0.2382579,-0.04478 -0.03577,-0.0054 -0.07112,-0.01123 -0.1058064,-0.02191 -0.1349169,-0.04152 -0.3418917,-0.183193 0.2094066,0.14028 -0.039371,-0.02352 -0.060657,-0.03455 -0.096897,-0.063 -0.059566,-0.04676 -0.1090161,-0.10514 -0.1535838,-0.165914 -0.010909,-0.01654 -0.022345,-0.03274 -0.032726,-0.04961 -0.043337,-0.07044 -0.07916,-0.146904 -0.093042,-0.228936 -0.00645,-0.04326 0.00413,0.002 -0.010227,-0.0056 -0.125151,-0.06645 -0.2468286,-0.139244 -0.3698421,-0.209571 -0.00786,-0.0045 0.016793,0.007 0.024329,0.01204 0.010795,0.0072 0.061116,0.05053 0.067403,0.05588 0.1499892,0.128884 0.3059679,0.250553 0.4666959,0.365796 0.1009881,0.07267 0.2025864,0.144469 0.3027978,0.218208 0.01568,0.01154 0.031306,0.02315 0.04693,0.03477 0.00631,0.0047 0.011708,0.0174 0.018867,0.01415 0.014603,-0.0066 0.020673,-0.02452 0.031009,-0.03678 -6e-5,-7.62e-4 5.04e-4,-0.0019 -1.8e-4,-0.0023 -0.00424,-0.0022 -0.00904,-0.0031 -0.013509,-0.0048 -0.00712,-0.0027 -0.014192,-0.0056 -0.021241,-0.0085 -0.037169,-0.01528 -0.073779,-0.03187 -0.1104417,-0.04832 -0.04482,-0.02081 -0.077552,-0.03556 -0.1223121,-0.05837 -0.025415,-0.01295 -0.1000374,-0.0548 -0.075664,-0.03998 0.078912,0.04798 0.1595859,0.09301 0.2393727,0.139523 0.027851,0.01624 -0.055933,-0.03208 -0.083564,-0.04869 -0.026204,-0.01575 -0.051949,-0.03225 -0.077923,-0.04837 -0.05288,-0.036 -0.071726,-0.04732 -0.1198317,-0.0853 -0.012805,-0.01011 -0.024782,-0.02123 -0.037402,-0.03157 -0.00728,-0.006 -0.012891,-0.01795 -0.022277,-0.01732 -0.00755,5.04e-4 -0.020538,0.0147 -0.028414,0.02315 0.046084,0.0168 0.088905,0.04104 0.1320582,0.06417 0.1117641,0.0599 0.2230707,0.120661 0.3356433,0.179049 0.048795,0.02607 0.09779,0.05176 0.1463856,0.0782 0.048992,0.02666 0.1937703,0.110465 0.1463685,0.08107 -0.018169,-0.01127 -0.3261645,-0.194028 -0.1527183,-0.0815 0.00844,0.0055 0.01658,0.01797 0.026191,0.015 0.014883,-0.0046 0.021891,-0.02217 0.032837,-0.03326 -0.020555,-0.001 -0.041845,-0.0073 -0.061724,-0.01195 -0.040236,-0.0093 -0.080357,-0.01924 -0.1200138,-0.03083 -0.1026207,-0.03103 -0.2046507,-0.06406 -0.3052488,-0.101184 -0.039235,-0.01494 -0.079118,-0.02906 -0.1174635,-0.04622 -0.1323846,-0.05926 -0.3181236,-0.20309 0.2664705,0.16015 -0.032955,-0.02011 -0.047798,-0.02823 -0.079765,-0.052 -0.082184,-0.06112 -0.1564869,-0.132248 -0.2236077,-0.209493 -0.019201,-0.02429 -0.039233,-0.04794 -0.057601,-0.07287 -0.054613,-0.0741 -0.1057425,-0.155995 -0.1261224,-0.246857 0,0 -0.4049976,-0.187306 -0.4049976,-0.187306 z" />
</svg>
