<?xml version="1.0" encoding="UTF-8" standalone="no"?>
<!-- Uploaded to: SVG Repo, www.svgrepo.com, Generator: SVG Repo Mixer Tools -->

<svg
   width="800"
   height="800"
   viewBox="0 0 24 24"
   fill="none"
   version="1.1"
   id="svg6"
   sodipodi:docname="profile_active.svg"
   xmlns:inkscape="http://www.inkscape.org/namespaces/inkscape"
   xmlns:sodipodi="http://sodipodi.sourceforge.net/DTD/sodipodi-0.dtd"
   xmlns="http://www.w3.org/2000/svg"
   xmlns:svg="http://www.w3.org/2000/svg">
  <defs
     id="defs10" />
  <sodipodi:namedview
     id="namedview8"
     pagecolor="#ffffff"
     bordercolor="#000000"
     borderopacity="0.25"
     inkscape:showpageshadow="2"
     inkscape:pageopacity="0.0"
     inkscape:pagecheckerboard="0"
     inkscape:deskcolor="#d1d1d1"
     showgrid="false" />
  <g
     id="style=stroke">
    <g
       id="profile">
      <path
         id="vector (Stroke)"
         fill-rule="evenodd"
         clip-rule="evenodd"
         d="m 12,2.75 c -2.07107,0 -3.75,1.67893 -3.75,3.75 0,2.07107 1.67893,3.75 3.75,3.75 2.0711,0 3.75,-1.67893 3.75,-3.75 C 15.75,4.42893 14.0711,2.75 12,2.75 Z M 6.75,6.5 c 0,-2.8995 2.3505,-5.25 5.25,-5.25 2.8995,0 5.25,2.3505 5.25,5.25 0,2.8995 -2.3505,5.25 -5.25,5.25 -2.8995,0 -5.25,-2.3505 -5.25,-5.25 z"
         fill="#f3d8a6" />
      <path
         id="rec (Stroke)"
         fill-rule="evenodd"
         clip-rule="evenodd"
         d="M 4.25,18.5714 C 4.25,15.6325 6.63249,13.25 9.57143,13.25 h 4.85717 c 2.9389,0 5.3214,2.3825 5.3214,5.3214 0,2.3078 -1.8708,4.1786 -4.1786,4.1786 H 8.42857 C 6.12081,22.75 4.25,20.8792 4.25,18.5714 Z M 9.57143,14.75 C 7.46091,14.75 5.75,16.4609 5.75,18.5714 c 0,1.4794 1.19924,2.6786 2.67857,2.6786 h 7.14283 c 1.4794,0 2.6786,-1.1992 2.6786,-2.6786 0,-2.1105 -1.7109,-3.8214 -3.8214,-3.8214 z"
         fill="#f3d8a6" />
    </g>
  </g>
  <path
     style="fill:#f3d8a6;fill-opacity:1;stroke-width:0.0285036"
     d="M 11.60095,10.21971 C 11.57744,10.21401 11.461995,10.19391 11.344418,10.17496 10.520329,10.042135 9.6518043,9.5339466 9.1208166,8.8738908 8.5770552,8.1979563 8.3090931,7.4951631 8.273877,6.6525951 8.2372665,5.7766656 8.501349,4.9317738 9.0302229,4.2327792 9.4782114,3.6406884 10.220458,3.1289259 10.931273,2.9220471 c 1.607393,-0.4678227 3.287602,0.1508277 4.196453,1.5451272 1.214661,1.8634554 0.532173,4.3734216 -1.461182,5.3737395 -0.515177,0.2585292 -0.945636,0.3623142 -1.566781,0.3777552 -0.250832,0.0062 -0.475297,0.0067 -0.498813,10e-4 z"
     id="path392" />
  <path
     style="fill:#f3d8a6;fill-opacity:1;stroke-width:0.0285036"
     d="M 7.9622301,21.193327 C 7.4262546,21.095168 6.9943629,20.871451 6.5883381,20.48166 6.210864,20.119278 5.9622003,19.692545 5.8377924,19.193643 5.7112398,18.686141 5.7691995,17.898483 5.9754063,17.323506 6.380706,16.193387 7.273566,15.318862 8.396547,14.952085 8.949018,14.771643 8.7937389,14.779097 12,14.779097 c 2.742018,0 2.936438,0.0033 3.162741,0.05298 0.782009,0.171809 1.410332,0.511911 1.953649,1.057481 0.54786,0.550131 0.883407,1.171329 1.044006,1.932763 0.08852,0.419713 0.08913,1.021124 0.0014,1.37312 -0.194934,0.781987 -0.727005,1.430994 -1.460735,1.781769 -0.132131,0.06317 -0.342851,0.143763 -0.468267,0.179101 l -0.228028,0.06425 -3.91924,0.0051 c -3.1272855,0.004 -3.9604704,-0.0025 -4.123281,-0.0323 z"
     id="path394" />
  <path
     style="fill:#f3d8a6;fill-opacity:1;stroke-width:0.03"
     d="m 8.9216151,8.5225653 c 0.013931,0.2684751 0.1565163,0.4051587 0.3420429,0.5700714 0.081711,0.072632 0.1565658,0.1495416 0.2565321,0.1995249 0.045764,0.022882 0.098094,0.031622 0.1425177,0.057007 0.061573,0.035185 0.1393194,0.1076175 0.1710213,0.1710216 0.020705,0.041411 -0.046699,0.038811 -0.057007,0.028504 C 9.7616994,9.5336709 9.7618194,9.5080077 9.7482186,9.4916865 9.6770535,9.4062885 9.5540442,9.3286908 9.4916865,9.2351544 9.4765911,9.2125113 9.3550959,8.9679009 9.3491685,8.9501187 9.3137616,8.843898 9.3397488,8.5937631 9.4346793,8.5225653 9.4756116,8.491866 9.5333232,8.4918825 9.577197,8.4655581 9.622932,8.4381174 9.6957342,8.351544 9.7482186,8.351544"
     id="path508" />
  <path
     style="fill:#f3d8a6;fill-opacity:1;stroke-width:0.03"
     id="path510"
     d="m 10.262881,9.5875617 c 0.04143,0.1427049 0.171489,0.228675 0.287389,0.3090501 0.196945,0.1146272 0.389498,0.2514982 0.609367,0.3217232 0.06991,0.02233 0.142136,0.03508 0.213535,0.0515 0.07388,0.01573 0.03807,0.0086 0.107393,0.02149 0,0 -0.353939,-0.267324 -0.353939,-0.267324 v 0 c -0.06692,-0.01272 -0.03227,-0.0058 -0.103928,-0.02086 C 10.952828,9.98772 10.883228,9.973035 10.815627,9.94903 10.673259,9.898475 10.373632,9.7244692 10.956063,10.055626 10.845462,9.983261 10.723728,9.9093466 10.665553,9.7855963 c 0,0 -0.402672,-0.1980255 -0.402672,-0.1980255 z" />
  <path
     style="fill:#f3d8a6;fill-opacity:1;stroke-width:0.03"
     id="path512"
     d="m 11.534345,10.319933 c 0.321443,-0.114315 0.664683,-0.151978 1.000502,-0.201867 0.184621,-0.02482 0.369907,-0.05173 0.55652,-0.05557 0.03642,-7.5e-4 0.0734,-0.0039 0.109262,0.0025 0.02359,0.0042 0.0868,0.0405 0.06589,0.02878 -0.112006,-0.06276 -0.226288,-0.1213769 -0.339432,-0.1820648 0,0 0.40976,0.1679868 0.40976,0.1679868 v 0 C 13.197563,9.994703 13.061832,9.9035914 12.918995,9.8247139 c -0.04013,-0.022162 -0.138536,-0.011513 -0.172578,-0.00902 -0.182438,0.013364 -0.363154,0.043183 -0.544235,0.067854 -0.347397,0.04858 -0.697284,0.092609 -1.036506,0.1845871 0,0 0.36867,0.251773 0.36867,0.251773 z" />
  <path
     style="fill:#f3d8a6;fill-opacity:1;stroke-width:0.03"
     id="path514"
     d="m 15.228558,17.118189 c 0.121754,0.145801 0.230067,0.302498 0.349754,0.44987 0.113319,0.139532 0.143988,0.166443 0.267503,0.295667 0.27759,0.256744 0.605926,0.468885 0.962666,0.597758 0.140087,0.05061 0.171799,0.0523 0.313844,0.08213 0.174364,0.01806 0.360367,0.03454 0.513996,-0.06707 0.01953,-0.01292 0.03644,-0.02942 0.05466,-0.04414 0.01391,-0.01518 0.02782,-0.03036 0.04173,-0.04554 0,0 -0.377873,-0.22918 -0.377873,-0.22918 v 0 c -0.01221,0.01346 -0.02442,0.02691 -0.03663,0.04036 -0.01638,0.01274 -0.03161,0.0271 -0.04913,0.03822 -0.144151,0.09149 -0.322928,0.06966 -0.483526,0.05144 -0.136109,-0.0308 -0.171419,-0.03381 -0.30529,-0.08551 -0.05465,-0.02111 -0.197795,-0.11638 -0.160814,-0.07094 0.04902,0.06024 0.125225,0.09885 0.200158,0.119284 0.11893,0.03243 -0.432147,-0.245749 -0.291419,-0.227686 -0.121734,-0.124359 -0.15717,-0.154787 -0.267047,-0.290151 -0.113586,-0.139935 -0.212683,-0.291177 -0.32156,-0.434679 0,0 -0.411015,-0.179833 -0.411015,-0.179833 z" />
  <path
     style="fill:#f3d8a6;fill-opacity:1;stroke-width:0.03"
     id="path516"
     d="m 16.568481,17.177336 c 0.109988,-0.198952 0.220666,-0.397514 0.330887,-0.596338 0.03235,-0.05835 0.160529,-0.293784 0.207956,-0.360944 0.02126,-0.03011 0.04953,-0.0546 0.07429,-0.08189 -0.111883,-0.04515 -0.215238,-0.143054 -0.33565,-0.135459 -0.05403,0.0034 0.03955,0.101014 0.05382,0.153236 0.05598,0.204862 0.07583,0.41774 0.110729,0.626585 0.135853,0.0488 0.263605,0.15711 0.40756,0.146405 0.05871,-0.0044 -2.1e-4,-0.117746 -0.0015,-0.176603 -0.0049,-0.232756 -0.01585,-0.465338 -0.01852,-0.698161 -5.22e-4,-0.04534 2.1e-4,-0.09069 3.12e-4,-0.13603 0.05294,-0.14379 0.08156,-0.189 -0.367814,-0.163585 -0.05173,0.0029 0.02351,0.100921 0.03507,0.151427 0.03914,0.171035 0.07712,0.34232 0.116583,0.51328 0.05016,-0.0065 0.0018,0.105947 0.04144,0.124551 0.137819,0.06474 0.275529,0.133763 0.422414,0.173898 0.01855,0.0051 0.01456,-0.03619 0.02657,-0.05121 0.007,-0.0087 0.03804,-0.01197 0.02841,-0.01756 -0.113085,-0.06569 -0.235394,-0.114034 -0.353092,-0.17105 0.02136,0.02765 0.04545,0.05339 0.06408,0.08295 0.03309,0.05249 0.135288,0.255716 0.15878,0.302019 0.07769,0.153129 0.154335,0.306684 0.229037,0.46129 0.04599,0.09766 0.08738,0.197713 0.121014,0.300343 0.0085,0.0258 0.04142,0.113271 0.03781,0.14577 0.128058,0.0505 0.248422,0.128676 0.384171,0.151494 0.03371,0.0057 -0.02877,-0.06206 -0.04131,-0.09386 -0.01788,-0.04533 -0.0336,-0.09149 -0.04989,-0.137415 -0.06652,-0.187522 -0.129497,-0.37629 -0.193161,-0.564792 -0.07501,-0.198314 -0.113515,-0.413926 -0.217782,-0.600315 -0.03555,-0.05612 -0.08116,-0.104349 -0.127352,-0.151644 -0.07395,-0.0712 -0.137308,-0.151725 -0.194825,-0.236469 -0.107397,-0.165612 -0.04733,-0.109023 -0.435486,-0.217372 -0.02546,-0.0071 0.03363,0.04079 0.05027,0.06133 0.103156,0.127283 0.06265,0.07595 0.170054,0.222997 0.209217,0.279402 0.384207,0.581913 0.549427,0.888726 0.09675,0.19218 0.196685,0.383999 0.267717,0.587468 0.04399,0.127889 0.05897,0.261598 0.06635,0.395754 0.0052,0.09661 0.0032,0.192623 -0.01344,0.287965 -0.02792,0.12375 -0.08586,0.237519 -0.135193,0.353602 -0.05453,0.135178 -0.08141,0.279008 -0.09978,0.422972 -0.0059,0.03949 -0.0055,0.07959 -0.0099,0.119201 -3.66e-4,0.0033 -0.0051,0.0082 -0.0021,0.0096 0.41441,0.204344 0.431447,0.329561 0.392351,0.149943 -0.02806,-0.25891 0.02396,-0.187947 -0.413007,-0.363705 -0.01665,-0.0067 -0.01604,0.03222 -0.02193,0.04917 -0.0073,0.02092 -0.01161,0.04274 -0.01742,0.06411 -0.03405,0.13925 -0.06372,0.279491 -0.09789,0.418696 -0.01566,0.07565 -0.05585,0.140647 -0.09022,0.208338 -0.02199,0.05073 -0.05187,0.0957 -0.08428,0.140173 -0.03443,0.04977 -0.06364,0.103573 -0.102213,0.150273 -0.04614,0.05969 -0.08515,0.124072 -0.129204,0.1853 -0.04049,0.06186 -0.09744,0.109237 -0.151574,0.158562 -0.05882,0.05883 -0.121423,0.111525 -0.189727,0.158794 -0.06669,0.05427 -0.140502,0.09746 -0.212636,0.143607 -0.06692,0.04244 -0.132351,0.08659 -0.195513,0.134469 -0.0572,0.03711 -0.116246,0.07005 -0.178947,0.09692 -0.06181,0.03332 -0.132265,0.04443 -0.199894,0.06072 -0.08129,0.01391 -0.161326,0.03159 -0.243397,0.0408 -0.08519,0.0092 -0.169236,0.02517 -0.254771,0.03244 -0.0824,0.01355 -0.162109,0.03801 -0.242443,0.06 -0.07737,0.01638 -0.153348,0.03763 -0.231606,0.0497 -0.06451,0.0034 -0.126656,0.02068 -0.190378,0.02994 -0.06865,0.02017 -0.139687,0.02822 -0.210779,0.03347 -0.07806,0.0044 -0.156293,0.0042 -0.234454,0.0046 -0.08063,-6.21e-4 -0.163712,-0.0085 -0.237564,-0.0422 -0.02858,-0.01107 -0.05363,-0.01981 -0.08078,-0.03381 -0.0088,-0.0046 -0.0342,-0.02038 -0.02557,-0.01543 0.122977,0.07064 0.247722,0.138323 0.36861,0.212482 0.0033,0.002 -0.0039,0.0067 -0.0059,0.01004 0.0084,-0.0011 0.01672,-0.0022 0.02509,-0.0033 0.163682,-0.04716 0.33524,-0.05876 0.503502,-0.08151 0.140922,-0.01978 0.282546,-0.03349 0.424692,-0.03979 0.100182,-0.0058 0.197784,-0.0348 0.297726,-0.04109 -0.133651,-0.08193 -0.25887,-0.179562 -0.400954,-0.245804 -0.02581,-0.01204 -0.05522,0.01402 -0.08303,0.02016 -0.04182,0.0092 -0.08385,0.0175 -0.125837,0.02595 -0.156207,0.03146 -0.312208,0.05529 -0.470183,0.07594 -0.221834,0.0277 -0.445012,0.04077 -0.668393,0.04572 -0.113339,-0.0027 -0.227875,0.0074 -0.340698,-0.0058 -0.139867,-0.02585 -0.280475,-0.04621 -0.421822,-0.06247 -0.114728,-0.01435 -0.230205,-0.01801 -0.345686,-0.01861 -0.09561,-5.73e-4 -0.191215,-8.94e-4 -0.286823,-6.96e-4 -0.09393,1.8e-4 -0.187863,6.15e-4 -0.281797,7.44e-4 -0.08515,-3.96e-4 -0.170299,-4.77e-4 -0.255448,-7.59e-4 -0.07746,2e-5 -0.154917,-8e-6 -0.232375,1.5e-4 -0.08969,-2.4e-4 -0.179385,4.2e-4 -0.269078,7.02e-4 -0.133542,0.0013 -0.267091,0.0011 -0.400636,8.49e-4 -0.122294,-9.39e-4 -0.244592,-2.4e-4 -0.366888,-1.5e-4 -0.126103,4.65e-4 -0.252204,-4.2e-4 -0.378306,-2.1e-4 -0.106927,-3.15e-4 -0.213854,-3.51e-4 -0.320781,-7.77e-4 -0.09696,-8.58e-4 -0.193917,2.1e-4 -0.2908747,7.5e-4 -0.1037508,1.8e-4 -0.2075004,-0.0011 -0.31125,-7.41e-4 -0.1132341,-9e-5 -0.2264655,9.15e-4 -0.3396993,0.0011 -0.1115049,6e-5 -0.2230089,-6.03e-4 -0.3345108,-0.0014 -0.074874,3e-5 -0.1497459,-6.93e-4 -0.2246196,-4.65e-4 -0.080437,7.29e-4 -0.1608759,3.93e-4 -0.2413137,9e-5 -0.098832,6.12e-4 -0.197661,0.0011 -0.2964957,0.0011 -0.1044075,-5.31e-4 -0.2088165,3e-6 -0.3132243,-3e-4 -0.07901,-2.1e-4 -0.158019,-0.0013 -0.2370285,-7.29e-4 -0.084632,4.8e-4 -0.1692693,3.6e-4 -0.2539026,9e-5 -0.099678,-0.0017 -0.1919685,-0.05499 -0.2819736,-0.09327 -0.019773,-0.01008 -0.039635,-0.01999 -0.05932,-0.03024 -0.020034,-0.01043 -0.039921,-0.02114 -0.059833,-0.03181 -0.019945,-0.01068 -0.079322,-0.04355 -0.059738,-0.03222 0.5881413,0.340263 0.3622065,0.216324 0.2382159,0.125704 -0.064865,-0.05466 -0.125601,-0.114077 -0.1864047,-0.173173 -0.048784,-0.05106 -0.1040661,-0.09543 -0.1503381,-0.148822 -0.044812,-0.04609 -0.088159,-0.09363 -0.1332369,-0.139448 C 6.648303,20.488054 6.5885184,20.419938 6.5256888,20.354703 6.4525809,20.287111 6.3940623,20.208262 6.3388176,20.12597 6.2374869,19.987765 6.1684716,19.83312 6.119469,19.669877 6.080678,19.542925 6.054469,19.412649 6.026338,19.283059 6.006027,19.189489 6.009274,19.226609 6.006617,19.170745 c -0.1315629,-0.05389 -0.2541318,-0.1403 -0.3946893,-0.161658 -0.036152,-0.0055 0.018557,0.07074 0.028315,0.105984 0.050511,0.182417 0.1050381,0.364106 0.1729182,0.540956 0.021842,0.05691 0.046861,0.112543 0.070292,0.168815 0.078036,0.175859 0.1750617,0.343524 0.3056271,0.485802 0.083804,0.09132 0.1145493,0.111606 0.2125659,0.194564 0.1884183,0.142585 0.3715173,0.296204 0.5757444,0.416553 0.1512126,0.08911 0.3040242,0.175474 0.4560363,0.263211 0.1143027,0.06258 0.2356122,0.10237 0.3642867,0.119468 0.099085,0.0029 0.1971948,0.0098 0.2957298,0.02076 0.065642,0.01093 0.1344468,0.01736 0.1981605,0.03787 C 8.1467271,21.262934 8.0074908,21.154102 7.856973,21.062666 7.8103566,21.034348 7.7541312,21.02619 7.7035308,21.005827 7.6273743,20.97518 7.5516891,20.943304 7.4768004,20.909677 7.2987609,20.829732 7.0649706,20.716147 6.8944299,20.624916 6.7970547,20.572825 6.7020135,20.516484 6.6058053,20.462267 c 0.024289,0.0077 0.090949,0.04095 0.072868,0.02301 C 6.4995111,20.348448 6.4424721,20.3148 6.2871111,20.160169 6.1545063,20.028187 6.0458457,19.880734 5.9411427,19.726718 c -0.098362,-0.150165 -0.17859,-0.310039 -0.2098053,-0.487467 -0.022306,-0.120376 0.00551,-0.23282 0.041973,-0.346968 0.045733,-0.123746 0.099232,-0.244741 0.1490514,-0.367047 0.054791,-0.138196 0.093388,-0.28172 0.122091,-0.427353 0.015389,-0.101301 0.035731,-0.201684 0.060007,-0.301201 0.03745,-0.159 0.085028,-0.315281 0.1372221,-0.46999 0.058304,-0.197184 0.1467813,-0.35386 0.2706177,-0.516265 0.1027947,-0.12662 0.2212911,-0.238925 0.3344436,-0.356052 0.098676,-0.10567 0.1994562,-0.209171 0.3003273,-0.312673 0.073739,-0.07286 0.1357176,-0.155646 0.1915083,-0.24265 0.02568,-0.03894 0.020301,-0.02983 0.043746,-0.06904 0.00569,-0.0095 0.01104,-0.01922 0.016833,-0.02867 0.00318,-0.0052 0.015233,-0.01201 0.010062,-0.01519 -0.4024416,-0.2479 -0.2893806,-0.327045 -0.442758,-0.185751 -0.3024543,0.318949 -0.5294616,0.69925 -0.7561464,1.073232 -0.1425138,0.249363 -0.28383,0.502697 -0.3654945,0.779729 -0.042943,0.145674 -0.046139,0.194193 -0.070538,0.343326 -0.033122,0.238749 -0.043847,0.479634 -0.044905,0.720406 0.0011,0.147877 0.00124,0.295758 0.00227,0.443634 -0.00749,0.07155 0.011565,0.147982 -0.00372,0.218969 -0.00126,0.0059 -0.014371,0.01281 -0.00904,0.01558 0.1225956,0.06355 0.2504796,0.116338 0.3757194,0.174507 -0.020878,-0.02409 -0.04527,-0.04553 -0.062634,-0.07227 C 5.9652522,19.194796 5.8951263,19.04101 5.8475925,18.931133 5.78046,18.775953 5.7225531,18.617113 5.6678943,18.457215 5.6566377,18.31404 5.6572722,18.248329 5.2747416,18.347061 c -0.060378,0.01558 0.027581,0.121625 0.041057,0.182508 0.059292,0.267886 0.1138047,0.536193 0.1642005,0.805888 0.037517,0.211381 0.070769,0.423543 0.09816,0.636481 0.01659,0.128968 0.029018,0.221715 0.064036,0.346758 0.07478,0.1736 0.2246187,0.276293 0.3828861,0.367709 0.1599984,0.09242 0.3209628,0.18315 0.4814442,0.274725 0.1963062,0.104867 0.3979095,0.197906 0.6057285,0.277284 0.1809006,0.07044 0.3755793,0.09245 0.5670201,0.115148 0.2582904,0.02604 0.5173617,0.0419 0.7764225,0.05775 0.02298,-0.04165 0.1009035,0.03632 0.1315017,0.0049 0.014722,-0.01512 0.026766,-0.05002 0.00979,-0.06256 C 8.3086023,21.140781 8.2178349,21.127941 7.9609485,21.005813 7.8720237,20.963537 7.7841591,20.919066 7.6957644,20.875693 7.3901529,20.720185 7.088721,20.556169 6.792816,20.382867 c -0.022228,-0.01302 0.089959,0.05 0.068552,0.03567 -0.073615,-0.04927 -0.150951,-0.09276 -0.2254497,-0.140674 -0.064177,-0.04128 -0.1270212,-0.08459 -0.1905318,-0.126891 -0.1283826,-0.08575 -0.2529783,-0.176835 -0.3764241,-0.269466 -0.00973,-0.0073 -0.1061703,-0.08087 -0.1271295,-0.09297 -0.1385934,-0.08005 -0.2791167,-0.156708 -0.4186749,-0.235061 -0.013649,0.0088 -0.030891,0.01375 -0.040948,0.02653 -0.029181,0.03709 -0.037988,0.102445 -0.042592,0.145357 -0.011642,0.108509 -0.00247,0.216606 0.00642,0.324811 0.013399,0.09635 0.024558,0.198693 0.075251,0.284282 0.00707,0.01194 0.012687,0.02629 0.024392,0.03374 0.1321638,0.08421 0.2696862,0.159689 0.4045293,0.239533 0.011902,-0.0051 0.025193,-0.0077 0.035705,-0.01524 0.078221,-0.05617 0.08503,-0.18393 0.093496,-0.269822 -5.1e-4,-0.04962 0.00176,-0.06924 -0.00766,-0.11687 C 6.033417,20.011978 5.814816,19.983948 5.6278608,19.9079 c -0.016773,-0.0068 -0.027467,0.0236 -0.0412,0.03541 -0.049923,0.06365 -0.1089546,0.145563 -0.099138,0.232264 0.00157,0.01384 0.0075,0.02682 0.011254,0.04023 0.2398644,0.272583 0.5917302,0.30664 0.920487,0.34155 0.2122668,0.01908 0.4254534,0.02284 0.6383133,0.03078 0,0 -0.3369759,-0.24699 -0.3369759,-0.24699 v 0 c -0.2145855,-0.01 -0.4296027,-0.01567 -0.6433605,-0.03834 -0.1254816,-0.01564 -0.2506674,-0.03116 -0.3737316,-0.06127 -0.027869,-0.0068 -0.1059993,-0.04068 -0.082661,-0.02399 0.2328516,0.166508 0.4531362,0.24274 0.2847729,0.182265 -0.00677,-0.0076 -0.016349,-0.01334 -0.020306,-0.02268 -0.026396,-0.06234 0.036811,-0.15283 0.076505,-0.194094 0.1561791,-0.06486 0.04553,-0.01006 -0.3283794,-0.232004 -0.00917,-0.0054 0.016881,0.01359 0.022773,0.02249 0.015599,0.02354 0.024811,0.06057 0.028506,0.08739 0.00266,0.0193 0.00244,0.03889 0.00366,0.05833 -0.00261,0.03691 -0.015727,0.20974 -0.068741,0.215202 -0.00665,6.84e-4 -0.012455,-0.0049 -0.018683,-0.0073 0.7271118,0.437128 0.3690423,0.277111 0.2973087,0.146532 -0.039029,-0.07105 -0.053248,-0.152098 -0.065992,-0.231014 -0.00998,-0.104042 -0.019206,-0.207119 -0.00633,-0.311519 1.8e-4,-0.0013 0.011844,-0.0878 0.028308,-0.103104 0.00441,-0.0041 0.012016,9.33e-4 0.018023,0.0014 -0.1134051,-0.06711 -0.2263293,-0.135043 -0.340215,-0.201336 -0.020185,-0.01175 0.039822,0.02445 0.059071,0.03768 0.1599447,0.109917 0.3100863,0.234123 0.4751019,0.33689 0.6213756,0.412283 1.2762894,0.772197 1.9363092,1.118301 0.093371,0.04704 0.1866186,0.09433 0.2801127,0.141126 0.066611,0.03334 0.2568153,0.147691 0.2001996,0.09928 -0.088719,-0.07586 -0.2074629,-0.110073 -0.298404,-0.183249 -0.01259,-0.01013 0.044548,-0.0061 0.043112,-0.02217 -0.00357,-0.04003 -0.1419249,0.07308 -0.1205607,-7.16e-4 -0.2580078,-0.01039 -0.515538,-0.029 -0.7721028,-0.05862 -0.1920246,-0.02612 -0.3857175,-0.05399 -0.5663883,-0.127713 -0.2043282,-0.07853 -0.402153,-0.171849 -0.5946729,-0.276123 0.084049,0.04941 0.1681032,0.09882 0.2521461,0.148241 0.034141,0.02008 -0.068684,-0.03948 -0.1024407,-0.0602 -0.1173081,-0.072 -0.2240655,-0.15202 -0.2892672,-0.276933 -0.010616,-0.0314 -0.022966,-0.06227 -0.031847,-0.09421 C 5.9748918,20.31065 5.9717247,20.260709 5.9540988,20.156214 5.917629,19.940006 5.8759707,19.7247 5.8367922,19.50898 5.7866709,19.243747 5.7354378,18.978455 5.691267,18.712144 5.681757,18.654804 5.706382,18.580896 5.665377,18.539699 5.4465912,18.319893 5.0794023,18.222132 5.2766979,18.276223 c 0.1392975,0.308283 0.2421918,0.633039 0.4006833,0.932874 0.1437864,0.06915 0.2829219,0.14894 0.4313589,0.207439 0.010809,0.0043 0.011409,-0.02061 0.013914,-0.03196 0.016025,-0.07259 -0.00709,-0.150993 0.00157,-0.224166 -9.99e-4,-0.148551 -0.00476,-0.297067 -0.00645,-0.445611 -0.00284,-0.240909 -0.00375,-0.482509 0.026793,-0.722012 0.022425,-0.144284 0.02644,-0.197102 0.065335,-0.338542 0.075868,-0.275895 0.207498,-0.531355 0.3465465,-0.779893 0.2224698,-0.370504 0.4524105,-0.754547 0.7843974,-1.038355 0.1660962,-0.109514 0.077759,-0.03124 -0.3217179,-0.274084 -0.00511,-0.0031 -0.00467,0.01102 -0.00736,0.01636 -0.016924,0.03354 -0.036603,0.06566 -0.057397,0.09691 -0.053077,0.08536 -0.1134357,0.164914 -0.1845567,0.236352 -0.099325,0.104785 -0.1952379,0.212876 -0.2987967,0.313549 -0.1135878,0.11822 -0.2270688,0.23702 -0.3308325,0.364058 -0.1224243,0.159971 -0.2225235,0.332806 -0.2790597,0.527653 -0.053113,0.154954 -0.1026156,0.311114 -0.1467045,0.46888 -0.026,0.100379 -0.046767,0.202096 -0.058701,0.30518 -0.02426,0.143613 -0.061602,0.284709 -0.1173111,0.419564 -0.050618,0.123114 -0.1054818,0.244839 -0.1496955,0.37029 -0.041138,0.122402 -0.077057,0.233911 -0.053593,0.364478 0.027122,0.188462 0.1161951,0.355269 0.2201313,0.513133 0.1082154,0.158682 0.2206161,0.3117 0.3567243,0.448386 0.2894412,0.290671 0.6385995,0.499307 0.9953727,0.699077 0.096064,0.05342 0.1911027,0.108731 0.2881911,0.160268 0.1711839,0.09087 0.4196259,0.212143 0.5972214,0.293408 0.079617,0.03643 0.1600062,0.07118 0.2407344,0.105079 0.055217,0.02319 0.1967217,0.118166 0.1670427,0.06615 -0.059317,-0.103961 -0.1777125,-0.160387 -0.2665686,-0.240581 -0.065817,-0.01032 -0.1309041,-0.02568 -0.1975494,-0.03 -0.097913,-0.0094 -0.1961733,-0.01124 -0.2939046,-0.02204 -0.1224882,-0.02118 -0.2376909,-0.06508 -0.3463866,-0.125671 0.094172,0.05513 0.1874361,0.111836 0.2825154,0.165382 0.033936,0.01911 -0.066296,-0.04091 -0.099012,-0.06204 C 7.1114415,20.90711 6.9511185,20.787365 6.7938429,20.66358 6.6983094,20.58474 6.6664188,20.563188 6.5826717,20.476849 6.4479453,20.337954 6.344748,20.173502 6.2623881,19.998998 6.1855542,19.824185 6.1164966,19.649223 6.0664569,19.464479 c -0.014393,-0.05314 -0.026475,-0.106922 -0.037047,-0.16095 -0.00657,-0.03357 0.012769,-0.08073 -0.014329,-0.101604 -0.1239306,-0.09544 -0.2741352,-0.150747 -0.4112025,-0.226121 0.055738,0.164835 0.068907,0.340836 0.1213116,0.506692 0.044398,0.166522 0.111975,0.325342 0.2118438,0.466794 0.051812,0.08501 0.1039353,0.168231 0.1782705,0.235753 0.06565,0.0615 0.1226235,0.131649 0.1844781,0.196761 0.045693,0.04438 0.086497,0.0926 0.1324803,0.136758 0.074975,0.07813 -0.041697,-0.04498 0.039327,0.04627 0.034146,0.03845 0.07972,0.06574 0.1123974,0.105929 0.061472,0.0603 0.1242498,0.119201 0.1861755,0.179011 0.2117748,0.167057 0.4571634,0.286845 0.6982719,0.405887 0.09454,0.04081 0.1911642,0.08769 0.2967594,0.08197 0.084707,-2.7e-4 0.1694175,-3.99e-4 0.2541237,9e-5 0.078341,5.94e-4 0.1566801,-5.1e-4 0.2350212,-7.29e-4 0.1041324,-3.06e-4 0.2082654,2.4e-4 0.3123975,-3e-4 0.099874,2.3e-5 0.1997421,5.25e-4 0.2996136,0.0011 0.080513,-3.15e-4 0.1610265,-6.42e-4 0.2415384,9e-5 0.074448,2.4e-4 0.1488936,-5.04e-4 0.2233413,-4.65e-4 0.1102377,-7.8e-4 0.2204769,-0.0014 0.3307176,-0.0014 0.1142562,2.1e-4 0.2285103,0.0012 0.3427668,0.0011 0.103068,3.3e-4 0.206136,-9.24e-4 0.309206,-7.44e-4 0.09765,5.49e-4 0.195294,0.0016 0.292941,7.5e-4 0.106212,-4.29e-4 0.212424,-4.62e-4 0.318637,-7.8e-4 0.125913,2.1e-4 0.251826,-6.72e-4 0.37774,-2.1e-4 0.122155,9e-5 0.244312,7.89e-4 0.366465,-1.5e-4 0.134323,-2.4e-4 0.26865,-3.99e-4 0.402969,8.49e-4 0.09034,2.7e-4 0.180671,9.27e-4 0.271008,7.02e-4 0.07761,1.8e-4 0.155215,1.5e-4 0.232821,1.8e-4 0.08444,-2.7e-4 0.168883,-3.57e-4 0.253325,-8.01e-4 0.0944,6e-5 0.188799,4.02e-4 0.283199,1.8e-4 0.09478,-2.1e-4 0.189552,-0.0013 0.284326,-2.7e-4 0.113324,0.0024 0.226654,0.0066 0.339359,0.01951 0.143688,0.01661 0.285396,0.04378 0.42817,0.06533 0.112325,0.0052 0.22492,-6.03e-4 0.337271,-0.0027 0.220174,-0.008 0.439515,-0.02878 0.657801,-0.05877 0.204135,-0.02802 0.40679,-0.06142 0.609889,-0.0959 0.03139,-0.0053 0.114761,0.0076 0.09408,-0.01657 -0.09234,-0.108158 -0.222946,-0.176621 -0.334419,-0.264931 -0.09516,0.02344 -0.193764,0.03118 -0.291007,0.04098 -0.140274,0.0097 -0.279631,0.02837 -0.418808,0.04807 -0.174177,0.02291 -0.352413,0.03326 -0.5208,0.086 -0.01609,0.01037 -0.0351,0.01723 -0.04826,0.03113 -0.106248,0.11219 0.336557,0.256174 0.488746,0.31872 0.08011,0.02343 0.163397,0.03152 0.246847,0.02935 0.07943,-6e-5 0.159072,4.32e-4 0.238261,-0.0066 0.07193,-0.0076 0.142917,-0.01992 0.213558,-0.0354 0.06305,-0.01128 0.125761,-0.02388 0.189466,-0.03115 0.07828,-0.01501 0.155467,-0.03512 0.232831,-0.05418 0.07854,-0.02192 0.157539,-0.04276 0.238578,-0.05331 0.08516,-0.0093 0.169302,-0.02516 0.254509,-0.03399 0.0833,-0.01099 0.165668,-0.02729 0.247961,-0.04411 0.07007,-0.01761 0.141632,-0.03153 0.205639,-0.06681 0.0638,-0.03054 0.124688,-0.06561 0.182981,-0.105793 0.06283,-0.04633 0.127041,-0.09063 0.193195,-0.132113 0.07258,-0.04651 0.14573,-0.09187 0.213701,-0.145165 0.06902,-0.0491 0.13197,-0.10457 0.192776,-0.163517 0.05662,-0.05142 0.115804,-0.101273 0.157711,-0.166154 0.04254,-0.06116 0.08062,-0.125412 0.128434,-0.182675 0.03764,-0.04832 0.06913,-0.101146 0.103745,-0.151649 0.03402,-0.04641 0.06464,-0.09419 0.08803,-0.146939 0.0343,-0.07168 0.07453,-0.14094 0.09015,-0.220118 0.03035,-0.139203 0.05707,-0.279232 0.09547,-0.41656 0.0065,-0.01887 0.01254,-0.0379 0.01945,-0.05662 0.0021,-0.0057 0.0126,-0.01318 0.0075,-0.0165 -0.122998,-0.08067 -0.252348,-0.15121 -0.378522,-0.226815 0.0036,0.0084 0.0092,0.01619 0.01087,0.02518 0.0036,0.01941 0.0059,0.09718 0.0066,0.115793 0.0058,0.192183 -0.01018,0.04522 0.408575,0.254447 0.0035,0.0018 -0.0011,-0.0078 -0.0012,-0.01172 -0.0011,-0.03959 0.0019,-0.0792 0.0041,-0.118691 0.0125,-0.141011 0.03501,-0.281892 0.08959,-0.413494 0.05177,-0.118254 0.112753,-0.233702 0.145319,-0.359219 0.01966,-0.09853 0.02224,-0.197988 0.01622,-0.298225 -0.006,-0.138794 -0.02282,-0.277523 -0.06723,-0.409846 -0.02319,-0.06931 -0.03549,-0.111395 -0.0653,-0.17868 -0.06339,-0.143088 -0.141424,-0.280034 -0.21034,-0.420398 -0.168213,-0.306143 -0.3434,-0.609539 -0.547705,-0.893339 -0.103049,-0.151408 -0.05832,-0.08934 -0.154602,-0.21874 -0.01385,-0.01861 -0.02126,-0.04471 -0.04167,-0.05572 -0.13775,-0.07437 -0.283089,-0.133823 -0.426341,-0.196953 -0.0227,-0.01 0.127924,0.0975 0.04565,0.05879 0.05518,0.08666 0.11634,0.16798 0.185134,0.244153 0.05064,0.04172 0.09219,0.09367 0.135799,0.142415 0.125727,0.179183 0.168894,0.402766 0.248506,0.603374 0.06419,0.185807 0.125598,0.372033 0.183419,0.559924 0.01386,0.04505 0.02736,0.09021 0.04129,0.135231 0.0096,0.03117 0.003,0.07434 0.02947,0.09335 0.131056,0.09398 0.282978,0.154771 0.424466,0.232157 -0.0085,-0.04272 -7.92e-4,-0.0078 -0.02311,-0.08054 -0.0412,-0.134288 -0.08856,-0.266496 -0.153875,-0.391371 -0.144195,-0.285039 -0.28936,-0.569534 -0.424489,-0.859032 -0.145643,-0.07588 -0.285006,-0.165273 -0.436928,-0.227636 -0.01511,-0.0062 -0.02535,0.02094 -0.03557,0.03368 -0.0096,0.01198 -0.03549,0.03041 -0.0233,0.03975 0.115296,0.08829 0.248892,0.149723 0.37178,0.227096 0.01143,0.0072 -0.02964,-0.0051 -0.03708,-0.01636 -0.01848,-0.02801 -0.02385,-0.06274 -0.03578,-0.09411 -0.04539,-0.168803 -0.08886,-0.338164 -0.11775,-0.51077 -0.0081,-0.04858 0.01658,-0.11253 -0.01905,-0.14655 -0.118086,-0.112764 -0.267873,-0.1882 -0.411952,-0.265021 -0.01383,-0.0074 0.0019,0.03128 0.0029,0.04692 0.02688,0.275976 0.03715,0.556287 0.0248,0.833479 -0.0023,0.05269 -0.04892,0.118238 -0.01384,0.157628 0.101027,0.113448 0.252833,0.168473 0.379249,0.252709 -0.0482,-0.109253 -0.03026,-0.05551 -0.06024,-0.223685 -0.0243,-0.136307 -0.04422,-0.273369 -0.06851,-0.409677 -0.0097,-0.05458 0.01062,-0.126454 -0.03065,-0.163473 -0.125837,-0.112875 -0.291669,-0.170974 -0.437503,-0.25646 -0.02175,0.03158 -0.04577,0.0617 -0.06525,0.09472 -0.07063,0.119725 -0.128702,0.246446 -0.195649,0.368267 -0.108684,0.197765 -0.222678,0.393493 -0.358477,0.574166 0,0 0.376412,0.222951 0.376412,0.222951 z" />
  <path
     style="fill:#f3d8a6;fill-opacity:1;stroke-width:0.03"
     id="path518"
     d="m 7.5647037,20.15602 c -0.1839072,0.112837 -0.3576399,0.245168 -0.5092053,0.3992 -0.036973,0.03758 -0.071055,0.07789 -0.1065831,0.116834 -0.092717,0.128756 -0.2578245,0.3251 -0.2267988,0.499262 0.00425,0.02386 0.016171,0.04568 0.024257,0.06853 0.016641,0.02032 0.031069,0.04268 0.049924,0.06096 0.020753,0.02013 0.043414,0.03869 0.068192,0.05358 0.1487109,0.08937 0.2986245,0.176937 0.4516005,0.258791 0.0298,0.01595 0.1049187,0.03538 0.1422057,0.02581 0.017254,-0.0044 0.029644,-0.01976 0.044467,-0.02964 0.00685,-0.01964 0.017328,-0.03837 0.020559,-0.05892 0.015486,-0.0985 -0.046873,-0.202799 -0.09574,-0.282423 -0.00333,-0.02015 -0.06276,-0.07027 -0.047351,-0.0967 0.00562,-0.0096 0.066643,-0.02786 0.076738,-0.03179 0.010664,-0.01371 0.026052,-0.02481 0.031992,-0.04113 0.044868,-0.123284 -0.02076,-0.358148 -0.050057,-0.469045 -0.053286,-0.201703 -0.15327,-0.500349 -0.2151729,-0.69184 -0.2065368,-0.657185 -0.4218084,-1.316067 -0.5493666,-1.994476 -0.01716,-0.09126 -0.028763,-0.183486 -0.043145,-0.275229 -0.025115,-0.244641 -0.047073,-0.496865 0.00358,-0.740199 0.024475,-0.117566 0.043612,-0.152141 0.087366,-0.2624 0.1023849,-0.217697 0.2255895,-0.425385 0.3615321,-0.62369 0.1105995,-0.167562 0.2425404,-0.317188 0.3843009,-0.458563 0.170985,-0.163793 0.3749943,-0.284067 0.5858004,-0.388613 0.264507,-0.134809 0.5469627,-0.185943 0.8386278,-0.220027 0.3038337,-0.02403 0.6088101,-0.03229 0.9133932,-0.04267 0.1877802,-0.0062 0.3756594,-0.0082 0.5635254,-0.0096 0.148923,9e-6 0.297844,-6e-5 0.446766,2.4e-4 0.150961,4.17e-4 0.301921,-1.5e-4 0.452881,-5.16e-4 0.219184,-8.49e-4 0.438367,-0.0019 0.65755,-0.003 0.297063,-9.9e-4 0.593901,0.01369 0.890868,0.02003 0.285397,0.0042 0.570685,0.0046 0.855833,0.01789 0.240282,0.0084 0.480343,0.02066 0.720529,0.03139 0.244962,0.01083 0.490154,0.0143 0.735315,0.01702 0.165096,0.0051 0.330537,-0.0024 0.495447,0.0072 0.144084,0.01101 0.288262,0.02745 0.429906,0.05654 0.14341,0.0306 0.285589,0.07019 0.423727,0.1197 0.137381,0.06607 0.415291,0.195033 -0.203842,-0.122487 -0.02091,-0.01072 0.03759,0.02826 0.05543,0.04356 0.04048,0.03471 0.06168,0.05876 0.09819,0.09699 0.08139,0.09365 0.154986,0.194602 0.216203,0.302575 0.04238,0.08285 0.09082,0.162287 0.140754,0.240737 0.0025,0.0041 0.04243,0.06821 0.0451,0.07308 0.0052,0.0096 0.0048,0.03567 0.01389,0.02966 0.01154,-0.0076 -0.0092,-0.04622 0.0038,-0.04132 0.11403,0.04324 0.209305,0.130469 0.325872,0.166305 0.04793,0.01474 -0.07462,-0.06702 -0.111927,-0.100532 -0.344213,-0.325132 -0.68609,-0.652803 -1.038441,-0.969161 -0.181553,-0.159908 -0.362612,-0.264276 -0.597489,-0.365424 -0.04619,-0.01989 -0.05761,0.09456 -0.05761,0.09515 1.8e-4,0.02798 0.01096,0.05489 0.01644,0.08233 0.09193,0.227521 0.254605,0.414735 0.425678,0.586653 0.169375,0.15353 0.365833,0.241986 0.574885,0.34915 0.04738,0.02429 0.201329,0.04854 0.257387,0.06057 0.110994,0.02692 0.228997,0.03227 0.337612,0.0693 0.02482,0.0085 0.07617,0.03475 0.100887,0.04699 -0.113387,-0.06354 -0.223674,-0.132967 -0.34016,-0.190635 -0.01582,-0.0078 0.02622,0.0244 0.03514,0.03963 0.0125,0.02133 0.02267,0.04449 0.02824,0.06857 0.03242,0.140086 -0.0067,0.271746 -0.04164,0.406417 -0.02741,0.05805 -0.04942,0.118968 -0.08223,0.174145 -0.18788,0.315943 -0.488352,0.49698 -0.818602,0.637651 -0.110921,0.04725 -0.225604,0.08513 -0.338405,0.127689 -0.636658,0.221151 -1.297055,0.365657 -1.934645,0.583828 -0.09237,0.03161 -0.182844,0.06849 -0.274266,0.102734 -0.211296,0.09913 -0.461286,0.205087 -0.580358,0.422331 -0.0578,0.105445 -0.0471,0.137713 -0.05523,0.254998 0.01038,0.04823 0.01409,0.0984 0.03114,0.144696 0.07408,0.201087 0.242002,0.354499 0.42391,0.459149 0.606344,0.348821 0.453073,0.281252 0.960692,0.414775 0.124172,0.01327 0.247647,0.0383 0.372517,0.03979 0.331862,0.004 0.705935,-0.06855 0.903361,-0.369103 0.17041,-0.259431 0.11272,-0.386056 0.09695,-0.682582 -0.06636,-0.14633 -0.11183,-0.304073 -0.199087,-0.438991 -0.242445,-0.374869 -0.599945,-0.694246 -0.954788,-0.955239 -0.485722,-0.357256 -1.112704,-0.685609 -1.658619,-0.908741 -0.24452,-0.09994 -0.505031,-0.155108 -0.757546,-0.232661 -0.239811,-0.03963 -0.477377,-0.09678 -0.719433,-0.118876 -0.575105,-0.0525 -1.171002,0.0086 -1.6887843,0.280548 -0.3598437,0.189011 -0.3874797,0.272582 -0.6429126,0.564793 -0.054781,0.117521 -0.1280271,0.228091 -0.1643424,0.352564 -0.1124325,0.385368 -0.013074,0.791822 0.210696,1.116816 0.2220093,0.322437 0.3675123,0.385747 0.6820383,0.614287 0.2557614,0.129677 0.500967,0.282705 0.767284,0.38903 0.165881,0.06623 0.3441,0.100491 0.520982,0.125298 0.49274,0.06911 1.113498,0.01156 1.552178,-0.243662 0.136107,-0.07919 0.242642,-0.20077 0.363963,-0.301154 0.07545,-0.123653 0.175817,-0.235204 0.226347,-0.370959 0.163735,-0.439899 -0.0041,-0.860763 -0.334892,-1.166545 -0.346528,-0.320306 -0.810757,-0.457061 -1.231147,-0.637823 -0.184715,-0.01804 -0.368562,-0.05609 -0.554145,-0.05411 -0.579599,0.0062 -1.357151,0.240306 -1.6106174,0.825213 -0.049041,0.113169 -0.046385,0.242275 -0.069578,0.363412 0.034243,0.123736 0.044379,0.256847 0.1027299,0.371208 0.1446531,0.283501 0.4068198,0.495534 0.6769698,0.648391 0.2689777,0.152194 0.5462487,0.292363 0.8341507,0.404724 0.420107,0.163958 0.851963,0.196712 1.292868,0.257868 0.566453,0.04484 1.134071,0.01422 1.689425,-0.106969 0.206327,-0.04502 0.419296,-0.10637 0.608251,-0.204782 0.05579,-0.02906 0.104459,-0.07011 0.156689,-0.10516 0.0266,-0.03124 0.05957,-0.05803 0.07981,-0.09372 0.127193,-0.224277 -0.424357,-0.382909 -0.445617,-0.392668 -0.02271,-0.01042 -0.14638,0.02564 -0.164477,0.0303 0,0 0.358894,0.249222 0.358894,0.249222 v 0 c 0.02646,-0.0046 0.05256,-0.01239 0.07938,-0.01383 0.02423,-0.0013 0.09144,0.02094 0.07257,0.0057 -0.09607,-0.0777 -0.206992,-0.13506 -0.312355,-0.199606 -0.01574,-0.0096 0.0361,0.01765 0.04317,0.0347 0.02577,0.0621 -0.03511,0.114947 -0.06355,0.156174 -0.0463,0.03576 -0.0887,0.07723 -0.13889,0.107271 -0.176838,0.105841 -0.369547,0.170386 -0.568946,0.220292 -0.54038,0.135248 -1.095354,0.167086 -1.64996,0.121796 -0.895824,-0.131539 -0.438693,-0.03567 -1.30102,-0.275338 -0.08053,-0.02238 -0.168503,-0.02608 -0.24189,-0.06609 C 10.050961,18.676449 9.7942736,18.4726 9.649376,18.203251 9.590871,18.094496 9.577411,17.966982 9.5414282,17.848847 c 0.01891,-0.117389 0.012429,-0.241826 0.056729,-0.352168 0.2334972,-0.581587 0.9953668,-0.811355 1.5620898,-0.81107 0.185008,9e-5 0.367691,0.04142 0.551537,0.06213 0.07033,0.0027 0.146878,-0.02098 0.210993,0.0081 0.392575,0.177774 0.774778,0.553782 0.814861,1.005491 0.03209,0.361687 -0.09093,0.462548 -0.26435,0.758306 -0.117284,0.09847 -0.21983,0.217805 -0.351853,0.295404 -0.435757,0.256127 -1.044889,0.305826 -1.533759,0.230216 C 10.356888,19.00952 10.137304,18.91975 9.9085296,18.873229 9.5973384,18.653202 9.4537896,18.593033 9.2323653,18.28019 9.0112146,17.967734 8.9069577,17.57143 9.0100719,17.195535 9.0434859,17.073726 9.1134912,16.965057 9.165201,16.849818 9.4085421,16.562781 9.4370229,16.477899 9.7830309,16.289447 10.283549,16.016843 10.86453,15.950065 11.425255,15.998159 c 0.237626,0.02038 0.470893,0.07607 0.706339,0.114105 0.258979,0.08006 0.952485,0.272751 1.242684,0.427989 0.227311,0.121596 0.444129,0.263481 0.651942,0.416026 0.346258,0.254167 0.681349,0.555543 0.914864,0.921846 0.08199,0.128609 0.124365,0.278534 0.186548,0.4178 0.01495,0.279882 0.0697,0.40287 -0.09094,0.647964 -0.189988,0.289857 -0.554314,0.357182 -0.873458,0.34839 -0.124894,-0.0034 -0.247934,-0.03115 -0.3719,-0.04673 -0.115059,-0.03361 -0.226148,-0.08669 -0.345178,-0.100842 -0.03055,-0.0036 0.09047,0.08146 0.06316,0.06731 -0.174199,-0.09025 -0.340329,-0.238472 -0.416223,-0.423062 -0.01736,-0.04221 -0.02263,-0.08843 -0.03394,-0.132646 0.0035,-0.107768 -0.0077,-0.135833 0.04282,-0.234057 0.10796,-0.209865 0.342671,-0.318559 0.54123,-0.418906 0.08773,-0.03585 0.17433,-0.07462 0.263195,-0.10756 0.631964,-0.234286 1.292931,-0.376685 1.932518,-0.586971 0.252144,-0.09105 0.40984,-0.135936 0.642017,-0.263648 0.29472,-0.162115 0.514771,-0.378772 0.6501,-0.687819 0.04296,-0.141392 0.08593,-0.27025 0.06958,-0.420493 -0.0018,-0.01621 -0.02329,-0.115238 -0.04725,-0.131388 -0.134791,-0.09084 -0.279706,-0.165683 -0.419559,-0.248524 -0.139359,-0.05853 -0.290409,-0.07178 -0.437235,-0.103555 -0.05477,-0.01245 -0.126446,-0.02772 -0.18062,-0.04397 -0.02524,-0.0076 -0.09644,-0.04078 -0.07472,-0.02585 0.09864,0.06777 0.204798,0.123899 0.307311,0.185659 0.02243,0.01351 -0.04564,-0.02585 -0.06705,-0.04091 -0.02486,-0.01749 -0.04769,-0.03772 -0.07153,-0.05659 -0.171797,-0.163533 -0.334588,-0.341545 -0.430384,-0.56175 -0.0061,-0.02196 -0.01301,-0.04371 -0.0183,-0.06587 -0.0022,-0.0091 -0.008,-0.01928 -0.004,-0.02773 0.0026,-0.0056 0.02349,8.76e-4 0.01833,-0.0025 -0.106646,-0.06956 -0.217301,-0.132779 -0.326388,-0.198447 -0.02676,-0.01611 0.05407,0.03148 0.07939,0.04976 0.0372,0.02686 0.07193,0.057 0.1079,0.08549 0.357239,0.307336 0.69984,0.631139 1.032251,0.965138 0.188767,0.185763 0.180209,0.19243 0.540579,0.363333 0.01645,0.0078 0.03294,-0.02096 0.03919,-0.03806 0.0088,-0.02409 -0.04767,-0.09066 -0.05684,-0.112649 -0.05126,-0.07729 -0.09957,-0.156629 -0.143398,-0.238376 -0.05991,-0.111913 -0.13488,-0.214974 -0.21439,-0.313716 -0.02804,-0.03068 -0.06656,-0.07387 -0.09656,-0.102356 -0.170241,-0.16164 -0.388933,-0.268367 -0.605581,-0.355141 -0.140191,-0.04614 -0.282678,-0.08704 -0.427675,-0.114984 -0.14313,-0.02604 -0.288222,-0.04242 -0.433414,-0.05121 -0.163392,-0.0056 -0.326955,-9e-5 -0.490417,-0.0015 -0.243829,-0.0013 -0.487691,-0.0046 -0.731284,-0.01616 -0.240499,-0.01205 -0.480916,-0.02482 -0.721637,-0.03185 -0.283839,-0.0099 -0.567789,-0.0075 -0.851717,-0.01394 -0.298073,-0.0073 -0.596064,-0.02046 -0.894243,-0.02128 -0.221916,-0.0011 -0.443833,-0.0021 -0.66575,-0.003 -0.151582,-4.02e-4 -0.303163,-0.0011 -0.454746,-8.64e-4 -0.148418,1.2e-4 -0.296844,-3.81e-4 -0.445256,0.0013 -0.1854592,0.0015 -0.3707938,0.0072 -0.5560258,0.0168 -0.303789,0.01415 -0.6081336,0.02129 -0.9111048,0.04849 -0.2944812,0.03694 -0.5865438,0.09207 -0.8540085,0.227401 -0.2131253,0.109305 -0.4203059,0.232804 -0.5945441,0.39912 -0.1446558,0.142628 -0.2792265,0.294045 -0.3902832,0.464927 -0.1342668,0.203181 -0.2540391,0.416014 -0.3593706,0.635607 -0.044953,0.114 -0.06516,0.150716 -0.089648,0.27244 -0.050709,0.252068 -0.018352,0.511421 0.013708,0.76334 0.017305,0.09394 0.032003,0.188391 0.051914,0.28181 0.1445313,0.678102 0.3690849,1.335887 0.5581782,2.001958 0.065339,0.221116 0.1372932,0.447966 0.1872108,0.673855 0.0175,0.07919 0.070349,0.322281 0.035649,0.417933 -0.00352,0.0097 -0.014217,0.01493 -0.021326,0.02239 -0.045933,0.01978 -0.1185687,0.04889 -0.1109697,0.11316 0.00178,0.01506 0.042738,0.07773 0.047979,0.0862 0.055985,0.07845 0.1171743,0.175225 0.1064508,0.275551 -0.036931,0.01436 -0.029966,0.01665 -0.081291,0.0019 -0.024651,-0.0071 -0.093024,-0.04225 -0.071622,-0.02812 0.095147,0.06283 0.1950438,0.118194 0.2939463,0.174929 0.024009,0.01377 -0.046932,-0.02947 -0.069148,-0.04598 -0.019181,-0.01425 -0.036564,-0.03078 -0.054845,-0.04617 -0.010407,-0.01847 -0.024337,-0.03535 -0.03122,-0.0554 -0.053635,-0.156212 0.1124592,-0.361478 0.1947681,-0.476441 0.034765,-0.03807 0.067871,-0.07772 0.1042956,-0.114203 0.1511937,-0.15144 0.3276093,-0.284519 0.5225577,-0.373554 0,0 -0.3721665,-0.247302 -0.3721665,-0.247302 z" />
  <path
     style="fill:#f3d8a6;fill-opacity:1;stroke-width:0.03"
     id="path520"
     d="m 11.767757,7.85493 c 0.155505,0.1633302 0.319108,0.3184953 0.482106,0.4742676 0.142567,0.1360542 0.284781,0.2728662 0.414669,0.4212906 0.07116,0.081314 0.08961,0.107049 0.154805,0.1901973 0.05829,0.085569 0.167507,0.2345847 0.154962,0.3457437 -0.0021,0.018809 -0.01033,0.03642 -0.01549,0.05463 -0.01125,0.018641 -0.0204,0.038726 -0.03375,0.055923 -0.08159,0.1050744 -0.237055,0.1913322 -0.348541,0.2624874 -0.09502,0.065884 -0.201702,0.1273383 -0.263963,0.2281446 -0.0019,0.00941 -0.0067,0.018675 -0.0058,0.028239 0.0011,0.010986 0.0021,0.025445 0.01159,0.031021 0.136995,0.080168 0.276258,0.1574118 0.421153,0.2222188 0.02024,0.0091 0.0443,-0.0023 0.0664,-0.0042 0.07616,-0.0065 0.135591,-0.01462 0.212735,-0.02407 0.122657,-0.01406 0.244884,-0.03164 0.367021,-0.04959 0.0192,-0.0028 0.103671,-0.01857 0.133959,-0.01523 0.0056,6.24e-4 0.0093,0.0064 0.01402,0.0096 -0.134643,-0.08001 -0.261037,-0.175909 -0.403927,-0.2400451 -0.02288,-0.01027 -0.04642,0.019059 -0.07012,0.02727 -0.02797,0.00969 -0.05621,0.018669 -0.08478,0.026405 -0.02621,0.0071 -0.05239,0.0157 -0.07945,0.018066 -0.125052,0.010938 -0.564598,-0.2769642 0.31111,0.1861191 0.0062,-0.01198 0.01009,-0.02557 0.01875,-0.03594 0.09198,-0.1102837 0.222262,-0.187153 0.344376,-0.2583187 0.08734,-0.050902 0.247356,-0.1345686 0.336917,-0.1820367 0.173917,-0.092931 0.349415,-0.1871928 0.501041,-0.3147555 0.05263,-0.044277 0.08111,-0.075365 0.127886,-0.1231125 0.03484,-0.037042 0.0665,-0.077583 0.09111,-0.1222254 0.01169,-0.021206 0.01958,-0.044023 0.03184,-0.064896 -0.131601,-0.071322 -0.256523,-0.1566588 -0.394804,-0.2139657 -0.01435,-0.00595 -0.0091,0.029776 -0.01517,0.044062 -0.01254,0.029383 -0.02532,0.058773 -0.04069,0.086779 -0.0599,0.1091193 -0.114799,0.1873788 -0.2014,0.2819877 -0.0516,0.056371 -0.109718,0.106407 -0.164577,0.1596105 -0.253698,0.2249115 -0.54733,0.3987798 -0.86052,0.5265732 -0.01241,0.00337 -0.04817,0.00334 -0.03723,0.010096 0.132689,0.081976 0.263602,0.1739721 0.412145,0.2215281 0.03737,0.01196 0.06821,-0.03887 0.103258,-0.05652 0.206106,-0.1037999 0.420364,-0.1911656 0.631592,-0.2837795 0.194446,-0.086845 0.385868,-0.1811619 0.566097,-0.2950395 0.08388,-0.052999 0.166562,-0.110538 0.240227,-0.1774149 0.03102,-0.028166 0.0586,-0.059915 0.0879,-0.089873 0.127868,-0.1485972 0.220084,-0.3225798 0.29947,-0.5006733 0.05093,-0.1261458 0.0949,-0.2550849 0.139957,-0.3834462 0.03712,-0.1087467 0.05449,-0.2227242 0.07097,-0.3360276 0.0266,-0.1720806 0.04799,-0.3449628 0.07214,-0.5174418 0.02572,-0.1829781 0.04021,-0.3668922 0.04626,-0.5514756 0.0059,-0.1964586 -0.02892,-0.389892 -0.06996,-0.5810316 -0.04218,-0.1827525 -0.09832,-0.3619452 -0.150227,-0.5421144 -0.006,-0.021662 -0.0121,-0.043312 -0.01808,-0.064987 -0.01321,-0.04791 -0.02805,-0.096178 -0.03574,-0.1454091 -0.0048,-0.030723 -0.0098,-0.031537 0.0038,-0.022726 0.03882,0.03339 0.0024,0.00543 0.06336,0.037308 0.01839,0.00961 0.0721,0.041073 0.05393,0.031061 -0.09965,-0.05492 -0.195235,-0.1177587 -0.298383,-0.1657875 -0.02777,-0.012929 0.04799,0.038219 0.07005,0.059469 0.02609,0.025136 0.04945,0.052971 0.07417,0.079457 0.107013,0.1361034 0.207339,0.2839773 0.265465,0.4485615 0.01096,0.031044 0.0189,0.063076 0.02835,0.094614 0.05256,0.2116218 0.03678,0.4293735 0.0065,0.6427908 -0.02895,0.1587489 -0.07716,0.3130659 -0.134859,0.4634901 -0.04823,0.1096338 -0.08324,0.2239875 -0.1178,0.3384399 -0.02584,0.082515 -0.0528,0.1653309 -0.09297,0.2422347 -0.02885,0.055213 -0.0417,0.069928 -0.07772,0.1213596 -0.09041,0.114348 -0.216869,0.1832424 -0.347935,0.2405193 -0.124319,0.051566 -0.252634,0.09273 -0.379514,0.137433 -0.118551,0.04422 -0.238884,0.084385 -0.351639,0.1422522 -0.124853,0.073425 -0.230643,0.1751481 -0.339051,0.270318 -0.12002,0.097867 -0.231186,0.2049597 -0.338666,0.3162186 -0.08578,0.087539 -0.169462,0.1768842 -0.247865,0.2710968 -0.05704,0.069567 -0.105319,0.1456656 -0.159731,0.2171781 -0.01975,0.025964 -0.06163,0.076712 -0.08255,0.1022856 -0.06734,0.086018 -0.139921,0.1679097 -0.221232,0.2409507 -0.04567,0.041539 -0.09246,0.081362 -0.140733,0.1197791 -0.03784,0.02774 -0.07602,0.05619 -0.118774,0.07591 -0.04893,0.02182 -0.101148,0.02714 -0.153917,0.03123 -0.07617,0.0048 -0.152519,0.0037 -0.228787,0.0031 -0.05835,-7.83e-4 -0.116702,-7.17e-4 -0.175056,-7.95e-4 -0.05679,2.4e-4 -0.11358,-1.5e-4 -0.170372,-4.08e-4 -0.0534,-0.0011 -0.106833,0.002 -0.160111,-0.0019 -0.08362,-0.0098 -0.167112,-0.02022 -0.250919,-0.02825 -0.128455,-0.01277 -0.25191,-0.05317 -0.376281,-0.0856 C 10.864194,9.994104 10.786641,9.974856 10.71174,9.948173 10.66042,9.927385 10.68585,9.93697 10.63548,9.919286 10.59029,9.898778 10.54166,9.889088 10.494634,9.874309 c -0.04309,-0.015503 -0.02177,-0.00834 -0.06393,-0.021575 -0.04415,-0.021116 -0.09398,-0.023533 -0.137789,-0.044788 -0.0052,-0.00333 -0.01002,-0.00715 -0.01547,-0.00999 -0.0057,-0.00298 -0.012,-0.00464 -0.01782,-0.00738 -0.0255,-0.012039 -0.04853,-0.027807 -0.07448,-0.038858 C 10.130575,9.732501 10.080328,9.703266 10.029408,9.676204 10.045078,9.690128 9.944542,9.629724 9.965522,9.64177 10.079091,9.7071111 10.41929,9.9036414 10.305924,9.8380728 10.149473,9.7475853 9.9911649,9.6534558 9.8316945,9.5655591 9.7606029,9.53154 9.6925956,9.4918098 9.6204222,9.4599777 c -0.00891,-0.00474 -0.01781,-0.00948 -0.026715,-0.014219 -0.00766,-0.00371 -0.015437,-0.00718 -0.022981,-0.011119 -0.0065,-0.00339 -0.025506,-0.014518 -0.019144,-0.010862 0.6630388,0.381027 0.4563008,0.2722017 0.3332217,0.1897881 -0.029775,-0.019892 -0.053161,-0.046323 -0.076102,-0.073364 -0.012576,-0.016806 -0.024178,-0.035015 -0.031647,-0.054742 -0.00143,-0.00379 -0.00178,-0.00799 -0.00361,-0.011606 -4.95e-4,-9.84e-4 -4.05e-4,0.00216 -6.09e-4,0.00324 0.0016,0.00366 0.00197,0.00815 0.00479,0.010972 0.00444,0.00446 0.010698,0.00663 0.016053,0.00993 0.00809,0.00499 0.016285,0.00982 0.024288,0.014957 0.00987,0.00633 0.039539,0.025224 0.029335,0.019438 C 9.5679375,9.3739761 9.3892623,9.2650194 9.5517273,9.3636774 c 0.2069151,0.130725 0.419076,0.251577 0.6309877,0.3743406 0.07142,0.039445 0.147136,0.070689 0.223625,0.098813 0.01009,0.00362 0.03949,0.016312 0.03027,0.01085 -0.124562,-0.071417 -0.249123,-0.1428333 -0.373685,-0.2142501 0.0017,-0.012361 0.01293,-0.027417 0.005,-0.037082 -0.0084,-0.010325 -0.02646,-0.00322 -0.03963,-0.00529 C 9.9463908,9.5781537 9.9445473,9.5765172 9.8570496,9.5582238 9.7161465,9.526845 9.5784429,9.4837329 9.4440666,9.4313442 9.3925704,9.4056393 9.3349323,9.3925413 9.2844021,9.364767 c -0.00692,-0.0038 -0.012743,-0.00932 -0.019114,-0.013983 0.1229685,0.092745 0.245937,0.1854903 0.3689055,0.2782353 0.1645236,0.058311 0.3297327,0.1146492 0.4946384,0.1719111 0.0186,0.00637 0.173761,0.088893 0.143078,-0.021622 C 10.26063,9.738681 10.123785,9.6501732 10.114822,9.6438033 10.072502,9.6137241 10.029475,9.5846514 9.9868014,9.5550753 9.8018469,9.4282683 9.6125784,9.3045294 9.4475358,9.1516119 9.4239882,9.1297944 9.4019322,9.1064205 9.3791307,9.0838245 9.2742864,8.9746782 9.1998069,8.8526091 9.1421598,8.7136473 9.0899913,8.5697331 9.0453678,8.4230889 8.9985978,8.277321 8.9408391,8.0809068 8.8739325,7.8875898 8.804667,7.694997 8.7315675,7.4985807 8.6635662,7.3005501 8.6000778,7.1008422 8.5423728,6.9293592 8.5059087,6.7525644 8.4730719,6.575019 8.4378465,6.3831597 8.4225756,6.188928 8.4133482,5.9943618 c -0.00662,-0.2002605 -0.00941,-0.4007745 9e-5,-0.6009621 0.011995,-0.1182714 0.024181,-0.2409378 0.074427,-0.350457 0.00777,-0.016942 0.017714,-0.032802 0.026571,-0.049203 0.054231,-0.082637 0.1203879,-0.1601523 0.2009139,-0.2181846 0.1585605,-0.00587 0.095572,-1.5e-4 -0.3556752,-0.1964211 -0.012042,-0.00524 0.011175,0.02431 0.012431,0.037381 0.00247,0.02569 4.32e-4,0.051671 -0.0014,0.077414 -0.00434,0.060982 -0.018367,0.1463373 -0.027221,0.205701 -0.033998,0.2167869 -0.091672,0.4286544 -0.142923,0.6417135 -0.037024,0.1483041 -0.058726,0.2995953 -0.074206,0.4514682 -0.010891,0.1273551 -0.00818,0.2553522 -0.00847,0.3830376 -0.00592,0.1422468 0.020268,0.2823363 0.047958,0.4211025 0.036667,0.1563975 0.083144,0.3102702 0.1294611,0.4640184 0.04451,0.1377087 0.091448,0.2745585 0.1446018,0.4091775 0.044332,0.1043394 0.085702,0.2089821 0.1109226,0.3196839 0.01469,0.063304 0.012436,0.1285824 0.021221,0.1925781 0.00588,0.037456 0.0138,0.074177 0.029134,0.1089273 0.079326,0.1491765 0.3487257,0.1951605 0.4476963,0.2307957 0.011768,0.00424 -0.00902,-0.02333 -0.013535,-0.034995 C 8.9593296,8.3425431 8.8665435,8.207679 8.7891951,8.0638161 8.7702057,8.0284971 8.7527325,7.992384 8.7345012,7.9566678 8.6744901,7.8249474 8.6177631,7.6908225 8.5790376,7.5510585 8.5564224,7.4694375 8.5539534,7.4463147 8.538816,7.3643451 8.5133031,7.2173217 8.5034949,7.0682997 8.5002219,6.9193104 c 0.00402,-0.07672 -0.00766,-0.1630044 0.00994,-0.2384082 0.099451,0.1113624 -0.022939,-0.026508 -0.386229,-0.187923 -0.010968,-0.00487 0.016986,0.017489 0.022363,0.028219 0.00974,0.019444 0.015992,0.040493 0.022468,0.061255 0.00885,0.028369 0.015382,0.057412 0.023471,0.086007 0.012048,0.042593 0.024625,0.085035 0.036938,0.1275528 0.081001,0.2813535 0.1534626,0.5699592 0.3008994,0.8259432 0.035243,0.06119 0.077335,0.1181703 0.1160025,0.1772556 0.1300143,0.1685775 0.2764506,0.2938581 0.4633902,0.3952128 0.1637295,0.088771 0.3261105,0.1810497 0.4964262,0.2564169 0.1057746,0.046807 0.2212662,0.041052 0.3327372,0.045178 0.053465,-0.023121 0.1108406,-0.038743 0.1603936,-0.069362 0.114596,-0.07081 0.192257,-0.1684464 0.281995,-0.2657073 0,0 -0.321898,-0.1957632 -0.321898,-0.1957632 v 0 C 10.015676,8.0110668 9.976275,8.0611407 9.9287958,8.1028275 9.7904289,8.2243149 9.7872921,8.2085178 9.6232959,8.2647435 9.5727006,8.2620345 9.5215887,8.2643205 9.47151,8.2566189 9.4161687,8.2481076 9.3181077,8.1611676 9.3084402,8.2163187 9.2976219,8.2780335 9.5125644,8.2969398 9.4588017,8.329116 9.4018356,8.3632092 9.3410805,8.26707 9.286296,8.2295715 9.1331541,8.1247503 9.110061,8.0838717 8.9850876,7.9477038 8.9469039,7.8905037 8.9050185,7.8356082 8.8705365,7.7761032 8.75448,7.5758244 8.6839779,7.3382661 8.6264643,7.1149929 8.6141025,7.067004 8.6036508,7.0185429 8.5922439,6.9703179 8.5754955,6.8818773 8.5593381,6.7934733 8.5445955,6.7046823 8.5423185,6.6909615 8.5498731,6.6706914 8.5379772,6.6634848 8.1372564,6.4207251 8.2013724,6.3189273 8.1177135,6.4710054 c -0.015009,0.084091 0.00522,0.1708698 0.00157,0.255639 0.00577,0.1527714 0.01482,0.3055476 0.045494,0.4557684 0.015519,0.081576 0.019572,0.1115478 0.041898,0.1926921 0.039317,0.1429029 0.096681,0.2799849 0.158436,0.4144275 0.017686,0.036159 0.034491,0.072764 0.053059,0.1084779 0.070567,0.1357257 0.1575054,0.263127 0.2159058,0.4050144 0.080033,0.1541052 0.00593,0.021507 0.420678,0.2125752 0.00454,0.00209 -0.00841,-0.0055 -0.012095,-0.00887 -0.014203,-0.012985 -0.00879,-0.01196 -0.022108,-0.024869 -0.00327,-0.00317 -0.00714,-0.00566 -0.01071,-0.00848 -0.021626,-0.028601 -0.032118,-0.061865 -0.03895,-0.09684 C 8.9554101,8.3114397 8.9578311,8.2434759 8.9417754,8.1782643 8.9166018,8.064699 8.8752933,7.9566252 8.8289772,7.8500703 8.7741606,7.7150334 8.7192378,7.5800334 8.6753427,7.4409081 8.6302236,7.2886284 8.5842009,7.1363985 8.5472259,6.9819117 8.5201413,6.8459886 8.4936186,6.709113 8.4982536,6.5697108 c 1.62e-5,-0.126573 0.00155,-0.2531676 0.00768,-0.3796122 0.00914,-0.1520415 0.029483,-0.3025683 0.062073,-0.4514769 0.042399,-0.2162799 0.093489,-0.4307712 0.1374801,-0.6467334 0.018043,-0.09307 0.037557,-0.1859259 0.054184,-0.2792634 0.00348,-0.019529 0.025764,-0.047021 0.00974,-0.058707 C 8.4075237,4.490061 8.4927918,4.443645 8.3437695,4.5426243 8.2668456,4.6127073 8.196921,4.692156 8.1410736,4.7800434 c -0.02411,0.046564 -0.035216,0.06297 -0.050784,0.1138737 -0.030527,0.099819 -0.037209,0.2058216 -0.046801,0.3090012 -0.0076,0.2019888 -0.00335,0.404013 0.0022,0.6060285 0.00693,0.1952142 0.017927,0.390471 0.051854,0.5831898 0.015759,0.087609 0.029421,0.1764366 0.050032,0.2630772 0.021597,0.090786 0.051775,0.1794855 0.077581,0.2690814 0.065367,0.2005497 0.1349808,0.3994707 0.2079996,0.5973615 0.069055,0.1901613 0.1325583,0.3821085 0.1871409,0.5769615 0.023367,0.078922 0.047996,0.1574208 0.071735,0.2362284 0.013761,0.045682 0.025543,0.091963 0.040086,0.1374024 0.00673,0.021012 0.014849,0.041551 0.022274,0.062326 0.026234,0.065813 0.053576,0.1306323 0.090351,0.1914792 0.043279,0.071607 0.095971,0.1373085 0.15186,0.199338 0.023881,0.024057 0.046847,0.049057 0.071643,0.072171 0.1685175,0.1570851 0.363561,0.282567 0.5522781,0.413202 0.039208,0.027847 0.078715,0.055276 0.1176225,0.083542 0.0295,0.021431 0.058057,0.044141 0.087582,0.065537 0.014222,0.010307 0.026351,0.026391 0.043629,0.029549 0.011492,0.0021 0.027496,-0.0048 0.031252,-0.015863 0.010892,-0.032083 -0.2050425,0.08422 -0.098118,-0.026539 C 9.7030187,9.5134942 9.603711,9.4794582 9.5052651,9.4430256 9.4866871,9.4361456 9.3590178,9.3869766 9.3344607,9.3781596 c -0.018517,-0.00665 -0.037338,-0.012419 -0.056008,-0.018628 0.1110951,0.090338 0.2210079,0.1821501 0.333285,0.2710149 0.0047,0.00372 0.011319,0.00399 0.016913,0.00616 0.01115,0.00432 0.022208,0.00888 0.033314,0.013314 0.041681,0.016645 0.083203,0.033694 0.1251534,0.049655 0.1303206,0.045614 0.2648409,0.077369 0.3991869,0.1086918 0.03182,0.00715 0.155718,0.035817 0.191563,0.040725 0.01842,0.00252 0.03866,0.00933 0.05574,0.00198 0.01924,-0.00829 0.06035,-0.031855 0.04397,-0.044915 C 10.266957,9.6382539 10.21825,9.6227223 10.060922,9.5661807 9.9865392,9.536949 9.913206,9.5046507 9.84426,9.4639779 10.509667,9.849879 10.106336,9.617847 9.956736,9.5203683 9.7893402,9.41679 9.8552931,9.4570992 9.5059086,9.2565123 9.480045,9.2416638 9.4401918,9.2218383 9.4091559,9.2342487 c -0.00961,0.00384 -0.016589,0.012387 -0.024883,0.018581 -0.00429,0.00818 -0.010489,0.015618 -0.012871,0.024544 -0.00606,0.022714 0.018306,0.064936 0.027402,0.085446 0.019752,0.03149 0.043984,0.060575 0.071689,0.085366 0.1433004,0.1256763 0.322326,0.20433 0.4941504,0.2852547 0.070157,0.033519 0.1381747,0.071309 0.2072707,0.1069296 0.01193,0.0068 0.02386,0.013614 0.03579,0.020414 0.01081,0.00616 0.04321,0.024711 0.03245,0.018471 -0.114207,-0.06618 -0.4572211,-0.2640405 -0.3427642,-0.1982934 0.1580862,0.090808 0.3128242,0.187986 0.4751832,0.2711532 0.05248,0.027583 0.10583,0.05303 0.159933,0.077218 0.03592,0.02018 0.07298,0.03908 0.111566,0.05349 0.0454,0.01221 0.09093,0.02361 0.135134,0.03991 0.06747,0.02141 0.135706,0.0404 0.201786,0.06605 0.09711,0.03426 0.196924,0.05953 0.29668,0.08482 0.128166,0.03408 0.256121,0.07355 0.388635,0.08652 0.08566,0.0092 0.170909,0.02213 0.256734,0.02988 0.05451,0.0019 0.109031,0.002 0.163567,0.0015 0.05647,-2.4e-4 0.112939,-6e-4 0.169413,-2.1e-4 0.05796,9e-5 0.115916,5.16e-4 0.17387,-2.7e-4 0.07656,-9.72e-4 0.153154,-0.0026 0.229602,-0.0069 0.05827,-0.0052 0.115904,-0.01418 0.168069,-0.04248 0.04337,-0.02431 0.08355,-0.05343 0.122794,-0.08391 0.04849,-0.03906 0.09215,-0.08339 0.13635,-0.127159 0.07717,-0.07908 0.15137,-0.1610921 0.217386,-0.2498489 0.08241,-0.1049214 0.15923,-0.2140074 0.243481,-0.3174747 0.07896,-0.092181 0.159619,-0.1829052 0.243097,-0.2710257 0.1045,-0.1116543 0.213343,-0.2185839 0.331741,-0.3156894 0.108186,-0.092531 0.216384,-0.1881357 0.342619,-0.2555847 0.111161,-0.055185 0.22755,-0.098492 0.344294,-0.1403097 0.128177,-0.044031 0.257314,-0.086176 0.381545,-0.1406907 0.135726,-0.063467 0.26387,-0.1408701 0.357522,-0.2609016 0.01525,-0.021053 0.03159,-0.041356 0.04575,-0.063158 0.06163,-0.09491 0.10351,-0.2018949 0.137924,-0.3091017 0.03417,-0.1139451 0.06964,-0.2271831 0.112546,-0.3382056 0.05608,-0.1552401 0.100911,-0.3146511 0.128666,-0.4775229 0.02727,-0.2186874 0.04172,-0.4393359 9.51e-4,-0.6576057 -0.0082,-0.032707 -0.01438,-0.066 -0.02465,-0.098122 -0.02032,-0.063518 -0.04988,-0.122522 -0.08172,-0.1808573 C 15.814136,5.9560848 15.752501,5.8620753 15.685529,5.7722403 15.66078,5.7419577 15.592499,5.6524191 15.555368,5.6282865 15.416019,5.5377207 15.271334,5.4556146 15.127877,5.371707 c -0.02287,-0.013375 -0.08579,-0.043679 -0.116304,-0.04486 -0.01616,-6.27e-4 -0.03149,0.0074 -0.04724,0.011096 -0.0076,0.011059 -0.01933,0.020223 -0.02291,0.033176 -0.0026,0.00957 0.01417,0.070736 0.01522,0.074495 0.01677,0.059809 0.03727,0.1185594 0.05511,0.1780428 0.0594,0.1789974 0.11693,0.3592017 0.160445,0.5427741 0.03954,0.1878237 0.07559,0.3778617 0.07228,0.5707179 -0.0081,0.1830669 -0.02077,0.3658455 -0.04465,0.5476236 -0.02373,0.1711452 -0.05085,0.3419025 -0.07906,0.5123457 -0.0215,0.1097514 -0.04522,0.2190837 -0.0741,0.3271602 -0.03928,0.1294728 -0.08058,0.2586963 -0.129828,0.3847323 -0.07243,0.1758189 -0.154854,0.3494406 -0.277005,0.4968972 -0.07648,0.083344 -0.09025,0.103725 -0.179673,0.1780512 -0.199503,0.1658178 -0.429795,0.2889489 -0.663615,0.3986394 -0.206707,0.088893 -0.251774,0.1123149 -0.464056,0.1874349 -0.06904,0.024431 -0.139142,0.045761 -0.208855,0.068201 -0.04231,0.013618 -0.150822,0.00232 -0.127202,0.039973 0.225809,0.3599337 0.22404,0.3481447 0.337129,0.2403147 0.09904,-0.06382 0.201224,-0.1224615 0.300306,-0.1862346 0.179856,-0.115764 0.354855,-0.2396349 0.514949,-0.3819465 0.116996,-0.1052907 0.218885,-0.1914708 0.324814,-0.3072594 0.03341,-0.036519 0.06248,-0.076792 0.09303,-0.1157343 0.02026,-0.025824 0.03953,-0.052411 0.05939,-0.078541 0.0093,-0.012222 0.04042,-0.027395 0.02807,-0.036516 -0.120494,-0.08899 -0.257957,-0.1523496 -0.386935,-0.2285244 -0.01733,0.068533 -0.04933,0.1309683 -0.09325,0.1866369 -0.04313,0.052264 -0.06115,0.076905 -0.112224,0.1256799 -0.138824,0.1325781 -0.304307,0.2319333 -0.471349,0.3243933 -0.05559,0.030058 -0.111029,0.060398 -0.166772,0.090173 -0.112788,0.060247 -0.226185,0.117225 -0.336549,0.18192 -0.05781,0.033887 -0.177845,0.1065681 -0.231176,0.1584984 -0.02082,0.020277 -0.03473,0.046612 -0.0521,0.069918 0.129799,0.081299 0.254473,0.1714207 0.389397,0.2438977 0.01462,0.0079 0.03292,-0.0045 0.04907,-0.0084 0.05588,-0.01326 0.110461,-0.03148 0.165942,-0.0463 0.02729,-0.0073 0.09982,0.0011 0.08211,-0.02093 -0.0872,-0.1082673 -0.21141,-0.1805757 -0.317114,-0.270864 -0.02618,0.019421 -0.09902,0.031618 -0.12389,0.036873 -0.118746,0.025094 -0.23915,0.042063 -0.360226,0.050647 -0.0806,0.00484 -0.147216,0.011428 -0.227156,0.00736 -0.02362,-0.0012 -0.08959,-0.022507 -0.07044,-0.00861 0.107197,0.077827 0.230414,0.131224 0.340606,0.204752 0.0073,0.0049 -0.017,0.0059 -0.02574,0.0053 -0.004,-2.7e-4 -0.0061,-0.0051 -0.0092,-0.0077 0.03601,-0.09447 0.15239,-0.1653536 0.228977,-0.2228111 0.104373,-0.066904 0.214575,-0.1288458 0.306546,-0.212901 0.02093,-0.019124 0.04198,-0.038399 0.0599,-0.060365 0.01607,-0.019703 0.02769,-0.042655 0.04154,-0.063982 0.0077,-0.022305 0.01906,-0.043658 0.02296,-0.066914 0.02136,-0.1273407 -0.0978,-0.2826078 -0.164521,-0.3797097 C 13.122202,9.012183 13.106819,8.9907453 13.030394,8.9041149 12.899432,8.7556656 12.758327,8.6163075 12.615188,8.4797205 12.464619,8.3337312 12.309943,8.1901569 12.177415,8.0271621 c 0,0 -0.409661,-0.1722162 -0.409661,-0.1722162 z" />
  <path
     style="fill:#f3d8a6;fill-opacity:1;stroke-width:0.03"
     id="path522"
     d="M 8.8227291,4.8933678 C 8.8311882,4.7667132 8.8938708,4.6555626 8.957145,4.5488067 9.0224832,4.4416161 9.1062237,4.3492893 9.1981656,4.2647181 9.255177,4.2154785 9.3125247,4.1666394 9.368631,4.1163615 9.407085,4.0851105 9.436404,4.0450165 9.4708485,4.0098243 c 0.039968,-0.040578 0.078146,-0.082636 0.1203201,-0.120975 0.046568,-0.03563 0.092206,-0.072586 0.1401627,-0.106386 0.056246,-0.040814 0.117072,-0.074077 0.177066,-0.1088637 0.077997,-0.046405 0.1630497,-0.078777 0.2467297,-0.1131645 0.121074,-0.051057 0.240869,-0.105126 0.360813,-0.1587975 0.09494,-0.042073 0.189656,-0.084643 0.283758,-0.1285686 0.07905,-0.039455 0.157828,-0.079203 0.239459,-0.1130124 0.074,-0.033408 0.15204,-0.055348 0.229666,-0.078303 0.07652,-0.02123 0.155391,-0.030477 0.233662,-0.042379 0.07171,-0.011193 0.144228,-0.014146 0.216651,-0.016329 0.06324,0.00213 0.125898,-0.00331 0.188829,-0.00832 0.07219,-0.00738 0.14424,-0.014735 0.216787,-0.018467 0.09257,-0.00415 0.185255,-0.004 0.277896,-0.00332 0.08064,2.01e-4 0.161276,1.26e-4 0.241914,1.11e-4 0.07038,2.61e-4 0.140738,0.00141 0.211113,8.001e-4 0.08056,-0.00154 0.161486,0.00105 0.24141,0.011598 0.06749,0.00659 0.132157,0.026655 0.193582,0.05467 -0.01989,-0.01232 0.07908,0.043547 0.05952,0.03228 -0.116608,-0.067182 -0.466344,-0.2688721 -0.350114,-0.2010383 0.142547,0.083193 0.304848,0.1873631 0.464145,0.2628923 0.06935,0.030825 0.13725,0.064694 0.207122,0.094359 0.07235,0.025766 0.14083,0.060757 0.211526,0.090284 0.05125,0.019777 0.100166,0.044659 0.153007,0.060317 0.05979,0.012658 0.117669,0.032482 0.176091,0.050091 0.05335,0.01049 0.104387,0.02933 0.157037,0.042574 0.02157,0.00906 0.04375,0.017531 0.06484,0.027627 0.0061,0.0029 0.02321,0.013588 0.01737,0.010252 -0.358589,-0.2049363 -0.487204,-0.2819658 -0.351229,-0.2006631 0.02798,0.014749 0.05289,0.034732 0.07316,0.058957 0.02551,0.031752 0.04865,0.065204 0.06982,0.099975 0.02845,0.052867 0.0562,0.1061166 0.08623,0.1581231 0.01914,0.037136 0.0432,0.070375 0.06923,0.1027743 0.02937,0.039139 0.06885,0.06734 0.109682,0.09327 0.135716,0.077809 0.271433,0.155619 0.407149,0.2334285 0.01022,0.00604 0.04095,0.024028 0.03065,0.018122 -0.114646,-0.065749 -0.228747,-0.1324488 -0.343701,-0.1976565 -0.01024,-0.00581 0.01978,0.012777 0.02949,0.019422 0.02211,0.01512 0.02912,0.020876 0.04997,0.036782 0.02029,0.017376 0.04287,0.034123 0.03646,-0.032427 -9e-4,-0.00933 -0.02938,-0.023038 -0.02117,-0.018507 0.270709,0.1494999 0.45461,0.2690397 0.246724,0.1360014 C 14.760065,3.915132 14.571573,3.8005167 14.38326,3.6857493 c -0.06034,-0.0433 -0.131844,-0.075079 -0.184951,-0.1280247 -0.01228,-0.015949 -0.03041,-0.045415 -10e-4,-0.053629 0.03602,-0.00893 0.07516,-0.00972 0.108959,0.00803 0.0089,0.00469 0.01676,0.011221 0.02514,0.016832 -0.694883,-0.3613467 -0.390718,-0.2528649 -0.285735,-0.1508997 0.03444,0.033452 0.05847,0.074567 0.0834,0.1150671 0.03776,0.064886 0.07372,0.1308636 0.114855,0.1937079 0.114319,0.1503363 0.294829,0.2709366 0.483948,0.2921793 0.0066,0.00215 0.01307,0.0046 0.01974,0.00646 0.0198,0.00553 0.02832,0.00541 0.04789,0.012931 0.02593,0.00996 0.04952,0.025243 0.07275,0.040166 -0.118299,-0.068189 -0.23643,-0.1366722 -0.354898,-0.2045685 -0.0084,-0.00482 0.01662,0.00998 0.02471,0.015328 0.03168,0.020963 0.05933,0.045855 0.08527,0.07344 0.05356,0.063702 0.105475,0.1288359 0.153918,0.1965288 0.0319,0.042576 0.06465,0.083917 0.09364,0.1285776 0.03744,0.058334 0.07108,0.118995 0.106229,0.1787151 0.04902,0.082211 0.09337,0.1672104 0.131197,0.2551311 0.03703,0.09332 0.06035,0.1911258 0.08579,0.2880144 0.02937,0.132273 0.05969,0.2644077 0.08482,0.3975696 0.0227,0.1237311 0.03063,0.2492781 0.03287,0.3748359 0.0041,0.090225 -0.0025,0.1794309 -0.01893,0.2680902 -0.02016,0.1117863 -0.0743,0.2102037 -0.132567,0.3059577 -0.05239,0.084613 -0.115267,0.1635192 -0.188628,0.2310291 -0.01694,0.015585 -0.03507,0.029816 -0.0526,0.044725 -0.04688,0.039779 -0.09763,0.074166 -0.14926,0.1073061 -0.03361,0.021571 -0.05054,0.036559 -0.08962,0.043669 0.12778,0.067391 0.247663,0.1525635 0.383338,0.2021742 0.01825,0.00667 0.01027,-0.03757 0.01754,-0.055593 0.01355,-0.033624 0.02983,-0.066082 0.04479,-0.0991 0.06514,-0.1437315 0.08754,-0.1871226 0.1471,-0.3456087 0.03093,-0.082314 0.05844,-0.1658727 0.08766,-0.2488089 0.02737,-0.094014 0.06254,-0.1860993 0.0821,-0.2820426 0.06606,-0.3241293 0.0628,-0.6689769 -0.05114,-0.9828651 C 15.288661,4.6475292 15.217983,4.5975033 15.033544,4.3669662 14.949514,4.2975798 14.873196,4.2176193 14.781453,4.158807 14.602367,4.0440024 14.417004,3.9376131 14.224058,3.8480373 c -0.09214,-0.042774 -0.193016,-0.06571 -0.292936,-0.083998 -0.175717,-0.032161 -0.374106,-0.032744 -0.547406,0.017639 -0.07986,0.023219 -0.151568,0.068536 -0.227352,0.1028031 -0.06223,0.053613 -0.132813,0.098841 -0.186697,0.1608393 -0.237719,0.273516 -0.320172,0.7179516 -0.325567,1.0689951 -0.0015,0.096857 0.0095,0.1935054 0.01419,0.2902584 0.01607,0.091342 0.02658,0.1838367 0.0482,0.2740254 0.05445,0.2271366 0.155395,0.472947 0.291898,0.6640233 0.104795,0.1466937 0.154762,0.1775841 0.286384,0.2927436 0.287879,0.1917603 0.09178,0.067021 0.604308,0.3477525 0,0 -0.310519,-0.2471187 -0.310519,-0.2471187 v 0 c 0.255572,0.1650969 0.275202,0.1753869 0.05334,0.03969 C 13.492624,6.6627027 13.443054,6.6355854 13.331019,6.4893564 13.186379,6.3005706 13.075764,6.0572187 13.014643,5.8284786 12.990763,5.7391125 12.978467,5.647047 12.96038,5.5563312 c -0.0063,-0.095853 -0.01941,-0.191502 -0.01882,-0.2875581 0.0021,-0.3494184 0.09082,-0.7666713 0.331185,-1.0344447 0.05267,-0.058671 0.120319,-0.1019184 0.180479,-0.1528776 0.07228,-0.032749 0.140658,-0.076007 0.216827,-0.098247 0.167988,-0.049051 0.354975,-0.048333 0.525283,-0.015436 0.09695,0.018728 0.187845,0.061566 0.283722,0.085197 0.0048,0.00118 -0.0014,-0.017521 0.0027,-0.014613 0.08826,0.064069 0.171129,0.1352523 0.256693,0.2028786 0.187496,0.2247198 0.258707,0.2719689 0.364163,0.5513229 0.11624,0.30792 0.120171,0.641895 0.04437,0.9592347 -0.02238,0.093676 -0.06094,0.18273 -0.0914,0.274095 -0.0344,0.079196 -0.06611,0.1596123 -0.103188,0.2375886 -0.05828,0.1225653 -0.110841,0.2107158 -0.181804,0.3226038 -0.0198,0.03121 -0.04118,0.061384 -0.06139,0.092324 -0.01324,0.020258 -0.05676,0.044879 -0.03895,0.061264 0.111392,0.1024869 0.252263,0.1673631 0.378395,0.2510445 0.03063,-0.017365 0.05743,-0.03791 0.08552,-0.059136 0.04932,-0.037256 0.09877,-0.074355 0.145825,-0.114492 0.0971,-0.082811 0.189103,-0.1731024 0.253115,-0.2847813 0.05938,-0.09981 0.116289,-0.2028207 0.141912,-0.3172107 0.02182,-0.091635 0.03153,-0.1838286 0.02258,-0.2780448 -0.0064,-0.1285164 -0.01357,-0.2573565 -0.03705,-0.3841272 -0.02462,-0.1325217 -0.05239,-0.2644383 -0.0772,-0.3969231 -0.02408,-0.098051 -0.04586,-0.1970139 -0.08053,-0.2920422 -0.03426,-0.089855 -0.08075,-0.1747569 -0.126415,-0.2592372 -0.03267,-0.05989 -0.06616,-0.1193928 -0.100666,-0.1782405 -0.0136,-0.022733 -0.0266,-0.046969 -0.04148,-0.068848 -0.01547,-0.022745 -0.03677,-0.040761 -0.05286,-0.063018 -0.04846,-0.068255 -0.104102,-0.1309767 -0.152304,-0.1994217 -0.0097,-0.013243 -0.02579,-0.0362 -0.03771,-0.048196 C 14.865279,3.9201318 14.6134,3.87444 14.524143,3.7603284 c -0.04809,-0.023847 -0.09886,-0.039682 -0.151121,-0.051771 -0.133829,-0.05043 -0.356953,-0.2949486 0.332186,0.1977087 0.0061,0.00357 -0.01265,-0.00634 -0.01853,-0.010245 -0.01768,-0.011722 -0.02191,-0.017701 -0.037,-0.033027 -0.04672,-0.06124 -0.08566,-0.1277394 -0.124656,-0.1940595 -0.02361,-0.041756 -0.04559,-0.086227 -0.07514,-0.1242672 C 14.348605,3.4142877 13.986671,3.307227 13.9866,3.2541132 c -0.01056,-0.00344 -0.02085,-0.00784 -0.03167,-0.010318 -0.04543,-0.010412 -0.09376,-0.0023 -0.134104,0.02011 -0.0064,0.00572 -0.01372,0.010619 -0.01933,0.017161 -0.02365,0.027606 -0.0244,0.067529 -0.01189,0.0997 0.02527,0.045755 0.05036,0.05704 0.09367,0.085061 0.08739,0.056538 0.0066,0.00582 0.108799,0.069027 0.190225,0.1120929 0.380658,0.2244768 0.562333,0.3501501 0.189824,0.1330254 0.10204,0.074165 0.485347,0.2930946 0.04013,0.022919 0.04647,0.017885 0.07407,-0.027817 0.007,-0.011582 -0.02038,-0.031907 -0.02234,-0.033818 -0.149873,-0.1225305 -0.309928,-0.1959348 -0.486917,-0.2990076 -0.104905,-0.061093 -0.521553,-0.2616 0.314925,0.1829178 -0.0399,-0.021311 -0.07776,-0.044224 -0.110066,-0.076245 -0.02659,-0.032338 -0.05698,-0.061437 -0.07595,-0.099392 -0.03244,-0.049364 -0.06119,-0.1015284 -0.08504,-0.1555488 -0.01877,-0.036492 -0.03964,-0.071864 -0.06462,-0.1044699 -0.01943,-0.028149 -0.03882,-0.054982 -0.06706,-0.075167 -0.162433,-0.094945 -0.315871,-0.2162232 -0.498635,-0.2671833 -0.05203,-0.015287 -0.104281,-0.029625 -0.156638,-0.043712 -0.05774,-0.017289 -0.116163,-0.032247 -0.173574,-0.050566 -0.05046,-0.020295 -0.09992,-0.042881 -0.150625,-0.062539 -0.06895,-0.030899 -0.139115,-0.058831 -0.20867,-0.088321 -0.06976,-0.031616 -0.139016,-0.064441 -0.207895,-0.09793 -0.01001,-0.00533 -0.02007,-0.010578 -0.03003,-0.016002 -0.0095,-0.00515 -0.03753,-0.021106 -0.02821,-0.015709 0.116344,0.067429 0.466861,0.2671058 0.34931,0.2018048 -0.153064,-0.085029 -0.302854,-0.1907636 -0.46636,-0.2612085 -0.06464,-0.02356 -0.131225,-0.040048 -0.200215,-0.04384 -0.08164,-0.0056 -0.163404,-0.00959 -0.245265,-0.00899 -0.06969,-6.024e-4 -0.139371,4.602e-4 -0.209064,6.627e-4 -0.08064,-1.08e-4 -0.161273,-4.047e-4 -0.241907,1.26e-4 -0.09276,0.0014 -0.185549,0.00234 -0.278273,0.00553 -0.07406,0.00358 -0.147785,0.010599 -0.221685,0.016451 -0.06208,0.0047 -0.124148,0.00638 -0.186395,0.00775 -0.07304,0.00287 -0.145785,0.00996 -0.217977,0.021564 -0.07961,0.011869 -0.15954,0.023756 -0.236648,0.047655 -0.07889,0.023324 -0.157506,0.048242 -0.232403,0.082666 -0.08083,0.035881 -0.159315,0.076559 -0.238725,0.1154472 -0.09246,0.04447 -0.185675,0.087328 -0.278232,0.1315878 -0.118485,0.055737 -0.2381098,0.1092207 -0.3603613,0.15624 -0.087903,0.033082 -0.1773243,0.063517 -0.2575755,0.1133811 -0.061992,0.034494 -0.1231503,0.070443 -0.1809738,0.1116717 -0.049331,0.03542 -0.098896,0.070946 -0.1453368,0.1100676 -0.04157,0.039849 -0.079223,0.083396 -0.1214595,0.1225674 -0.034013,0.034646 -0.064786,0.07232 -0.1006158,0.1052142 C 8.9388834,3.9358736 8.8840587,3.9862787 8.8306533,4.0381952 8.737749,4.1292155 8.657109,4.224113 8.5903044,4.3364738 8.525613,4.4458682 8.4655035,4.5594314 8.4287457,4.6816451 c 0,0 0.3939837,0.2117205 0.3939837,0.2117205 z" />
  <path
     style="fill:#f3d8a6;fill-opacity:1;stroke-width:0.03"
     id="path524"
     d="m 16.102438,16.090943 c -0.01597,-0.132348 -0.04206,-0.263108 -0.06253,-0.394771 -0.02922,-0.138201 0.0057,-0.268767 0.04673,-0.400015 0.0348,-0.08068 0.05744,-0.166421 0.09239,-0.246995 0.0038,-0.0087 0.02191,-0.02137 0.01323,-0.02525 -0.12425,-0.05547 -0.255628,-0.09336 -0.383441,-0.14004 0.002,0.05648 0.0062,0.112921 0.0061,0.169437 -5.73e-4,0.368519 -0.03313,0.742007 -0.07346,1.10823 -0.102451,0.06655 -0.502289,0.320258 0.361158,0.120732 0.06258,-0.01446 -0.02021,-0.126872 -0.02897,-0.190503 -0.03001,-0.218006 -0.05659,-0.435889 -0.09105,-0.65329 -0.0099,-0.04774 -0.01364,-0.09715 -0.02958,-0.143218 -0.05417,-0.156626 -0.470851,-0.166337 -0.504065,-0.158584 -0.08434,0.01969 -0.07203,0.157535 -0.106214,0.237103 -0.09605,0.22353 -0.187829,0.44887 -0.28278,0.672867 -0.113288,0.247443 -0.208637,0.503691 -0.332611,0.746295 -0.0071,0.01385 -0.06569,0.133775 -0.104654,0.153741 -0.0068,0.0035 -0.01249,-0.0089 -0.01873,-0.01335 0.124304,0.06514 0.248608,0.130282 0.372912,0.195423 0,0 -0.409762,-0.180691 -0.409762,-0.180691 v 0 c 0.134421,0.08131 0.268842,0.162611 0.403264,0.243915 0.01042,-0.0067 0.02321,-0.01078 0.03126,-0.02022 0.0334,-0.03918 0.07252,-0.142544 0.08615,-0.176361 0.102267,-0.253807 0.190944,-0.513059 0.302351,-0.763227 0.103878,-0.237231 0.183195,-0.429858 0.302575,-0.658745 0.03829,-0.0734 0.153295,-0.13737 0.124412,-0.214957 -0.04892,-0.131418 -0.211133,-0.184921 -0.31021,-0.284156 -0.0495,-0.04958 0.375973,0.242241 0.103898,0.182698 0.04059,0.216194 0.07213,0.430536 0.09012,0.64995 0.005,0.06106 -0.02793,0.136942 0.01201,0.183393 0.109384,0.127205 0.263791,0.208019 0.403906,0.300288 0.0095,0.0062 3.36e-4,-0.02265 5.04e-4,-0.03398 0.01815,-0.4267 0.04435,-0.853034 0.08605,-1.278142 -0.133674,-0.09144 -0.261617,-0.19187 -0.401021,-0.274305 -0.0093,-0.0055 -0.008,0.0201 -0.01156,0.03033 -0.0055,0.01594 -0.0102,0.03214 -0.01543,0.04816 -0.02225,0.06826 -0.04649,0.135798 -0.07231,0.202799 -0.04448,0.135423 -0.08751,0.272593 -0.05931,0.416572 0.02066,0.129831 0.05335,0.258511 0.05689,0.390426 0,0 0.40172,0.198433 0.40172,0.198433 z" />
  <path
     style="fill:#f3d8a6;stroke-width:0.03"
     id="path173"
     d="m 12.404032,15.139592 c -0.03826,-0.07819 -0.06484,-0.116731 0.04384,-0.141329 0.05075,-0.01149 0.102234,-0.01998 0.153916,-0.026 0.08964,-0.01045 0.179829,-0.0156 0.269744,-0.02341 0.895775,-0.03298 1.793264,-0.01043 2.688168,0.03641 -0.284019,-0.196809 0.493933,0.137737 0.389459,0.05827 -0.113507,-0.08634 -0.241997,-0.153264 -0.373095,-0.209413 -0.03981,-0.01705 -0.0865,-0.0073 -0.129793,-0.006 -0.0993,0.0031 -0.198186,0.01444 -0.297418,0.01918 -0.140212,0.0067 -0.280562,0.01008 -0.420843,0.01511 -0.720338,0.0255 -1.441031,0.01022 -2.161506,0.01059 0.144383,0.08882 0.274606,0.206468 0.43315,0.266469 0.08232,0.03115 0.17603,-0.0021 0.264049,-0.0026 0.147083,-8.88e-4 0.294169,-0.0014 0.441255,-0.0016 0.538016,-7.53e-4 1.075906,0.0032 1.613882,0.0091 -0.610017,-0.322831 0.687103,0.132021 0.545614,0.0176 -0.136346,-0.110262 -0.292872,-0.201971 -0.459872,-0.255437 -0.09821,-0.03144 -0.20613,0.0071 -0.309232,0.0092 -0.372212,0.0075 -0.596076,0.0068 -0.974155,0.0084 -0.216461,-5.82e-4 -0.65042,-4.89e-4 -0.881833,-0.0054 -0.09174,-0.002 -0.183788,-0.0011 -0.275113,-0.01013 -0.03361,-0.0033 -0.127431,-0.04273 -0.09777,-0.02658 0.487608,0.265413 0.309651,0.257093 0.686607,0.163321 0.07982,-0.01667 0.524834,-0.109373 0.608506,-0.127824 0.07841,-0.01729 0.15783,-0.03106 0.234623,-0.05449 0.03327,-0.01015 0.119469,-0.02227 0.09379,-0.04573 -0.361348,-0.330089 -0.353229,-0.285849 -0.704983,-0.284296 -0.113538,0.0089 -0.227254,0.01569 -0.340614,0.02659 -0.148917,0.01432 -0.495857,0.05565 -0.653789,0.08165 -0.05837,0.0096 -0.121687,0.0083 -0.173675,0.03652 -0.01886,0.01024 -0.02937,0.05321 -0.01054,0.06351 0.180419,0.0987 0.378529,0.160903 0.567793,0.241354 0.420767,-0.0017 0.843032,0.0098 1.263392,-0.01565 0.03091,-0.0019 0.116263,0.0066 0.09204,-0.01271 -0.144765,-0.115292 -0.315339,-0.193799 -0.473008,-0.290698 -0.540288,-0.03607 -1.079911,-0.08124 -1.619986,-0.120209 -0.156928,-0.01132 -0.81377,-0.06596 -1.009001,-0.04415 -0.09802,0.01095 -0.188507,0.0581 -0.282761,0.08715 -0.02824,0.07621 -0.08301,0.147367 -0.08473,0.228621 -0.0021,0.09922 0.0318,0.198519 0.07377,0.288456 0.143429,0.307376 0.350147,0.479028 0.640528,0.661951 0.794531,0.500508 0.762393,0.445674 1.538112,0.702335 0.657328,0.152138 1.329648,0.184503 1.993965,0.05555 0.273174,-0.05302 0.626195,-0.163397 0.868203,-0.318041 0.08798,-0.05622 0.155935,-0.138882 0.233903,-0.208323 0.02669,-0.0773 0.08029,-0.150121 0.08005,-0.231896 -5.58e-4,-0.195146 -0.165439,-0.353436 -0.315064,-0.44342 -0.224551,-0.135044 -0.45753,-0.259489 -0.702086,-0.353574 -0.254613,-0.09795 -0.620902,-0.08996 -0.884473,-0.100402 -0.362491,0.02207 -0.737483,0.06297 -1.057547,0.251561 -0.100566,0.05926 -0.237969,0.160041 -0.244675,0.297388 -0.0027,0.05513 0.03526,0.104614 0.05288,0.156921 0.25817,0.24641 0.597822,0.45128 0.963071,0.452454 0.133453,4.29e-4 0.287938,-0.02448 0.39096,-0.121626 0.04312,-0.04066 0.06016,-0.10212 0.09025,-0.15318 -0.0054,-0.06367 0.0038,-0.130275 -0.01612,-0.190998 -0.06858,-0.209557 -0.26982,-0.372367 -0.457046,-0.47013 -0.545895,-0.285049 -0.35095,-0.283037 -0.675635,-0.24642 -0.01978,0.02689 -0.05574,0.04749 -0.05935,0.08068 -0.0106,0.0974 0.09327,0.18477 0.15909,0.226417 0.138562,0.08768 0.468781,0.304588 0.697848,0.364953 0.04308,0.01135 0.08835,0.01161 0.132529,0.01741 0.02743,-0.01036 0.06845,-0.0052 0.08228,-0.03109 0.0556,-0.103901 -0.102046,-0.202076 -0.152713,-0.231282 -0.202305,-0.116613 -0.406731,-0.23263 -0.623689,-0.318973 -0.221686,-0.08823 -0.523442,-0.07363 -0.751662,-0.07952 -0.127788,0.01944 -0.257686,0.02812 -0.383366,0.05832 -0.16308,0.0392 -0.605876,0.17699 -0.614963,0.414991 -0.0023,0.05997 0.02251,0.128874 0.06964,0.166014 0.175263,0.138093 0.383552,0.228113 0.575328,0.34217 0.341505,0.08911 0.695143,0.09633 1.038616,0.0089 0.162194,-0.04129 0.388823,-0.125614 0.506217,-0.26142 0.04557,-0.05271 0.05834,-0.126559 0.08751,-0.189839 -0.01607,-0.06803 -0.01263,-0.143914 -0.0482,-0.20409 -0.04388,-0.07425 -0.110276,-0.135738 -0.181449,-0.184449 -0.192004,-0.131409 -0.391531,-0.254365 -0.602637,-0.352183 -0.144752,-0.06707 -0.499019,-0.103834 -0.653923,-0.09483 -0.105219,0.0061 -0.207379,0.03779 -0.311069,0.05669 -0.08464,0.0424 -0.178147,0.07047 -0.253932,0.127207 -0.22992,0.172133 -0.283185,0.424728 -0.161628,0.681993 0.116669,0.246922 0.262824,0.336906 0.463867,0.515273 0.44522,0.278518 0.907765,0.542767 1.417025,0.683605 0.159012,0.04397 0.395965,0.08948 0.567466,0.08902 0.06051,-1.5e-4 0.120006,-0.01559 0.180009,-0.02339 0.03493,-0.02414 0.07964,-0.03822 0.1048,-0.07243 0.107086,-0.145636 -0.04586,-0.333339 -0.152414,-0.416375 -0.08123,-0.0633 -0.172127,-0.1141 -0.264415,-0.159801 -0.2392,-0.118454 -0.485803,-0.221332 -0.728704,-0.331998 -0.672611,-0.178475 -0.154043,-0.04558 -0.794084,-0.197859 -0.09824,-0.02337 -0.254141,-0.165127 -0.294163,-0.07241 -0.03949,0.09147 0.173305,0.106088 0.270835,0.126456 0.032,0.0067 0.05231,-0.04076 0.08277,-0.05261 0.08573,-0.03336 0.175653,-0.05474 0.263481,-0.08211 0.807966,-0.13352 1.636635,-0.167344 2.451372,-0.07907 -0.191827,-0.162997 0.336995,0.121489 0.259113,0.07631 -0.127569,-0.074 -0.248812,-0.162461 -0.386451,-0.215434 -0.04079,-0.0157 -0.08666,0.01153 -0.13007,0.01664 -0.09175,0.01081 -0.183366,0.02312 -0.275402,0.03115 -0.134211,0.0117 -0.268791,0.01869 -0.403187,0.02803 -0.490488,0.03296 -0.981878,0.04677 -1.473073,0.06369 -0.153389,0.0053 -0.537206,0.01548 -0.708167,0.03757 -0.07099,0.0092 -0.140062,0.02959 -0.210093,0.04439 -0.03509,0.0319 -0.09636,0.04912 -0.105277,0.0957 -0.02735,0.142809 0.151946,0.347781 0.218613,0.426844 0.195731,0.232125 0.428183,0.434073 0.656186,0.633201 0.0414,0.02839 0.07705,0.06793 0.124191,0.08516 0.128121,0.04683 0.263384,0.138443 0.395583,0.104808 0.06635,-0.01688 -0.06274,-0.1218 -0.09789,-0.180549 -0.08186,-0.136842 -0.189448,-0.277069 -0.259935,-0.421179 -0.02824,-0.05773 -0.04509,-0.120358 -0.06763,-0.180538 0.0059,-0.04495 -0.0046,-0.09543 0.01774,-0.134849 0.04789,-0.08432 0.19296,-0.100512 0.268474,-0.10383 0.130278,-0.0057 0.275135,0.01721 0.396167,0.06653 0.05895,0.02402 0.111084,0.06221 0.166626,0.09332 -0.08604,-0.02889 -0.172199,-0.115926 -0.258119,-0.08668 -0.05279,0.01797 0.03512,0.109508 0.02842,0.164872 -0.0082,0.06788 -0.03775,0.132828 -0.07163,0.192222 -0.09035,0.158396 -0.223165,0.279094 -0.379857,0.370746 -0.09822,0.05745 -0.20728,0.09392 -0.31092,0.140881 -0.125491,0.02726 -0.248786,0.06808 -0.376471,0.08177 -0.419448,0.04497 -0.852818,-0.03652 -1.237147,-0.205495 -0.438083,-0.192606 -0.452047,-0.176611 -0.258808,-0.192413 -0.05569,-0.06475 -0.122215,-0.121577 -0.167074,-0.194254 -0.23923,-0.387578 0.375612,-0.292991 0.537504,-0.25753 0.126737,0.02776 0.248568,0.07447 0.372852,0.111705 0.186755,0.08155 0.529424,0.214727 0.694072,0.348897 0.0256,0.02086 -0.105571,-0.03623 -0.099,-0.0039 0.01576,0.07759 0.107176,0.120528 0.137546,0.193647 0.07241,0.174337 0.0038,0.201903 -0.0886,0.334183 -0.06445,0.04224 -0.122597,0.09619 -0.193348,0.126718 -0.417618,0.180208 -0.95032,0.07601 -1.349266,-0.101492 -0.1111,-0.04943 -0.213135,-0.117129 -0.319703,-0.175695 0.02851,7.35e-4 0.09794,0.02787 0.08552,0.0022 -0.03971,-0.08205 -0.128758,-0.129968 -0.182858,-0.203332 -0.088,-0.119329 -0.218011,-0.354097 -0.08759,-0.498467 0.03768,-0.04171 0.09765,-0.05568 0.146474,-0.08351 0.08146,-0.0079 0.162625,-0.02707 0.244393,-0.02358 0.371157,0.01585 0.73682,0.16473 1.066908,0.322214 0.436775,0.208383 0.479166,0.215166 0.323011,0.179611 0.221424,0.164425 0.727372,0.492644 0.519773,0.840421 -0.02988,0.05006 -0.07976,0.08506 -0.119646,0.12759 -0.06528,0.03469 -0.127603,0.07562 -0.195832,0.104067 -0.362772,0.151259 -0.772098,0.190002 -1.160862,0.177912 -0.04352,-0.0081 -0.08811,-0.01169 -0.130559,-0.02422 -0.02768,-0.0082 -0.05205,-0.02492 -0.07808,-0.03738 0.113949,0.06236 0.227898,0.124719 0.341847,0.187079 0,0 -0.4136,-0.167831 -0.4136,-0.167831 v 0 c 0.278123,0.168466 0.355958,0.272504 0.627248,0.295027 0.382541,-0.0024 0.811992,-0.04977 1.166499,-0.20007 0.07275,-0.03085 0.139099,-0.07503 0.208648,-0.11254 0.04392,-0.04759 0.09853,-0.08719 0.131773,-0.142769 0.0296,-0.04949 0.04669,-0.107512 0.05228,-0.164905 0.0059,-0.06063 0.0032,-0.124902 -0.01848,-0.181818 -0.02508,-0.06573 -0.07282,-0.121026 -0.117744,-0.175171 -0.154937,-0.186736 -0.238644,-0.229859 -0.438137,-0.380344 -0.451228,-0.266962 -0.893141,-0.551627 -1.389423,-0.730008 -0.214989,-0.07727 -0.483055,-0.153502 -0.716099,-0.158498 -0.08845,-0.0019 -0.175561,0.02203 -0.263341,0.03305 -0.05467,0.03535 -0.121939,0.05636 -0.164017,0.106039 -0.08227,0.09713 -0.06852,0.236128 -0.02898,0.344114 0.147482,0.40276 0.571098,0.608776 0.904223,0.817269 0.107128,0.05624 0.209957,0.121571 0.321384,0.168726 0.413781,0.175109 0.960281,0.271912 1.387636,0.08276 0.07563,-0.03347 0.137618,-0.09176 0.206427,-0.137646 0.04059,-0.05942 0.102487,-0.108925 0.121754,-0.178252 0.03994,-0.143723 -0.05297,-0.325839 -0.157744,-0.412723 -0.166552,-0.138117 -0.657965,-0.456235 -0.915628,-0.581771 -0.121693,-0.05929 -0.24923,-0.105745 -0.373844,-0.158618 -0.246885,-0.07197 -0.455701,-0.157094 -0.716502,-0.148394 -0.245582,0.0082 -0.408262,0.128711 -0.262375,0.374722 0.04575,0.07715 0.115619,0.137167 0.173429,0.20575 0.273597,0.183577 0.621822,0.44918 0.946988,0.585269 0.391904,0.16402 0.829532,0.239188 1.253441,0.190812 0.130989,-0.01495 0.257477,-0.05684 0.386216,-0.08527 0.107304,-0.04822 0.220119,-0.0857 0.321912,-0.14467 0.204065,-0.118226 0.444623,-0.34625 0.487791,-0.59331 0.0107,-0.06127 0.02434,-0.139781 -0.01754,-0.185761 -0.13138,-0.144231 -0.313156,-0.232781 -0.469734,-0.349172 -0.05713,-0.02813 -0.111349,-0.06317 -0.171388,-0.08439 -0.121608,-0.04299 -0.28194,-0.06505 -0.410389,-0.05299 -0.104966,0.0099 -0.243083,0.03945 -0.299914,0.147 -0.02463,0.0466 -0.01376,0.104517 -0.02065,0.156775 0.02349,0.06328 0.04114,0.129059 0.07048,0.189851 0.05038,0.104378 0.193334,0.319423 0.253666,0.417651 0.03138,0.05109 0.04513,0.116821 0.09143,0.154918 0.122056,0.100424 0.268612,0.166676 0.40217,0.251203 0.04612,0.02919 -0.09322,-0.05678 -0.13983,-0.08517 -0.232003,-0.195536 -0.462962,-0.395335 -0.661964,-0.625652 -0.01593,-0.01844 -0.235045,-0.276789 -0.228714,-0.362494 0.0029,-0.03903 0.05566,-0.05503 0.08349,-0.08254 0.0652,-0.01584 0.129293,-0.03727 0.195602,-0.04753 0.173589,-0.02685 0.529509,-0.0424 0.687905,-0.04972 0.493349,-0.0228 0.987111,-0.03629 1.480449,-0.0594 0.127626,-0.0058 0.552556,-0.02029 0.711948,-0.0423 0.05551,-0.0077 0.191228,0.0089 0.163346,-0.03975 -0.145963,-0.25447 -0.357045,-0.300407 -0.596943,-0.334399 -0.818188,-0.06126 -1.643551,-0.01303 -2.455772,0.0955 -0.09725,0.02824 -0.2011,0.03958 -0.291754,0.08471 -0.05005,0.02492 -0.154032,0.07654 -0.117957,0.119262 0.224684,0.266077 0.455421,0.285158 0.744924,0.35113 0.507258,0.115595 0.258704,0.05363 0.789297,0.200081 0.01081,-0.01981 0.01078,-0.06578 0.03245,-0.05944 0.103578,0.03031 0.560892,0.302013 0.431966,0.488588 -0.01995,0.02887 -0.05768,0.03997 -0.08652,0.05995 -0.05538,0.0074 -0.110271,0.02188 -0.166137,0.02208 -0.167724,6.09e-4 -0.391281,-0.04199 -0.547097,-0.08576 -0.120515,-0.03385 -0.233632,-0.09277 -0.355745,-0.120305 -0.01451,-0.0033 -0.01597,0.03949 -0.02955,0.03343 -0.121029,-0.05402 -0.229098,-0.133342 -0.343647,-0.200013 -0.199298,-0.170255 -0.338157,-0.252092 -0.45969,-0.48709 -0.121823,-0.23556 -0.08606,-0.470952 0.131499,-0.633458 0.07245,-0.05411 0.162184,-0.08004 0.243276,-0.120061 0.296287,-0.04928 0.324789,-0.07888 0.632112,-0.02504 0.108503,0.01901 0.20891,0.07705 0.318511,0.08808 0.04128,0.0042 -0.131731,-0.09847 -0.105154,-0.0666 0.27522,0.329941 0.123099,-0.0146 0.245387,0.338978 -0.02327,0.05823 -0.02999,0.126229 -0.0698,0.174673 -0.109739,0.133549 -0.328041,0.214271 -0.483265,0.252752 -0.349696,0.08669 -0.692145,0.06892 -1.033722,-0.03963 0.04737,0.03237 0.09344,0.127502 0.142113,0.09712 0.0446,-0.02784 -0.08264,-0.07871 -0.08778,-0.131037 -0.0052,-0.05314 0.0244,-0.108905 0.06034,-0.1484 0.05515,-0.06061 0.128466,-0.104017 0.202093,-0.14 0.25905,-0.126599 0.39356,-0.120458 0.682372,-0.161577 0.133403,0.0064 0.267834,0.0014 0.40021,0.01916 0.120501,0.01612 0.233997,0.08841 0.3554,0.08195 0.04566,-0.0024 -0.144049,-0.09393 -0.09835,-0.09563 0.05682,-0.0021 0.09723,0.05937 0.142326,0.094 0.01669,0.01281 0.0486,0.02744 0.04176,0.04734 -0.0073,0.02109 -0.04289,0.01221 -0.06434,0.01832 -0.04045,-0.0069 -0.08208,-0.0088 -0.121365,-0.02069 -0.05603,-0.01692 -0.195115,-0.114158 -0.163029,-0.06521 0.04358,0.06648 0.130339,0.09271 0.202672,0.125686 0.04584,0.0209 -0.08498,-0.05499 -0.122158,-0.08898 -0.07975,-0.07293 -0.06544,-0.05957 -0.02304,-0.125994 0.302596,-0.01706 -0.07039,0.0301 -0.0733,-0.15909 -0.0011,-0.07308 0.130779,0.06676 0.189546,0.110206 0.102038,0.07544 0.227342,0.200937 0.277811,0.322572 0.02146,0.05172 0.01828,0.110497 0.02742,0.165745 -0.02502,0.0448 -0.03743,0.09953 -0.07507,0.134409 -0.09619,0.08914 -0.248055,0.108138 -0.370118,0.103545 -0.07776,-0.0029 -0.178665,-0.09527 -0.230473,-0.03721 -0.04367,0.04895 0.164358,0.06333 0.150048,0.127348 -0.01377,0.06161 -0.102546,-0.07365 -0.153818,-0.110479 -0.02298,-0.04243 -0.06558,-0.07915 -0.06894,-0.127288 -0.0088,-0.126184 0.127641,-0.226908 0.212533,-0.279486 0.308514,-0.191079 0.674344,-0.229361 1.027655,-0.248854 0.150313,0.0079 0.300628,0.01587 0.450941,0.02381 0.144099,0.03117 0.285652,0.0783 0.432297,0.0935 0.0161,0.0017 -0.0053,-0.05584 0.0087,-0.04778 0.134806,0.07749 0.312935,0.216195 0.326946,0.395296 0.0059,0.07522 -0.04039,0.145403 -0.06058,0.218104 -0.07191,0.06875 -0.133365,0.15046 -0.215739,0.20625 -0.231547,0.156822 -0.572511,0.269377 -0.837777,0.323394 -0.658404,0.134074 -1.323825,0.09578 -1.974378,-0.06135 -0.60195,-0.206937 -1.212314,-0.340561 -1.524696,-0.968238 -0.04068,-0.08174 -0.07345,-0.17153 -0.07742,-0.262749 -0.003,-0.06917 0.0382,-0.133106 0.0573,-0.199659 0.08581,-0.02975 0.167396,-0.07728 0.257422,-0.08926 0.204385,-0.02719 0.818692,0.01919 0.986338,0.031 0.558652,0.03934 1.118145,0.08431 1.672081,0.168665 -0.07861,-0.07575 -0.145463,-0.166014 -0.235841,-0.227251 -0.01989,-0.01348 -0.0452,0.01792 -0.06907,0.02065 -0.08027,0.0092 -0.161192,0.01162 -0.241916,0.01492 -0.341066,0.01392 -0.682921,0.01308 -1.023631,-0.0092 0.06084,0.06593 0.130411,0.124753 0.182513,0.19778 0.0086,0.01209 -0.058,0.0017 -0.04435,-0.0041 0.111477,-0.04765 0.35841,-0.07704 0.449302,-0.08865 0.34956,-0.04466 0.35275,-0.03768 0.702291,-0.05341 0.195112,0.01571 0.558903,0.09615 -9.81e-4,-0.202633 -0.02495,-0.01331 -0.04388,0.03766 -0.0705,0.04718 -0.07332,0.02621 -0.150252,0.04106 -0.226054,0.05886 -0.237228,0.05569 -0.373716,0.0783 -0.615365,0.123565 -0.330337,0.06627 -0.382629,0.0017 0.0092,0.340613 0.02068,0.01789 0.05447,0.0057 0.08181,0.0061 0.141603,0.0024 0.536582,-0.0038 0.644434,-0.0044 0.161491,-9.99e-4 0.322987,-8.85e-4 0.484481,-0.0013 0.404167,0.0016 0.598746,8.64e-4 0.996615,0.0078 0.111293,0.0019 0.296451,0.113205 0.333825,0.0084 0.116553,-0.326967 -0.271713,-0.250594 -0.37598,-0.248208 -0.12496,0.0029 -0.249978,0.0019 -0.374967,0.0029 -0.539621,2.4e-4 -1.079122,-10e-4 -1.618646,-0.01295 -0.153735,-0.0034 -0.307471,-0.0073 -0.461124,-0.01341 -0.09503,-0.0038 -0.282469,-0.111107 -0.284854,-0.01604 -0.0031,0.125468 0.18594,0.168625 0.27891,0.252937 0.227729,-0.02489 0.46188,-0.01825 0.690373,-0.02135 0.477812,-0.0065 0.955657,-0.01029 1.433487,-0.01506 0.01651,-2.1e-4 0.671507,-0.0067 0.751657,-0.01508 0.06159,-0.0064 0.215036,0.0091 0.180837,-0.04247 -0.187628,-0.283192 -0.467944,-0.268872 -0.745598,-0.28899 -0.89922,-0.0278 -1.799331,-0.04828 -2.698938,-0.03839 -0.09507,0.0058 -0.190455,0.0077 -0.285199,0.01742 -0.07844,0.0081 -0.26318,0.01636 -0.281753,0.132796 -0.0045,0.02807 0.01734,0.07208 0.02733,0.09649 0,0 0.409059,0.185071 0.409059,0.185071 z" />
  <path
     style="fill:#f3d8a6;stroke-width:0.03"
     id="path175"
     d="m 10.579536,16.013882 c 0.274744,-0.0079 0.549679,-0.0066 0.82451,-0.006 0,0 -0.346019,-0.251397 -0.346019,-0.251397 v 0 c -0.280333,6.54e-4 -0.560757,0.0017 -0.84101,-0.006 0,0 0.362519,0.263385 0.362519,0.263385 z" />
  <path
     style="fill:#f3d8a6;stroke-width:0.03"
     id="path177"
     d="m 14.047953,14.938197 c 0.401581,0.07449 0.791625,0.204669 1.17428,0.345541 0.130643,0.05425 0.165556,0.06415 0.283368,0.128767 0.0326,0.01788 0.127761,0.07613 0.09543,0.05777 -1.673261,-0.950105 -1.151112,-0.734005 -0.846243,-0.454083 0.0819,0.08738 0.144347,0.19018 0.214745,0.286618 0.298413,0.348522 0.911557,0.553369 1.208026,0.700777 0.03094,0.01539 0.269525,-0.06826 0.303471,-0.07857 0.250326,-0.081 0.500142,-0.169134 0.713752,-0.325896 0.01827,-0.01934 0.04004,-0.0359 0.0548,-0.05803 0.09903,-0.148452 -0.005,-0.273606 -0.110746,-0.373435 -0.440338,-0.30509 -0.891215,-0.644666 -1.419155,-0.763338 -0.109015,-0.0245 -0.157128,-0.02849 -0.269207,-0.04371 -0.268084,-0.03129 -0.538162,-0.0386 -0.807803,-0.04177 -0.246785,-0.0047 -0.491471,0.03428 -0.73666,0.05711 0,0 0.985783,0.699332 0.985783,0.699332 v 0 c 0.239,-0.03223 0.478949,-0.06227 0.720767,-0.04982 0.264267,0.0039 0.529544,0.0092 0.791003,0.05186 0.130033,0.02556 0.256287,0.05245 0.379413,0.103032 0.03225,0.01325 0.124687,0.06224 0.09471,0.04442 -0.730176,-0.433988 -1.287297,-0.736093 -0.865054,-0.506365 0.06557,0.03947 0.117374,0.07465 0.169285,0.130312 0.0087,0.0094 0.02237,0.0154 0.02705,0.02734 0.01184,0.03019 -0.02665,0.05957 -0.03973,0.075 -0.19679,0.154213 -0.435008,0.234676 -0.675906,0.292947 -0.07517,0.01511 -0.139539,0.03394 -0.216437,0.02957 -0.02256,-0.0013 -0.08549,-0.02643 -0.06617,-0.01471 0.325537,0.197324 0.660622,0.378519 0.987692,0.573292 0.01716,0.01022 -0.03908,-0.0099 -0.05685,-0.01897 -0.01646,-0.0084 -0.02972,-0.02204 -0.04458,-0.03306 -0.08749,-0.08618 -0.143008,-0.19726 -0.218539,-0.293287 -0.303303,-0.38168 -0.79241,-0.526402 -1.216169,-0.773104 -0.113097,-0.06584 -0.242073,-0.1017 -0.362862,-0.149234 -0.4045,-0.134553 -0.812999,-0.256269 -1.223854,-0.369848 0,0 0.972399,0.743553 0.972399,0.743553 z" />
  <path
     style="fill:#f3d8a6;stroke-width:0.03"
     id="path179"
     d="m 13.603604,14.819369 c 0.612265,-0.05136 1.226875,0.02817 1.8344,0.0977 0.383194,0.05444 0.768703,0.09557 1.149148,0.168188 0.0759,0.01449 0.310815,0.06417 0.397644,0.09867 0.03948,0.01569 0.07411,0.04155 0.111162,0.06233 -0.383495,-0.217061 -0.76699,-0.434122 -1.150485,-0.651183 0.01596,0.0113 0.03262,0.02167 0.04788,0.03389 0.0094,0.0076 0.0154,0.01953 0.02605,0.02531 0.0035,0.0019 0.01141,-0.0016 0.01056,-0.0055 -0.011,-0.0497 -0.0802,-0.02221 -0.108271,-0.02134 -0.61702,4.68e-4 -1.232629,-0.06017 -1.84583,-0.123709 -0.0347,-0.0049 -0.3678,-0.04894 -0.426991,-0.06632 -0.03096,-0.0091 -0.11147,-0.06482 -0.08477,-0.0467 1.211597,0.821919 0.774837,0.79553 1.546363,0.833707 0.334905,0.03357 0.663163,0.110591 0.984907,0.207489 0.20685,0.0623 0.324176,0.09944 0.510275,0.196231 0.05187,0.02698 0.0997,0.06109 0.149555,0.09164 -0.382361,-0.217392 -0.779911,-0.410012 -1.147083,-0.652178 -0.02665,-0.01758 0.03024,-0.06669 0.01478,-0.09462 -0.01941,-0.03505 -0.06564,-0.04689 -0.102206,-0.06326 -0.08078,-0.03617 -0.166455,-0.06034 -0.248416,-0.09373 -0.22917,-0.09337 -0.52144,-0.226937 -0.744273,-0.326814 -0.318053,-0.142524 -0.627648,-0.302365 -0.937269,-0.461983 -0.045,-0.0232 -0.08723,-0.08439 -0.135409,-0.06882 -0.261294,0.08444 -0.06257,0.196421 0.0021,0.256015 0.06247,0.03581 0.12492,0.07165 0.187412,0.107423 0.459175,0.262831 0.918621,0.525186 1.377588,0.78838 0.06109,0.03503 0.243757,0.141139 0.182569,0.106287 -0.350341,-0.199548 -0.698024,-0.403788 -1.050032,-0.60038 -0.02204,-0.01231 0.03582,0.03786 0.05932,0.04708 0.0069,0.0027 0.0053,-0.0138 0.0079,-0.0207 -0.02811,0.0032 -0.0567,0.0036 -0.08432,0.0097 -0.46365,0.102471 0.124376,-0.003 -0.410227,0.09778 -0.214359,0.0404 -0.431369,0.06931 -0.646563,0.105075 -0.462019,0.07226 -0.928609,0.109475 -1.394964,0.139999 -0.215059,0.01926 -0.431342,0.02387 -0.645887,0.04927 -0.134519,0.01592 -0.268292,0.04113 -0.402396,0.06034 -0.225099,0.05217 -0.451247,0.09814 -0.6780943,0.141767 -0.1689435,0.02482 -0.3400122,0.04727 -0.5111067,0.04922 -0.039792,4.56e-4 -0.080589,0.005 -0.1193082,-0.0042 -0.028337,-0.0067 -0.05099,-0.02815 -0.076485,-0.04223 0.4029477,0.231252 0.8008912,0.47145 1.2088432,0.693756 0.05114,0.02787 0.250663,-0.0938 0.262029,-0.09797 0.491324,-0.180211 1.010069,-0.232274 1.525202,-0.298504 0.89734,-0.07032 1.806794,-0.168715 2.705633,-0.06668 0,0 -1.110164,-0.815421 -1.110164,-0.815421 v 0 c -0.854725,0.0154 -1.703984,0.14288 -2.556048,0.200817 -0.218793,0.02218 -0.437767,0.04263 -0.65638,0.06653 -0.345962,0.03781 -0.7011989,0.06926 -1.0402322,0.156583 -0.086187,0.0222 -0.1731042,0.04811 -0.2508729,0.09139 -0.074014,0.04119 -0.2615007,0.10208 -0.1984791,0.158674 0.3657999,0.328491 0.8326128,0.523087 1.2489192,0.78463 0.245673,0.0053 0.491561,-0.02606 0.734144,-0.06188 0.226145,-0.04044 0.446888,-0.104571 0.673907,-0.140832 0.32668,-0.05949 0.652935,-0.120543 0.985466,-0.13859 0.476889,-0.03515 0.957759,-0.04816 1.429049,-0.133914 0.21107,-0.04062 0.422634,-0.07816 0.633982,-0.117284 0.05013,-0.0093 0.403894,-0.07364 0.459819,-0.09358 0.06418,-0.02288 0.120792,-0.06308 0.181188,-0.09462 0.0155,-0.04384 0.05265,-0.08542 0.04651,-0.131513 -0.0051,-0.03858 -0.04269,-0.06839 -0.07585,-0.08877 -0.436116,-0.26797 -0.88404,-0.516235 -1.326801,-0.773081 -0.05824,-0.03379 -0.234333,-0.132745 -0.176183,-0.0988 0.32584,0.190198 0.652598,0.378822 0.979274,0.567579 0.05231,0.03022 -0.104108,-0.06132 -0.156162,-0.09198 -0.09608,-0.02198 -0.180902,-0.07027 -0.215313,0.114887 -0.0059,0.03158 0.06001,0.02299 0.08933,0.03609 0.292052,0.130459 0.577607,0.275368 0.870876,0.403204 0.118541,0.05392 0.673676,0.307818 0.800377,0.360145 0.102506,0.04233 0.203589,0.0917 0.311743,0.116246 0.06842,0.01553 0.146929,0.032 0.210474,0.0023 0.04975,-0.02329 0.128991,-0.107184 0.08557,-0.14083 -0.391753,-0.303576 -0.845601,-0.517178 -1.268401,-0.775766 -0.517891,-0.234468 -1.088657,-0.329208 -1.645291,-0.423125 -0.0938,-0.0091 -0.187168,-0.02677 -0.281407,-0.02722 -0.06243,-3e-4 -0.23172,-0.01706 -0.185607,0.02502 1.023612,0.934132 0.78863,0.822687 1.601911,0.88468 0.319293,0.02186 0.638812,0.04312 0.95783,0.06866 0.23466,0.01879 0.468629,0.04586 0.70341,0.06305 0.08897,0.0065 0.1782,0.0089 0.2673,0.01337 0.04652,-0.0098 0.09667,-0.0089 0.139553,-0.02947 0.09014,-0.04315 0.142333,-0.135135 0.100625,-0.228018 -0.01116,-0.02485 -0.02029,-0.05494 -0.04351,-0.06918 -0.4261,-0.261287 -0.864578,-0.501831 -1.296867,-0.752746 -0.154397,-0.04373 -0.307155,-0.06521 -0.466932,-0.08311 -0.357842,-0.04009 -0.717086,-0.06682 -1.074741,-0.108774 -0.671557,-0.0749 -1.343036,-0.166959 -2.016984,-0.213068 0,0 1.179983,0.857308 1.179983,0.857308 z" />
</svg>
