<?xml version="1.0" encoding="UTF-8" standalone="no"?>
<!-- Uploaded to: SVG Repo, www.svgrepo.com, Generator: SVG Repo Mixer Tools -->

<svg
   width="800"
   height="800"
   viewBox="0 0 24 24"
   fill="none"
   version="1.1"
   id="svg6"
   sodipodi:docname="settings_active.svg"
   xmlns:inkscape="http://www.inkscape.org/namespaces/inkscape"
   xmlns:sodipodi="http://sodipodi.sourceforge.net/DTD/sodipodi-0.dtd"
   xmlns="http://www.w3.org/2000/svg"
   xmlns:svg="http://www.w3.org/2000/svg">
  <defs
     id="defs10" />
  <sodipodi:namedview
     id="namedview8"
     pagecolor="#ffffff"
     bordercolor="#000000"
     borderopacity="0.25"
     inkscape:showpageshadow="2"
     inkscape:pageopacity="0.0"
     inkscape:pagecheckerboard="0"
     inkscape:deskcolor="#d1d1d1"
     showgrid="false" />
  <path
     fill-rule="evenodd"
     clip-rule="evenodd"
     d="m 12,8.25 c -2.07107,0 -3.75,1.67893 -3.75,3.75 0,2.0711 1.67893,3.75 3.75,3.75 2.0711,0 3.75,-1.6789 3.75,-3.75 C 15.75,9.92893 14.0711,8.25 12,8.25 Z M 9.75,12 c 0,-1.2426 1.0074,-2.25 2.25,-2.25 1.2426,0 2.25,1.0074 2.25,2.25 0,1.2426 -1.0074,2.25 -2.25,2.25 -1.2426,0 -2.25,-1.0074 -2.25,-2.25 z"
     fill="#f3d8a6"
     id="path2" />
  <path
     fill-rule="evenodd"
     clip-rule="evenodd"
     d="M 12,1.25 C 11.2954,1.25 10.6519,1.44359 9.94858,1.77037 9.26808,2.08656 8.48039,2.55304 7.49457,3.13685 L 6.74148,3.58283 C 5.75533,4.16682 4.96771,4.63324 4.36076,5.07944 3.73315,5.54083 3.25177,6.01311 2.90334,6.63212 2.55548,7.25014 2.39841,7.91095 2.32306,8.69506 2.24999,9.45539 2.24999,10.3865 2.25,11.556 v 0.888 c -1e-5,1.1695 -1e-5,2.1006 0.07306,2.8609 0.07535,0.7842 0.23242,1.445 0.58028,2.063 0.34843,0.619 0.82981,1.0913 1.45742,1.5527 0.60695,0.4462 1.39457,0.9126 2.38072,1.4966 l 0.75312,0.446 C 8.48038,21.447 9.2681,21.9135 9.94858,22.2296 10.6519,22.5564 11.2954,22.75 12,22.75 c 0.7046,0 1.3481,-0.1936 2.0514,-0.5204 0.6805,-0.3162 1.4682,-0.7826 2.454,-1.3664 l 0.7531,-0.446 c 0.9861,-0.584 1.7738,-1.0504 2.3807,-1.4966 0.6277,-0.4614 1.109,-0.9337 1.4575,-1.5527 0.3478,-0.618 0.5049,-1.2788 0.5802,-2.063 C 21.75,14.5446 21.75,13.6135 21.75,12.4441 V 11.556 c 0,-1.1694 0,-2.10062 -0.0731,-2.86094 C 21.6016,7.91095 21.4445,7.25014 21.0967,6.63212 20.7482,6.01311 20.2669,5.54083 19.6392,5.07944 19.0323,4.63324 18.2447,4.16683 17.2585,3.58285 l -0.7531,-0.446 C 15.5196,2.55303 14.7319,2.08656 14.0514,1.77037 13.3481,1.44359 12.7046,1.25 12,1.25 Z M 8.22524,4.44744 C 9.25238,3.83917 9.97606,3.41161 10.5807,3.13069 11.1702,2.85676 11.5907,2.75 12,2.75 c 0.4093,0 0.8298,0.10676 1.4193,0.38069 0.6046,0.28092 1.3283,0.70848 2.3555,1.31675 l 0.6861,0.40635 c 1.027,0.60818 1.75,1.03736 2.2899,1.43421 0.5259,0.38667 0.8302,0.70946 1.0387,1.07988 0.2091,0.37141 0.3304,0.80602 0.3943,1.47067 0.0654,0.68029 0.0662,1.53945 0.0662,2.75515 v 0.8126 c 0,1.2157 -8e-4,2.0749 -0.0662,2.7551 -0.0639,0.6647 -0.1852,1.0993 -0.3943,1.4707 -0.2085,0.3704 -0.5128,0.6932 -1.0387,1.0799 -0.5399,0.3969 -1.2629,0.826 -2.2899,1.4342 l -0.6861,0.4064 c -1.0272,0.6082 -1.7509,1.0358 -2.3555,1.3167 C 12.8298,21.1432 12.4093,21.25 12,21.25 11.5907,21.25 11.1702,21.1432 10.5807,20.8693 9.97606,20.5884 9.25238,20.1608 8.22524,19.5526 L 7.53909,19.1462 C 6.5121,18.538 5.78906,18.1089 5.24923,17.712 4.72326,17.3253 4.419,17.0025 4.2105,16.6321 4.00145,16.2607 3.88005,15.8261 3.81618,15.1614 3.7508,14.4812 3.75,13.622 3.75,12.4063 V 11.5937 C 3.75,10.378 3.7508,9.51884 3.81618,8.83855 3.88005,8.1739 4.00145,7.73929 4.2105,7.36788 4.419,6.99746 4.72326,6.67467 5.24923,6.288 5.78906,5.89115 6.5121,5.46197 7.53909,4.85379 Z"
     fill="#f3d8a6"
     id="path4" />
  <path
     style="fill:#f3d8a6;fill-opacity:1;stroke-width:0.0285036"
     d="M 11.604381,21.204968 C 11.176453,21.128458 10.476324,20.829259 9.6834207,20.38405 8.7726855,19.872679 6.2618202,18.374582 5.7573624,18.041584 4.3167366,17.090612 3.9660045,16.5431 3.8135106,15.007126 c -0.052343,-0.527222 -0.052343,-5.4870301 0,-6.0142519 C 3.9819717,7.2960711 4.3779282,6.7770759 6.4703088,5.5105098 8.298816,4.4036721 9.8106459,3.5292435 10.379226,3.2496279 c 0.759993,-0.3737492 1.254265,-0.5068938 1.763292,-0.4749877 0.790929,0.049576 1.394763,0.3484918 4.726239,2.3396266 1.558914,0.9317217 2.108125,1.3129914 2.517091,1.747401 0.505315,0.5367537 0.691562,1.0325187 0.800641,2.1312063 0.05234,0.5272218 0.05234,5.4870299 0,6.0142519 -0.151633,1.527311 -0.483528,2.057952 -1.86405,2.980292 -0.230259,0.153838 -0.884416,0.55808 -1.453682,0.898315 -3.413329,2.040057 -3.960179,2.307051 -4.783246,2.335372 -0.180285,0.0062 -0.396794,-0.0011 -0.48113,-0.01614 z m 1.12246,-5.513301 c 0.776827,-0.161084 1.466141,-0.543244 2.003153,-1.110561 0.49044,-0.518115 0.812271,-1.140736 0.965833,-1.868517 0.07115,-0.337188 0.07115,-1.08799 0,-1.425178 -0.323705,-1.5341437 -1.449094,-2.6595334 -2.983238,-2.9832382 -0.337188,-0.071147 -1.08799,-0.071147 -1.425178,0 -1.5341437,0.3237048 -2.6595334,1.4490945 -2.9832382,2.9832382 -0.071147,0.337188 -0.071147,1.08799 0,1.425178 0.1557789,0.738288 0.479283,1.36005 0.9807135,1.884891 0.5853276,0.612656 1.3802597,1.019506 2.2163017,1.134315 0.279262,0.03835 0.953679,0.01627 1.225653,-0.04013 z"
     id="path392" />
  <path
     style="fill:#f3d8a6;fill-opacity:1;stroke-width:0.03"
     id="path443"
     d="m 8.8884663,12.126906 c -0.022919,-0.08399 -0.026159,-0.171818 -0.029435,-0.258382 -0.00895,-0.09271 0.00317,-0.185074 0.014242,-0.27699 0.012398,-0.09249 0.045532,-0.179855 0.072904,-0.268495 0.026198,-0.08663 0.059094,-0.170779 0.091594,-0.255162 0.055474,-0.156892 0.1291383,-0.306737 0.2105754,-0.451605 0.06866,-0.111884 0.1395477,-0.223674 0.2249193,-0.323789 0.043683,-0.05123 0.090338,-0.09984 0.1351101,-0.150122 0.1048605,-0.121074 0.2168586,-0.235224 0.3324123,-0.3460269 0.07937,-0.073441 0.1560016,-0.1497117 0.2339836,-0.2246184 0.06113,-0.064615 0.128072,-0.1212738 0.199332,-0.1741461 0.08162,-0.06064 0.177136,-0.096796 0.266221,-0.1447977 0.100683,-0.044737 0.203113,-0.08364 0.308384,-0.1165026 0.179296,-0.064259 0.367059,-0.088278 0.555747,-0.1036854 0.209352,-0.027256 0.420624,-0.027317 0.630877,-0.041024 0.164012,-0.011887 0.328331,-0.01905 0.492755,-0.020817 0.142428,-0.00134 0.284847,-1.5e-4 0.427279,4.68e-4 0.138085,-8.76e-4 0.276153,-0.0016 0.414215,0.00138 0.103287,0.00275 0.206603,0.00163 0.309906,0.00252 0.08195,-0.00299 0.165139,0.00777 0.242889,0.034299 0.04928,0.031416 0.108664,0.028476 0.162449,0.043752 0.01214,0.00345 0.02311,0.010122 0.03467,0.015183 0.01227,0.00307 0.02454,0.00614 0.03681,0.00921 0.04442,0.027432 0.09457,0.039538 0.142657,0.057545 0.082,0.030708 -0.01782,0.00317 0.07179,0.025458 0.453505,0.2510805 1.043221,0.6028374 -1.044209,-0.6033183 4.119853,2.4026244 -0.877656,-0.5432445 0.338708,0.1979112 0.09776,0.064939 0.195396,0.1302894 0.287702,0.202884 0.09794,0.079574 0.165784,0.1866222 0.226343,0.295662 0.06006,0.088127 0.09897,0.186297 0.137807,0.284925 0.05061,0.1148316 0.09163,0.2334555 0.139304,0.349464 0.03754,0.095833 0.07848,0.1903682 0.120643,0.2842582 0.04784,0.09718 0.07829,0.201035 0.108698,0.304599 0.04359,0.134107 0.07482,0.271844 0.107476,0.408927 0.02709,0.132421 0.05835,0.263654 0.07243,0.398253 0.01139,0.119013 0.01439,0.238442 0.01892,0.35784 0.0096,0.153852 -0.01906,0.305427 -0.05413,0.45435 -0.02852,0.134274 -0.0628,0.267154 -0.0937,0.400887 -0.0351,0.144856 -0.06872,0.290001 -0.106047,0.434357 -0.02923,0.133981 -0.07279,0.263886 -0.119145,0.392663 -0.03197,0.09687 -0.0745,0.189685 -0.116437,0.282536 -0.03033,0.07025 -0.05663,0.141998 -0.08839,0.211602 -0.02709,0.06104 -0.05906,0.118468 -0.09984,0.171312 -0.05107,0.08415 -0.10941,0.159848 -0.181933,0.226475 -0.09693,0.08776 -0.203426,0.163651 -0.317702,0.226949 -0.133089,0.071 -0.266545,0.144431 -0.409318,0.194392 -0.14151,0.04514 -0.279034,0.101835 -0.42325,0.137902 -0.109893,0.0373 -0.222505,0.06395 -0.335854,0.08841 -0.0949,0.01737 -0.188337,0.04271 -0.280768,0.07043 -0.115923,0.03402 -0.229626,0.07377 -0.341566,0.11944 -0.123567,0.06164 -0.259316,0.08628 -0.389978,0.127316 -0.0999,0.02447 -0.200811,0.04841 -0.302775,0.06288 -0.08755,0.01302 -0.173969,0.02917 -0.262694,0.03443 -0.08671,0.0032 -0.173497,0.0029 -0.260244,0.0043 -0.09676,-1.5e-4 -0.193513,-5.52e-4 -0.290259,-0.0021 -0.06997,-0.02711 -0.146428,-0.01745 -0.217235,-0.03636 -0.01123,-0.0054 -0.02188,-0.0122 -0.0337,-0.01612 -0.01376,-0.0046 -0.02835,-0.0061 -0.04253,-0.0091 -0.01502,-0.0047 -0.03017,-0.009 -0.04506,-0.01407 -0.05204,-0.01785 -0.101448,-0.03958 -0.154151,-0.05572 -0.1167925,-0.04209 -0.2298004,-0.09228 -0.3416674,-0.146244 -0.4313904,-0.236265 -0.9641079,-0.556356 1.0848444,0.626114 0.01193,0.0069 -0.02457,-0.01261 -0.03603,-0.02027 -0.02044,-0.01367 -0.03889,-0.03014 -0.05902,-0.04427 -0.0679,-0.05819 -0.120239,-0.130875 -0.181887,-0.195095 -0.04703,-0.05006 -0.08499,-0.107945 -0.137472,-0.152804 -0.01783,-0.01524 -0.08256,-0.06233 -0.100326,-0.07541 -0.119624,-0.092 -0.237121,-0.186728 -0.357396,-0.277901 C 9.8070288,14.800706 9.7230954,14.74126 9.6479061,14.670654 9.5706453,14.612876 9.5099277,14.537191 9.4498188,14.462542 9.3691161,14.357164 9.3112926,14.236876 9.2494968,14.119996 9.1633917,13.959947 9.0792144,13.799615 9.0072729,13.632624 8.9025618,13.371735 8.8266903,13.100376 8.751351,12.829886 8.6670915,12.525125 8.6074704,12.214927 8.5639572,11.901985 8.5326435,11.653516 8.5239111,11.40312 8.5188978,11.152981 c -0.0064,-0.198057 0.00689,-0.39591 0.00826,-0.593878 5.64e-4,-0.178143 -0.00465,-0.356208 2.1e-4,-0.534323 0.00693,-0.1103656 4.98e-4,-0.2223685 0.025996,-0.3306085 0.00469,-0.014444 0.00937,-0.028888 0.01406,-0.043333 0,0 -1.2606528,-0.6974826 -1.2606528,-0.6974826 v 0 c -0.00676,0.017797 -0.013518,0.035594 -0.020277,0.05339 -0.01177,0.040934 -0.021766,0.069896 -0.027273,0.1123809 -0.011229,0.086631 0.00608,0.1747812 0.00427,0.2615862 0.00453,0.1778628 -6.96e-4,0.3556428 -0.0012,0.5335227 4.2e-4,0.2023903 0.012257,0.4046323 0.011117,0.6070753 0.00453,0.258871 0.015162,0.518075 0.056388,0.774166 0.048148,0.316437 0.1026813,0.632166 0.1821594,0.942478 0.066652,0.270308 0.1416903,0.538114 0.2220267,0.804662 0.059532,0.16891 0.1249752,0.335255 0.2172819,0.489562 0.05605,0.120528 0.1168296,0.239326 0.1781133,0.357106 0.052734,0.08459 0.1146234,0.163407 0.1798035,0.238625 0.052511,0.04115 0.096528,0.09157 0.1493385,0.132422 0.016212,0.01254 0.033892,0.02307 0.050434,0.03518 0.017867,0.01307 0.035177,0.02689 0.052765,0.04033 0.1203246,0.08824 0.2421588,0.174981 0.3539871,0.274069 0.034375,0.02777 0.058025,0.04824 0.0945,0.07261 0.018122,0.01211 0.065595,0.03779 0.082804,0.053 0.00711,0.0063 0.056289,0.06567 0.061961,0.07245 0.029439,0.03724 0.065129,0.0672 0.094992,0.103646 0.026456,0.03229 0.047352,0.06975 0.076785,0.09993 0.012864,0.01672 0.076814,0.08639 0.091565,0.09513 0.4982535,0.295375 0.8926356,0.572224 1.3808976,0.788366 0.115525,0.05048 0.233616,0.09439 0.352615,0.135917 0.09679,0.03606 0.197413,0.06939 0.299892,0.08237 0.0765,0.0046 0.151723,0.0261 0.228836,0.01741 0.09542,-0.0013 0.190848,-0.0013 0.286275,-0.0019 0.0912,4.85e-4 0.182876,5.37e-4 0.273354,-0.01231 0.08951,-0.01293 0.178058,-0.03185 0.267393,-0.04583 0.101676,-0.0236 0.203396,-0.04756 0.301703,-0.0832 0.133753,-0.0402 0.266793,-0.08235 0.396328,-0.134944 0.111097,-0.04 0.224671,-0.07319 0.339089,-0.102298 0.09323,-0.02156 0.185956,-0.04561 0.278855,-0.06851 0.112089,-0.03083 0.224462,-0.0605 0.334283,-0.09904 0.140389,-0.05044 0.280618,-0.101355 0.420826,-0.152242 0.146028,-0.06139 0.287471,-0.133022 0.424444,-0.212651 0.12,-0.07538 0.243522,-0.148703 0.345853,-0.247844 0.07489,-0.07403 0.1418,-0.15465 0.204428,-0.239257 0.04714,-0.06242 0.08588,-0.128851 0.116324,-0.201018 0.03073,-0.07151 0.06418,-0.141917 0.08535,-0.217145 0.03744,-0.09871 0.08271,-0.194313 0.116127,-0.29454 0.04155,-0.134887 0.07624,-0.27099 0.106579,-0.408921 0.04092,-0.144374 0.08278,-0.288212 0.120677,-0.433285 0.02989,-0.134869 0.05985,-0.269785 0.08679,-0.405253 0.03315,-0.15865 0.07203,-0.318029 0.07132,-0.481135 0.0038,-0.122694 0.008,-0.246395 -0.0055,-0.368591 -0.01715,-0.140542 -0.03959,-0.279657 -0.07614,-0.416621 -0.02836,-0.13965 -0.05766,-0.27911 -0.09318,-0.417113 -0.03649,-0.103059 -0.0511,-0.211731 -0.09098,-0.313624 -0.04224,-0.09466 -0.08897,-0.187049 -0.13161,-0.281566 -0.04392,-0.118821 -0.09653,-0.234198 -0.143117,-0.351921 -0.02138,-0.05384 -0.03873,-0.108126 -0.05617,-0.1633467 -0.0054,-0.017219 -0.0087,-0.035196 -0.01581,-0.051815 -0.01364,-0.032088 -0.03934,-0.058191 -0.04973,-0.092013 -0.07565,-0.1062564 -0.1287,-0.2268513 -0.21002,-0.3293241 -0.08506,-0.090983 -0.18655,-0.160065 -0.289137,-0.2297001 -0.05724,-0.039716 -0.115925,-0.078475 -0.176198,-0.1135053 -0.427194,-0.248283 -0.855095,-0.4953504 -1.282929,-0.7425291 -0.01775,-0.010256 -0.07156,-0.040036 -0.05382,-0.029769 0.398136,0.23034 0.796668,0.4599966 1.195001,0.6899946 -0.424567,-0.2457735 -0.848424,-0.4927782 -1.273702,-0.7373202 -0.0084,-0.00483 -0.06148,-0.025875 -0.07042,-0.029892 -0.03975,-0.017872 -0.02776,-0.016446 -0.07053,-0.030227 -0.01167,-0.00376 -0.0237,-0.00632 -0.03554,-0.00948 -0.07096,-0.031075 -0.144977,-0.058739 -0.220358,-0.076727 -0.08754,-0.026196 0.01801,0.00359 -0.07342,-0.016392 -0.05593,-0.012227 -0.108047,-0.039742 -0.165896,-0.044059 -0.08516,-0.00797 -0.169562,-0.010274 -0.255138,-0.00686 -0.101013,8.82e-4 -0.202039,-3e-4 -0.303036,0.0024 -0.137073,0.003 -0.274153,0.00178 -0.411247,9.3e-4 -0.141262,7.32e-4 -0.282548,0.00196 -0.423736,0.00656 -0.162661,0.00664 -0.325027,0.015206 -0.486982,0.032417 -0.208937,0.015019 -0.418329,0.024365 -0.626519,0.048677 C 10.160938,8.2394925 9.9635907,8.274933 9.7705722,8.3318271 9.6550383,8.3654478 9.5408136,8.4048903 9.4353039,8.4636549 9.3390762,8.5132419 9.2406222,8.5596591 9.1545966,8.6264541 9.0789981,8.6840172 9.0090009,8.7468858 8.9452725,8.8175643 8.869932,8.8947033 8.7926598,8.9699379 8.7197805,9.0494346 8.6098644,9.1677057 8.5052004,9.2902101 8.4020208,9.4143984 8.2671477,9.5723967 8.1292998,9.729597 8.0241723,9.9097248 7.9375881,10.056984 7.8660462,10.212319 7.7822217,10.361186 c -0.042159,0.08615 -0.073083,0.176856 -0.1029978,0.267879 -0.029527,0.09615 -0.061848,0.191352 -0.077278,0.291253 -0.01697,0.09812 -0.035794,0.197431 -0.036509,0.297096 0.00532,0.08858 0.015626,0.177126 0.01434,0.265908 0,0 1.3086921,0.643588 1.3086921,0.643588 z" />
  <path
     style="fill:#f3d8a6;fill-opacity:1;stroke-width:0.03"
     id="path445"
     d="M 4.9231386,7.5054516 C 4.9845921,7.3592712 5.0969253,7.2461025 5.206305,7.1350314 5.3631789,6.975732 5.3085633,7.0300548 5.4741999,6.8749347 5.7031365,6.6772956 5.9408016,6.4893117 6.1865265,6.3129609 6.363078,6.1874034 6.5553708,6.0871611 6.748341,5.9897715 6.9182388,5.9088138 7.0853058,5.8215549 7.2492486,5.7291168 7.4104209,5.6394246 7.5782724,5.561814 7.7323317,5.4600765 7.8862299,5.347575 8.0451057,5.2428039 8.203899,5.1374202 8.4148467,4.9854381 8.6435061,4.8622566 8.8701855,4.7361351 9.1134549,4.5999837 9.3673662,4.4845629 9.6151785,4.3574415 9.8543154,4.2346137 10.101805,4.1285259 10.351703,4.0297176 c 0.221447,-0.093245 0.450996,-0.164787 0.681335,-0.2322267 0.221582,-0.055876 0.438228,-0.1294356 0.659684,-0.1853625 0.211372,-0.047978 0.4182,-0.1124958 0.626186,-0.1727838 0.224936,-0.067261 0.454067,-0.1181688 0.686644,-0.1497783 0.189634,-0.022387 0.380857,-0.024436 0.571563,-0.023667 0.07405,0.00692 0.150611,-0.00561 0.22448,0.00405 0.05473,0.00716 0.109378,0.028517 0.158774,0.051748 0.422061,0.2436693 0.945273,0.5410464 -1.08435,-0.6205474 -0.01964,-0.011242 0.03946,0.022201 0.05873,0.034065 0.06566,0.040419 0.06899,0.04496 0.131982,0.09144 0.119944,0.094079 0.225896,0.2040235 0.331172,0.3138037 0.09688,0.1038291 0.196574,0.2044833 0.30495,0.2962518 0.430845,0.3383565 0.919089,0.6045579 1.421503,0.8220303 0.07816,0.033831 0.154978,0.068361 0.234878,0.097912 0.106886,0.03619 0.20461,0.090558 0.305566,0.139665 0.01192,0.00738 0.04792,0.029123 0.03576,0.022145 C 15.302159,4.2898489 14.10814,3.6019465 14.506058,3.8314 c 0.427169,0.2463207 0.853767,0.4936446 1.282255,0.737664 0.01833,0.010438 0.03885,0.016479 0.05789,0.025537 0.0082,0.00392 0.124633,0.063403 0.130375,0.066334 0.09216,0.054307 0.191694,0.09471 0.286309,0.143928 0.09301,0.054967 0.04612,0.02946 0.140538,0.076745 0.05522,0.031567 0.112476,0.058663 0.168105,0.089432 0.01511,0.00836 0.0604,0.03346 0.04545,0.024835 -1.235801,-0.7126935 -1.584258,-0.9334038 -1.154813,-0.6623631 0.07692,0.043903 0.148833,0.095489 0.224333,0.1417215 1.382012,0.7998594 1.976364,1.1427426 0.07229,0.044967 -0.01398,-0.00806 0.02828,0.015558 0.04213,0.023837 0.01528,0.00913 0.03011,0.018987 0.04523,0.028384 0.01783,0.011087 0.03575,0.022045 0.05362,0.033068 0.02053,0.0128 0.04105,0.025601 0.06158,0.038401 0.532381,0.3327075 1.085221,0.6315042 1.63325,0.9371352 0.435724,0.2748474 0.06809,0.042018 -1.131077,-0.6501243 -0.01446,-0.00835 0.02907,0.016435 0.04338,0.025049 0.04428,0.026665 0.08713,0.052949 0.128159,0.084372 0.07735,0.051687 0.153612,0.104469 0.227959,0.1603188 0.07895,0.066238 0.160986,0.127026 0.250189,0.1787655 0.0952,0.066205 0.192041,0.1300257 0.287525,0.1958037 0.429455,0.3481827 1.10039,0.6617805 1.470821,0.8743998 -0.02271,-0.011452 0.09257,0.051763 0.0696,0.038514 -3.025735,-1.7452917 -0.124212,-0.067625 0.07079,0.040733 0.04214,0.023417 -1.641592,-0.9465807 -1.161727,-0.6701283 0.112547,0.07536 0.226142,0.1485165 0.334144,0.2303427 0.125534,0.1017456 0.244699,0.210978 0.363587,0.3203169 0.07893,0.072324 0.153387,0.1502079 0.222443,0.2320317 0.0734,0.080738 0.128448,0.1749654 0.18133,0.2697435 0.05502,0.1073772 0.103796,0.2188662 0.143581,0.3328245 0.03992,0.1064595 0.07728,0.2135334 0.107173,0.32322 0.04482,0.1574655 0.09141,0.3143883 0.136192,0.4718832 0.05641,0.1942332 0.106007,0.3903078 0.154399,0.5866572 0.06448,0.2507058 0.07279,0.509667 0.107899,0.7648914 0.04043,0.3137757 0.06152,0.6296891 0.08547,0.9450501 0.03802,0.357915 0.06517,0.71659 0.08362,1.075996 0.02374,0.288895 0.02263,0.57862 0.02257,0.8682 0.0042,0.259961 -0.02043,0.518029 -0.05199,0.775612 -0.03946,0.226831 -0.05503,0.456627 -0.07614,0.685616 -0.01862,0.246093 -0.04904,0.49099 -0.0918,0.733998 -0.03547,0.177988 -0.07802,0.354787 -0.127061,0.529539 -0.03407,0.136585 -0.07183,0.272352 -0.11662,0.405824 -0.06399,0.1947 -0.139874,0.38506 -0.214087,0.575996 -0.07143,0.158766 -0.157505,0.310378 -0.233194,0.467028 -0.06932,0.165746 -0.145928,0.32862 -0.236528,0.483837 -0.07094,0.119079 -0.16949,0.209496 -0.27824,0.293169 -0.154182,0.09819 -0.301737,0.205915 -0.458851,0.299505 -0.15756,0.09441 -0.324569,0.171394 -0.483135,0.264093 -0.167663,0.106718 -0.33527,0.213552 -0.504952,0.317225 -0.210587,0.13581 -0.428483,0.259393 -0.647716,0.380529 -0.198399,0.104796 -0.379591,0.236899 -0.567051,0.359151 -0.149068,0.0921 -0.282551,0.205616 -0.413182,0.321657 -0.113465,0.107805 -0.241943,0.196861 -0.371127,0.284418 -0.164988,0.105368 -0.344474,0.183703 -0.518216,0.272754 -0.217224,0.09351 -0.434517,0.187105 -0.655322,0.271924 -0.207293,0.08275 -0.409423,0.177606 -0.613611,0.267599 -0.166103,0.08156 -0.332363,0.162523 -0.498312,0.24435 -0.166963,0.0698 -0.327059,0.155836 -0.496918,0.218494 -0.144321,0.0615 -0.295795,0.09101 -0.451067,0.105394 -0.154981,0.01161 -0.310398,0.01113 -0.465635,0.0069 -0.04627,-0.01823 -0.09914,-0.02341 -0.144619,-0.04379 -0.02835,-0.01271 -0.05898,-0.03476 -0.08299,-0.05443 1.228587,0.710439 1.678993,0.818201 1.199482,0.701105 0,0 -1.343623,-0.563969 -1.343623,-0.563969 v 0 c 0.186105,0.489958 0.0024,0.027 1.279202,0.772306 0.08152,0.02236 0.165621,0.0363 0.250618,0.02954 0.157049,-0.0058 0.314797,-0.0059 0.470914,-0.02539 0.161031,-0.02704 0.317873,-0.07217 0.467398,-0.138548 0.16682,-0.07454 0.330544,-0.155961 0.498159,-0.22881 0.165273,-0.07947 0.328076,-0.163503 0.4926,-0.244485 0.196679,-0.09463 0.394058,-0.188046 0.596767,-0.269271 0.222718,-0.08977 0.447385,-0.175669 0.66497,-0.277394 0.185613,-0.08257 0.370294,-0.167337 0.540887,-0.278768 0.139849,-0.08501 0.270163,-0.185389 0.387116,-0.30017 0.126494,-0.111172 0.256105,-0.219082 0.396832,-0.312026 0.174979,-0.128055 0.353189,-0.251453 0.540965,-0.360317 0.22105,-0.125615 0.444182,-0.247552 0.663845,-0.375607 0.171098,-0.102475 0.33922,-0.209913 0.512788,-0.308136 0.159749,-0.08954 0.323068,-0.172688 0.47721,-0.272046 0.161624,-0.09948 0.324517,-0.197791 0.479779,-0.306954 0.121337,-0.0982 0.244389,-0.196482 0.309707,-0.342825 0.07901,-0.162918 0.156149,-0.326729 0.237248,-0.488592 0.08005,-0.159648 0.157512,-0.320923 0.224543,-0.486553 0.07279,-0.191546 0.153279,-0.379972 0.229301,-0.570228 0.0535,-0.13585 0.102278,-0.274395 0.134502,-0.416993 0.0318,-0.184104 0.06576,-0.36775 0.101697,-0.551085 5.25e-4,-0.0031 0.04044,-0.23691 0.04047,-0.237106 0.02339,-0.168732 0.02648,-0.339814 0.04798,-0.508776 0.02826,-0.227982 0.06277,-0.455106 0.08009,-0.684376 0.02187,-0.264095 0.0634,-0.527693 0.04983,-0.793424 -0.0028,-0.292651 -0.0066,-0.585549 -0.01982,-0.877896 -0.03637,-0.361741 -0.09928,-0.721058 -0.110783,-1.085017 -0.0018,-0.11602 -6.51e-4,-0.232097 -0.0042,-0.348076 -0.0061,-0.198887 -0.0356,-0.39597 -0.05457,-0.593794 -0.02241,-0.2570267 -0.03155,-0.5167613 -0.0832,-0.770006 -0.04104,-0.1967943 -0.08143,-0.3939759 -0.134776,-0.5878863 -0.04763,-0.1503816 -0.08245,-0.3037443 -0.119847,-0.4568694 -0.02649,-0.1152588 -0.0564,-0.2287359 -0.10372,-0.337524 -0.02953,-0.07923 -0.01584,-0.038493 -0.04078,-0.1223043 -0.02775,-0.077264 -0.06731,-0.1504983 -0.09324,-0.2285718 -0.05039,-0.099606 -0.09955,-0.2005896 -0.163049,-0.292692 -0.07139,-0.089933 -0.14666,-0.1758508 -0.227697,-0.25744 C 19.746745,6.8393868 19.624232,6.7290012 19.500914,6.6194109 19.404789,6.5335845 19.304642,6.4547373 19.195156,6.3865443 18.768383,6.0465909 19.401342,6.5479302 17.884602,5.6199201 17.489332,5.378076 19.493224,6.5407008 19.088634,6.3147954 18.642981,6.0659631 18.201667,5.7812613 17.743117,5.543016 c 1.983624,1.1441715 1.556307,0.8879823 1.120661,0.6507882 -0.04504,-0.024526 -0.08453,-0.057537 -0.128972,-0.083044 -0.08668,-0.079519 -0.188325,-0.1378224 -0.283617,-0.2062395 -0.01494,-0.011835 -0.02896,-0.024935 -0.04482,-0.035504 -0.06668,-0.044438 -0.14562,-0.072038 -0.201952,-0.1317561 -0.07385,-0.060095 -0.147694,-0.1193949 -0.228152,-0.1706373 -0.10358,-0.062232 0.01587,0.013447 -0.0829,-0.062101 -0.02765,-0.021147 -0.05732,-0.039629 -0.08741,-0.057121 -1.2262,-0.7127211 -0.842861,-0.5131914 -1.326592,-0.7637511 -0.07069,-0.036344 -0.04487,-0.022546 -0.118644,-0.062779 -0.024,-0.013087 -0.09557,-0.053113 -0.07192,-0.039396 1.980454,1.1489574 1.424719,0.8208495 1.00404,0.5808036 -0.04849,-0.03218 -0.09798,-0.062994 -0.146348,-0.095324 -0.01262,-0.00844 -0.02398,-0.018772 -0.03711,-0.026397 C 17.084667,5.0262 13.860391,3.1640346 17.0334,5.0008275 16.959652,4.9494828 16.880753,4.9064433 16.808272,4.8532302 16.304141,4.5631104 15.813733,4.2481407 15.292166,3.9904107 15.150771,3.9152262 15.00643,3.8455401 14.865125,3.7701003 c -0.04557,-0.023419 -0.0916,-0.045964 -0.136707,-0.070251 -0.01969,-0.010603 -0.07774,-0.04428 -0.05837,-0.033093 2.515266,1.4528331 0.595474,0.3416934 -0.09714,-0.054423 -0.01234,-0.00706 -0.02598,-0.011543 -0.03897,-0.017314 -0.0954,-0.044795 -0.194601,-0.079172 -0.292658,-0.1177659 -0.07563,-0.033007 -0.151822,-0.065529 -0.225157,-0.103482 -0.0259,-0.013404 -0.101808,-0.056936 -0.07662,-0.042237 1.046126,0.6104949 1.542912,0.8899146 1.092491,0.6362565 C 14.916083,3.8856984 14.809264,3.7936881 14.713113,3.6889086 14.605943,3.5758584 14.500585,3.4612896 14.385612,3.3560601 13.93088,2.9601865 13.39877,2.6236422 12.823223,2.4431224 c -0.130993,-0.022156 -0.262335,-0.013303 -0.394689,-0.00906 -0.191673,0.00666 -0.383791,0.014848 -0.573052,0.048441 -0.231571,0.045301 -0.460192,0.1031995 -0.687288,0.16713 C 10.957462,2.7046574 10.746846,2.759657 10.537377,2.8193579 10.318069,2.885181 10.096421,2.942649 9.8771082,3.0084633 9.6460422,3.080577 9.4179459,3.1618731 9.1947762,3.255831 8.9459565,3.3605739 8.701881,3.4761258 8.4602469,3.5964792 8.2067553,3.7160352 7.9606113,3.8497998 7.7131926,3.9813666 7.4799414,4.1082069 7.2457851,4.2335259 7.022127,4.3770219 6.8582868,4.4765499 6.7006923,4.5849129 6.5424405,4.6930335 6.3857844,4.7846556 6.2264691,4.8717027 6.0666342,4.9576383 5.9015151,5.0461893 5.7342336,5.1305742 5.568207,5.2173837 5.3758185,5.3246493 5.1829878,5.4316767 5.0096451,5.5688982 4.7719449,5.7564441 4.548483,5.9601987 4.3254471,6.1648233 4.1032329,6.3679263 3.8647998,6.5555553 3.6688443,6.7853346 c 0,0 1.2542943,0.720117 1.2542943,0.720117 z" />
  <path
     style="fill:#f3d8a6;fill-opacity:1;stroke-width:0.03"
     id="path447"
     d="m 4.3679667,17.123544 c 0.040143,0.01404 0.066268,0.02205 0.1065264,0.04261 0.083219,0.04248 0.1628898,0.09159 0.2447949,0.136555 0.3020364,0.16581 0.037134,0.01666 0.3473595,0.193177 -1.8285792,-1.023504 -1.0519641,-0.637543 -0.6766218,-0.367902 0.140241,0.100747 0.2691972,0.214632 0.3973722,0.329935 0.2606397,0.235842 0.4999377,0.493362 0.7484808,0.741507 0.1723857,0.192178 0.3796497,0.343242 0.5917329,0.487777 0.4817547,0.302485 0.9417402,0.676304 1.4857275,0.847363 0.048442,0.01523 0.098239,0.02577 0.1472511,0.03905 0.1944462,0.04759 0.3829113,0.115671 0.5740002,0.174693 0.3227796,0.118182 0.641034,0.248769 0.9607737,0.375051 0.3748731,0.159437 0.7530659,0.31088 1.1294749,0.466634 0.287865,0.129754 0.566038,0.279278 0.846521,0.423985 0.04086,0.02264 0.08194,0.04486 0.12257,0.06791 0.03927,0.02228 0.15629,0.09053 0.117121,0.06806 -0.364129,-0.208843 -0.727218,-0.419504 -1.092003,-0.6272 -0.02808,-0.01599 0.05457,0.03463 0.0818,0.05202 0.08349,0.05334 0.07394,0.04737 0.153975,0.09961 0.444032,0.312292 0.931249,0.555545 1.403455,0.823688 0.04887,0.02775 0.114163,0.03672 0.168761,0.04481 0.07838,0.0097 0.157639,-0.0026 0.236157,0.0015 0.01999,0.0011 0.04104,-1.2e-5 0.05957,0.0075 0.01343,0.0055 0.02119,0.01981 0.03179,0.02972 -0.409894,-0.24879 -0.831673,-0.47898 -1.229683,-0.746371 -0.01918,-0.01289 0.03082,-0.04609 0.01984,-0.06642 -0.0081,-0.01499 -0.03325,0.0075 -0.05002,0.01054 -0.108136,0.01972 -0.216251,0.02818 -0.325787,0.03591 -0.164925,0.0071 -0.333681,0.01024 -0.496525,-0.02259 -0.06078,-0.01225 -0.133438,-0.03767 -0.192505,-0.05687 -0.126967,-0.03813 -0.246501,-0.099 -0.3631926,-0.161223 -0.029515,-0.01574 -0.1160847,-0.06653 -0.087079,-0.04987 0.3752556,0.215533 0.7505556,0.430992 1.1258326,0.646488 -0.129863,-0.07674 -0.248452,-0.171146 -0.360205,-0.272067 -0.08806,-0.08372 -0.169608,-0.173324 -0.264841,-0.24909 -0.121159,-0.0874 -0.246655,-0.168346 -0.3757403,-0.243541 C 9.4031205,19.93738 8.8207986,19.756538 8.2142733,19.473866 8.0240472,19.39494 7.8395514,19.302691 7.6576878,19.206246 9.8680017,20.532214 8.646549,19.772077 8.1533658,19.444421 7.9657545,19.315806 7.7838309,19.177591 7.6168482,19.022801 7.5182031,18.931358 7.4890413,18.896392 7.396992,18.797597 7.205922,18.585029 7.0435056,18.349545 6.9025419,18.101455 6.7852659,17.890746 6.6873903,17.670273 6.582051,17.453589 6.4340346,17.151897 6.2790744,16.854164 6.1138092,16.561571 5.9896611,16.336036 5.8336572,16.131905 5.6715366,15.932949 5.590653,15.834363 5.5062351,15.739642 5.416659,15.649034 5.2629588,15.482195 5.1557481,15.280613 5.0496486,15.081955 4.99473,14.980699 4.9433574,14.877191 4.882422,14.779294 4.876772,14.770194 4.813128,14.671394 4.796031,14.661723 4.3677297,14.419438 3.9318405,14.190819 3.4997454,13.955368 c -0.1954017,0.09234 -0.2720991,0.182481 -0.3472569,0.38223 -0.058721,0.187856 -0.044478,0.381986 -0.01487,0.573307 0.041148,0.2179 0.1035873,0.430233 0.1832262,0.636902 0.084537,0.197874 0.179832,0.391703 0.2898882,0.576676 0.06738,0.113996 0.1513605,0.216238 0.2498796,0.304378 0.1128075,0.09984 0.2378085,0.184349 0.3620688,0.269062 0.00376,0.0025 0.045075,0.03188 0.056811,0.03616 0.033211,0.01211 0.034865,-0.02439 0.044506,0.03115 -0.00289,0.07784 -0.00735,0.153901 0.00597,0.231068 0.02005,0.08874 0.063678,0.161759 0.1264431,0.226659 0.014222,0.01176 0.026743,0.02596 0.042666,0.03529 0.4224522,0.247652 0.8325315,0.518901 1.2718191,0.735288 0.030362,0.01496 0.056732,-0.04337 0.068222,-0.0752 0.015681,-0.04345 0.019968,-0.09346 0.00883,-0.138285 C 5.8396665,17.746711 5.6859678,17.586181 5.680107,17.579765 5.4936645,17.382815 5.322951,17.171878 5.1670701,16.950115 5.0729457,16.812551 4.9851666,16.670389 4.9058424,16.523776 4.8393438,16.410087 4.7970267,16.285672 4.7623935,16.159282 c -0.034378,-0.12459 -0.045284,-0.25365 -0.052108,-0.382197 -0.0087,-0.19813 -0.00687,-0.396459 -0.00887,-0.594718 -0.00497,-0.171723 0.013884,-0.343481 5.61e-4,-0.514883 C 4.6784292,14.474489 4.542684,14.32513 4.436793,14.170159 4.3022244,13.984594 4.2137226,13.801177 4.1567394,13.579706 c -0.05592,-0.231779 -0.058607,-0.469199 -0.041885,-0.70558 0.022872,-0.240075 0.062302,-0.477995 0.1035321,-0.715454 0.037758,-0.173919 0.050973,-0.351293 0.06788,-0.528013 0.0233,-0.222965 0.051056,-0.445465 0.07341,-0.668523 0.030537,-0.252019 0.045785,-0.505355 0.065748,-0.758307 C 4.4493045,9.9121962 4.4830719,9.6218163 4.5269631,9.3325653 4.5670773,9.0614781 4.6332861,8.7958236 4.6930068,8.5287438 4.7511762,8.2832439 4.8300708,8.0428449 4.917525,7.8063498 4.9772418,7.6136898 5.0698887,7.4371884 5.1812697,7.27008 5.3090274,7.087353 5.4951174,6.9674031 5.683074,6.8547354 5.8614093,6.7566834 6.0522633,6.6784563 6.2505759,6.6311904 c 0.1550235,-0.036949 0.2311305,-0.043329 0.3905904,-0.06529 0.4922853,-0.062716 0.9892548,-0.073741 1.4848257,-0.084291 0.6408933,-0.00765 1.281789,-0.016287 1.922735,-0.014926 0.123973,0.00215 0.247956,0.00375 0.371918,0.00644 0.410243,0.0089 0.818628,0.030033 1.227243,0.068854 0.262744,0.024962 0.456716,0.051467 0.716468,0.084364 0.402719,0.054794 0.80496,0.1144419 1.203658,0.1939524 0.185148,0.036923 0.369295,0.078697 0.553983,0.117861 0.345325,0.076622 0.691268,0.1535856 1.031866,0.2496252 0.214448,0.060469 0.260238,0.078979 0.468674,0.149709 0.06986,0.029829 0.141113,0.056594 0.209585,0.089487 0.0678,0.032569 0.264022,0.1441884 0.198815,0.1067046 C 15.72052,7.3552428 15.412068,7.173102 15.096428,7.0040727 c -0.07161,-0.038349 0.135234,0.09008 0.201495,0.1370715 0.170434,0.1208697 0.242416,0.1811628 0.408719,0.3122394 0.259651,0.2136258 0.492454,0.4580532 0.695463,0.7259565 0.110513,0.145839 0.155286,0.2199138 0.255253,0.3725913 0.13007,0.213618 0.257599,0.4322823 0.336123,0.6711159 0.05124,0.1558398 0.05619,0.2095317 0.08823,0.3733803 0.04813,0.3458862 0.04666,0.6966794 0.02919,1.0447624 -0.0279,0.297253 -0.06815,0.594062 -0.129501,0.886406 -0.03377,0.160911 -0.07345,0.320533 -0.108389,0.481195 -0.01626,0.08688 -0.03331,0.173607 -0.04877,0.260628 -0.03599,0.202596 -0.06514,0.379262 -0.08843,0.584646 -0.04475,0.394567 -0.06544,0.792572 -0.09642,1.188344 -0.05707,0.65072 -0.162521,1.29997 -0.386637,1.915922 -0.129425,0.355707 -0.169915,0.406038 -0.342218,0.730906 -0.186513,0.302728 -0.418719,0.561663 -0.730079,0.740051 -0.225045,0.128936 -0.474201,0.212003 -0.724403,0.274651 -0.129442,0.03241 -0.261816,0.05171 -0.392725,0.07757 -0.559844,0.09097 -1.129566,0.08775 -1.692242,0.02593 -0.294684,-0.03237 -0.5071,-0.07261 -0.798064,-0.121896 C 11.117151,17.603573 10.662289,17.51169 10.21422,17.393546 10.01244,17.340346 9.8603834,17.291688 9.6616373,17.230809 9.1984533,17.068621 8.7304575,16.91836 8.2729275,16.740382 8.1663498,16.698923 8.060934,16.654537 7.9549371,16.611616 7.8491457,16.564081 7.7421111,16.519221 7.6375632,16.469011 7.5325857,16.418595 7.2271494,16.249178 7.3265628,16.309834 7.577031,16.462652 7.8301299,16.611964 8.0912307,16.745808 8.2054152,16.804341 7.8739938,16.609053 7.7683131,16.536281 7.4931468,16.346803 7.4132184,16.274353 7.1549469,16.066003 6.8055675,15.762505 6.4687197,15.43432 6.2166291,15.04291 6.0639,14.805773 6.0450996,14.733958 5.9329401,14.476123 5.8998891,14.370541 5.8617969,14.266406 5.8337871,14.159376 5.772294,13.924401 5.7377037,13.698224 5.710371,13.457078 5.6819517,13.206349 5.6658534,12.960471 5.6641383,12.708072 5.6632833,12.58202 5.6695272,12.45602 5.6722215,12.329995 5.7131826,11.707822 5.8326048,11.0887 6.0379176,10.499304 6.0791784,10.380856 6.1277844,10.265096 6.1727178,10.147992 6.3545112,9.7171752 6.5741025,9.3003021 6.8527212,8.9236362 7.0109343,8.709747 7.0842735,8.6382156 7.2616353,8.4420612 7.6399761,8.0683791 8.0781036,7.7556531 8.5491852,7.5091185 8.6450601,7.4589438 8.7441294,7.4151255 8.8416015,7.368129 9.2202954,7.2037449 9.6137223,7.0732914 10.013112,6.9692694 c 0.268404,-0.069907 0.37952,-0.089995 0.653444,-0.1479243 0.744354,-0.1469595 1.499796,-0.2334162 2.255624,-0.2943366 0.564864,-0.02858 1.131566,-0.066041 1.697496,-0.048309 0.109114,0.00342 0.218053,0.01111 0.32708,0.016665 0.387817,0.037891 0.780603,0.097688 1.140492,0.2552499 0.07907,0.034617 0.304998,0.1616496 0.230225,0.1185306 -0.30056,-0.1733208 -0.605183,-0.3394974 -0.907774,-0.5092461 0.36279,0.2461959 0.653922,0.5767035 0.928339,0.9146106 0.194792,0.2323902 0.332046,0.4956075 0.442573,0.7759314 0.06594,0.1715436 0.110955,0.3489939 0.133166,0.5311944 0.01467,0.1406925 0.01122,0.2821929 0.0046,0.4232016 -0.0052,0.081881 -0.0037,0.1638984 -0.0055,0.2459007 -0.01036,0.091753 0.03248,0.1727415 0.06926,0.253788 0.01985,0.043747 0.03979,0.087456 0.05968,0.1311843 0.161892,0.3854321 0.267789,0.7909041 0.35448,1.1989071 0.05852,0.33344 0.104581,0.669064 0.127443,1.006871 0.01359,0.185907 0.01688,0.372646 -0.02546,0.555315 -0.02811,0.121299 -0.05638,0.188067 -0.0997,0.310424 -0.03553,0.06925 -0.06657,0.140992 -0.10658,0.207755 -0.32691,0.545525 -0.832304,0.949733 -1.31864,1.344894 -0.370215,0.285715 -0.758277,0.546626 -1.145337,0.808551 -0.397738,0.26915 -0.43863,0.30496 -0.853079,0.555537 -0.145425,0.08792 -0.293585,0.171244 -0.440378,0.256867 -0.507483,0.282264 -1.031652,0.535187 -1.578273,0.732364 -0.235042,0.08478 -0.330284,0.109986 -0.561874,0.179111 -0.253061,0.0628 -0.514332,0.13019 -0.777918,0.116062 -0.155241,-0.0083 -0.209338,-0.03309 -0.361784,-0.07572 -0.07541,-0.02845 -0.151998,-0.05398 -0.226238,-0.08536 -0.089789,-0.03796 -0.1781543,-0.07933 -0.2655392,-0.122539 -0.099948,-0.04942 -0.3916515,-0.21302 -0.2962839,-0.155253 1.7216061,1.042823 0.5837721,0.330239 0.4180428,0.210672 C 9.7803933,16.604901 9.6822456,16.52143 9.5810112,16.442064 9.0419979,15.957253 8.5866894,15.381144 8.2257615,14.752604 8.1512433,14.622834 8.085672,14.488127 8.0156274,14.355889 7.6687773,13.62101 7.4496201,12.832826 7.3134858,12.033177 7.2829122,11.853589 7.2613629,11.67258 7.2353016,11.492281 7.1560365,10.821171 7.1490795,10.144411 7.2425127,9.474453 7.3065888,9.0150006 7.3439718,8.9092053 7.4532063,8.4558327 7.6453869,7.7822394 7.9094589,7.1294811 8.2806291,6.5337825 8.4901002,6.197598 8.5524324,6.1379121 8.7932877,5.8394484 9.0550794,5.5407009 9.3516669,5.2702713 9.7133403,5.0984013 9.9273915,4.9966824 9.9872898,4.9899192 10.215942,4.9245213 10.755738,4.80204 11.311057,4.7951268 11.861604,4.8078726 c 0.34791,0.00687 0.693449,0.053928 1.029772,0.1433865 0.161254,0.042892 0.327138,0.1001427 0.485472,0.1523376 0.258601,0.088279 0.511168,0.195393 0.755993,0.3167328 0.09046,0.044833 0.35501,0.1922724 0.268194,0.1407384 -1.290351,-0.7659528 -0.917549,-0.5323242 -0.508843,-0.2675736 0.524283,0.3729951 1.022097,0.7845342 1.491921,1.2241809 0.08799,0.082341 0.173148,0.1676649 0.259722,0.2514975 0.275211,0.2793456 0.514173,0.5913342 0.717428,0.926526 0.244802,0.4037085 0.438629,0.8331684 0.633463,1.2621462 0.233878,0.553824 0.454319,1.1165601 0.598216,1.7014921 0.09122,0.370796 0.08873,0.419211 0.14258,0.795138 0.0444,0.450018 0.03612,0.905343 -0.04627,1.350632 -0.04098,0.221503 -0.06771,0.294338 -0.129905,0.509533 -0.11891,0.361557 -0.25475,0.718023 -0.427951,1.057387 -0.104423,0.204605 -0.153371,0.27893 -0.27032,0.47407 -0.113258,0.164217 -0.194337,0.293313 -0.331858,0.441931 -0.230881,0.249512 -0.513146,0.455208 -0.81222,0.615218 -0.112059,0.05995 -0.23005,0.108089 -0.345075,0.162133 -0.126702,0.04457 -0.25146,0.09511 -0.380105,0.133709 -0.57529,0.172627 -1.184534,0.238727 -1.782267,0.269825 -0.159557,0.0083 -0.319409,0.0093 -0.479113,0.01399 -0.950245,0.02015 -1.890411,-0.126705 -2.8256608,-0.274859 -0.6308976,-0.114704 -1.2682044,-0.211526 -1.8863331,-0.386292 -0.099252,-0.02806 -0.1970682,-0.06097 -0.2956023,-0.09146 -0.089758,-0.03533 -0.3505347,-0.157977 -0.269274,-0.106 1.946712,1.245181 0.7299021,0.406925 0.5675742,0.262836 C 7.932264,15.808242 7.8490986,15.722661 7.7710008,15.633079 7.5494757,15.378982 7.4880894,15.257224 7.3053336,14.969424 7.0020024,14.433958 6.7498347,13.868855 6.564048,13.281793 6.452823,12.930334 6.4380147,12.826974 6.3596625,12.472416 6.2798532,12.013485 6.2180154,11.546378 6.2386788,11.079376 6.2508219,10.804934 6.2678343,10.752782 6.3127686,10.484721 6.3946344,10.095583 6.536385,9.7212216 6.7384983,9.3783996 6.8887215,9.1235925 6.9401835,9.0724839 7.1226276,8.836059 7.451103,8.4549918 7.8303636,8.1186501 8.2516758,7.8430515 8.541183,7.653672 8.6528043,7.6071915 8.9610264,7.4498784 9.4562697,7.2180867 9.9851022,7.0758153 10.524751,6.9956541 c 0.29729,-0.04416 0.509922,-0.057551 0.81,-0.083211 0.526435,-0.036017 1.052272,0.00272 1.570874,0.095206 0.273021,0.04869 0.353176,0.072019 0.616571,0.1355706 0.282347,0.067171 0.55324,0.1678833 0.821928,0.2755881 0,0 -1.084015,-0.8471943 -1.084015,-0.8471943 v 0 C 13.010356,6.4901205 12.757388,6.4197606 12.499989,6.3662445 12.188666,6.3049293 11.877006,6.2507934 11.560525,6.2225922 11.160086,6.1869093 10.757567,6.1890915 10.356567,6.2138949 10.21511,6.224991 10.073271,6.2319777 9.9321972,6.2471835 9.2476713,6.3209655 8.575995,6.4938285 7.952148,6.7876107 7.8288963,6.8512488 7.7035293,6.910947 7.5823932,6.9785247 7.009203,7.2982881 6.4888359,7.707072 6.0500418,8.1955635 5.9757531,8.2866894 5.8974858,8.3747121 5.8271754,8.4689418 5.5128225,8.8902354 5.2854651,9.3693297 5.1833139,9.8859669 5.1671004,9.987432 5.1457671,10.088211 5.1346734,10.190362 c -0.02514,0.231496 -0.021676,0.42172 -0.011818,0.654682 0.00502,0.1187 0.00943,0.237608 0.02219,0.355727 0.022458,0.207882 0.09019,0.547408 0.1277454,0.748613 0.032862,0.13629 0.061809,0.273584 0.098585,0.408871 0.1997508,0.734825 0.4942551,1.442798 0.8331279,2.123344 0.1581771,0.27906 0.2240271,0.419457 0.4182747,0.670811 0.097929,0.126718 0.3347721,0.393218 0.4772694,0.481572 1.2026931,0.745716 0.9158442,0.628308 1.6345014,0.875996 0.2809887,0.07617 0.3084279,0.08785 0.6000873,0.148972 0.5010921,0.105012 1.0087325,0.173644 1.5136555,0.256669 0.935539,0.137188 1.87573,0.275293 2.824331,0.247179 0.161039,-0.0057 0.322217,-0.0083 0.483117,-0.01713 0.757612,-0.04142 1.521564,-0.131454 2.233909,-0.406101 0.121367,-0.05507 0.245691,-0.104049 0.364101,-0.165222 0.318305,-0.164442 0.611111,-0.377697 0.86863,-0.626395 0.07541,-0.07282 0.149956,-0.147225 0.215615,-0.228948 0.05585,-0.06951 0.09838,-0.148734 0.147576,-0.223101 0.04494,-0.07936 0.09232,-0.1574 0.134825,-0.238095 0.04387,-0.08327 0.08271,-0.169098 0.124177,-0.253591 0.170594,-0.347596 0.335014,-0.698561 0.457379,-1.066733 0.06809,-0.240826 0.09016,-0.285888 0.123012,-0.536697 0.06128,-0.467818 0.03526,-0.943702 -0.0032,-1.411896 -0.05416,-0.389497 -0.04895,-0.43207 -0.147381,-0.815635 C 18.521204,10.576411 18.281118,10.007791 18.046421,9.4397706 17.865745,9.0178983 17.691958,8.5881786 17.471435,8.1848325 17.280984,7.8364896 17.049245,7.5346947 16.78534,7.2393687 16.234625,6.7135692 15.667793,6.2027508 15.055574,5.7487338 14.371434,5.2784274 14.730626,5.5146765 13.407707,4.7642349 13.070818,4.5731301 12.70735,4.4296485 12.342692,4.3021125 12.150488,4.2423159 12.047136,4.2062919 11.850986,4.160697 11.509185,4.0812453 11.159367,4.0447674 10.808757,4.0404162 c -0.08833,-7.23e-4 -0.176664,-0.00317 -0.264993,-0.00217 -0.209516,0.00237 -0.322943,0.010322 -0.532162,0.027954 C 9.7211838,4.0906776 9.4309758,4.1228646 9.1476885,4.1944968 8.9258679,4.2625314 8.8266054,4.2816984 8.6205837,4.3891245 8.2557528,4.5793587 7.9905285,4.8949389 7.7535951,5.2232037 7.6762935,5.3367588 7.5953295,5.4479058 7.52169,5.5638693 7.0579974,6.2940678 6.7125732,7.0922769 6.4590234,7.9180077 6.3413346,8.3669268 6.2970939,8.4865068 6.2279031,8.9433525 c -0.1032357,0.6816342 -0.097596,1.3725345 0.00297,2.0542065 0.023249,0.180667 0.04355,0.361737 0.069745,0.542 0.1163043,0.800333 0.2905365,1.59701 0.6385263,2.331787 0.070073,0.135013 0.1360695,0.272222 0.2102178,0.405041 0.3496542,0.626321 0.7787646,1.212033 1.2964344,1.709739 0.2068242,0.170731 0.379986,0.326814 0.6109692,0.465521 0.4567512,0.274281 0.9203871,0.536988 1.3839342,0.799621 0.278738,0.157925 0.57234,0.293873 0.876873,0.393718 0.07275,0.016 0.144472,0.03776 0.218256,0.04799 0.126098,0.01748 0.236131,0.0079 0.360913,-0.0097 0.199378,-0.02813 0.391945,-0.08308 0.577613,-0.161125 0.697567,-0.289113 1.369605,-0.635983 2.01994,-1.019479 0.560174,-0.335738 0.318413,-0.188782 0.880642,-0.534116 0.14641,-0.08993 0.294821,-0.176686 0.439099,-0.269997 0.395642,-0.25588 0.772642,-0.540211 1.158749,-0.809852 0.443841,-0.338968 0.868924,-0.666459 1.251715,-1.076134 0.07182,-0.07687 0.143419,-0.154286 0.208351,-0.237058 0.05098,-0.06499 0.09246,-0.136893 0.138695,-0.205339 0.0336,-0.0592 0.07234,-0.115756 0.100801,-0.177589 0.02099,-0.04559 0.03372,-0.09466 0.04681,-0.143113 0.05274,-0.195238 0.04804,-0.395187 0.03026,-0.594974 -0.02853,-0.347687 -0.06946,-0.693842 -0.142454,-1.035447 -0.08996,-0.401477 -0.210524,-0.794818 -0.308309,-1.194325 -0.01737,-0.07926 -0.0332,-0.157131 -0.06094,-0.233406 -0.03965,-0.1090269 0.0098,0.028146 -0.02533,-0.055817 -0.0035,-0.00848 -0.0056,-0.017514 -0.0084,-0.02627 -0.0012,-0.083518 0.0013,-0.1669929 -0.0028,-0.2504382 -0.006,-0.1488702 -0.01114,-0.2977812 -0.01876,-0.4465806 -0.0049,-0.060913 -0.0085,-0.121806 -0.01828,-0.182232 C 18.142097,8.8927101 18.092021,8.7631632 18.044373,8.633274 17.919114,8.3416638 17.787767,8.0511261 17.583272,7.8044658 17.293038,7.4563209 16.992002,7.111266 16.630925,6.8342532 16.57225,6.8000124 15.541937,6.130269 15.059156,5.9513481 14.697794,5.8174257 14.310361,5.7767247 13.928904,5.7493389 13.820119,5.7457944 13.711376,5.740509 13.602548,5.7387054 13.039646,5.7293751 12.476431,5.7610686 11.915866,5.8095177 11.154975,5.8844958 10.396668,5.983482 9.6422487,6.1081557 9.3736791,6.1608849 9.2304504,6.1852611 8.9667885,6.2514882 8.5610124,6.353412 8.1651504,6.4934787 7.7875671,6.6740136 7.6897431,6.7236999 7.5906045,6.7708785 7.4940951,6.8230728 7.0143468,7.0825305 6.5557899,7.39167 6.17595,7.7855904 6.1057566,7.866093 6.0325326,7.9440501 5.9653698,8.0270976 5.595744,8.4841443 5.3225709,9.0100857 5.0995749,9.5515236 4.9653903,9.9136272 4.8306477,10.278013 4.7396964,10.654122 c -0.088408,0.365594 -0.1312509,0.741593 -0.1592736,1.11591 -0.00406,0.127821 -0.011434,0.255579 -0.012179,0.383462 -0.00143,0.244934 0.010971,0.511044 0.032135,0.755126 0.018975,0.218841 0.051668,0.496018 0.097865,0.71175 0.02357,0.110067 0.057494,0.21766 0.086241,0.32649 0.110193,0.277343 0.1208451,0.339127 0.2782854,0.594885 0.2520951,0.409522 0.5998677,0.74846 0.9556923,1.066905 0.255855,0.211111 0.3366891,0.284444 0.605226,0.479489 0.7156353,0.519784 1.5011103,0.945787 2.3125056,1.295651 0.5756178,0.23207 1.1573339,0.450646 1.7495279,0.636959 0.233858,0.06643 0.303334,0.08902 0.54197,0.145107 0.436707,0.102638 0.878999,0.179619 1.321454,0.252469 0.30424,0.04429 0.477559,0.07393 0.78628,0.100587 0.573741,0.04954 1.154622,0.04488 1.724212,-0.04493 0.399539,-0.0908 0.803623,-0.173906 1.163744,-0.380907 0.227942,-0.131023 0.396887,-0.278446 0.554953,-0.487824 0.07386,-0.09784 0.128861,-0.208586 0.193291,-0.312879 0.149049,-0.328544 0.201549,-0.418426 0.311447,-0.77157 0.04645,-0.149262 0.08416,-0.301165 0.12117,-0.453044 0.118615,-0.486803 0.20368,-0.980864 0.284733,-1.475005 0.103751,-0.65585 0.186407,-1.315808 0.339876,-1.96267 0.103632,-0.452009 0.202754,-0.905155 0.297476,-1.359118 0.0047,-0.05488 0.01174,-0.109613 0.01414,-0.164645 0.01336,-0.306869 -0.03337,-0.613691 -0.05294,-0.919098 C 18.268063,10.026886 18.265133,9.9517452 18.222804,9.79716 18.152168,9.539196 18.012786,9.3101121 17.871951,9.0855633 17.77627,8.9349546 17.721155,8.8425327 17.61487,8.6983032 17.410137,8.4204801 17.173855,8.1691485 16.916242,7.9398 16.705892,7.7638395 16.738149,7.7860695 16.522978,7.6243935 16.458781,7.5761565 16.397728,7.5230541 16.328935,7.4816334 15.888196,7.2162612 15.442696,6.9587895 14.995399,6.7046265 14.928915,6.666849 14.858622,6.6359706 14.788205,6.606159 14.719849,6.5772198 14.649055,6.554415 14.57948,6.528543 14.090658,6.3777186 13.593454,6.2567244 13.091741,6.1567869 12.5174,6.0391446 11.940957,5.9314806 11.356493,5.8772058 10.994991,5.8443111 10.633258,5.8195611 10.270999,5.7962682 10.089448,5.7845943 9.6084762,5.7552345 9.4269411,5.7477846 9.3004392,5.7425934 9.1738167,5.7409635 9.0472545,5.7375531 8.3917545,5.7260793 7.7360676,5.7214695 7.0804731,5.7243486 6.569085,5.7286248 6.0566502,5.7335427 5.5481526,5.7946005 5.3751117,5.8188297 5.3018658,5.8251321 5.1328746,5.86407 4.9177959,5.913627 4.7110335,5.9940744 4.5172494,6.099495 4.3084359,6.2218212 4.1060922,6.3537246 3.9688572,6.5588709 3.848973,6.7351497 3.7476507,6.921402 3.687876,7.127349 3.6084771,7.3730316 3.5428608,7.6223997 3.4809597,7.8730194 3.4058796,8.1405084 3.3437241,8.4113313 3.304206,8.686572 3.2614977,8.9781672 3.2351832,9.2716893 3.2004261,9.5642862 c -0.016052,0.1339785 -0.024782,0.2682489 -0.040344,0.4022454 -0.024618,0.2119764 -0.00659,0.030909 -0.031643,0.2362344 -0.00453,0.03709 -0.00786,0.07431 -0.01179,0.111467 -0.01883,0.221109 -0.04251,0.442162 -0.08033,0.660901 -0.024592,0.174598 -0.043013,0.349642 -0.063131,0.524771 -0.033506,0.244341 -0.051266,0.490555 -0.087683,0.734557 -0.024506,0.245263 -0.043306,0.493633 0.00398,0.737668 0.055619,0.234906 0.1214483,0.43881 0.2657102,0.637014 0.056842,0.08811 0.1155015,0.174912 0.1725912,0.262853 0.00583,0.009 0.062452,0.09501 0.06941,0.108943 0.00838,0.01679 0.013409,0.03505 0.020114,0.05257 0.031315,0.16883 0.037137,0.339208 0.032164,0.510751 -0.00252,0.196908 -0.00231,0.39379 -0.00621,0.590686 -0.00133,0.136161 -0.00891,0.273808 0.024652,0.407251 0.036421,0.136444 0.073175,0.274469 0.1387158,0.400361 0.1256088,0.221527 -0.050002,-0.09096 0.074483,0.140004 0.058339,0.108238 0.1336563,0.206699 0.2003196,0.309723 0.1624395,0.225589 0.3363966,0.442683 0.5232519,0.648625 0.02599,0.03189 0.051489,0.0642 0.077969,0.09568 0.016255,0.01933 0.025049,0.05455 0.05021,0.05674 0.025476,0.0022 0.042091,-0.02941 0.060559,-0.0471 0.018208,-0.01744 0.026441,-0.06923 0.048876,-0.05773 0.3957792,0.202994 1.6293744,0.94008 1.1528142,0.672047 -0.063431,-0.0374 -0.1257366,-0.07597 -0.1532658,-0.147819 -0.039159,-0.06567 -0.033254,-0.109627 -0.022955,-0.183611 0.01726,-0.104904 0.037132,-0.142038 -0.064027,-0.210101 -0.042852,-0.02791 -0.087501,-0.05304 -0.1298448,-0.08172 -0.023186,-0.0157 -0.044261,-0.03436 -0.067321,-0.05025 -0.055988,-0.03857 -0.1178772,-0.06939 -0.1655721,-0.119203 -0.102903,-0.08304 -0.2081403,-0.165168 -0.28494,-0.274783 -0.1250469,-0.17445 -0.2284083,-0.36366 -0.3186189,-0.55827 -0.079411,-0.196063 -0.1360557,-0.401004 -0.189945,-0.605363 -0.025313,-0.166948 -0.044348,-0.336058 -1.2e-4,-0.501995 0.026803,-0.08003 0.057419,-0.158685 0.1388763,-0.198112 0.017967,-0.0087 0.037231,-0.01668 0.057158,-0.01786 0.017006,-10e-4 0.033192,0.0077 0.049787,0.01154 -0.3940926,-0.227623 -0.7908345,-0.45072 -1.1822781,-0.682869 -0.01975,-0.01171 0.045869,0.0091 0.065711,0.02068 0.024235,0.01412 0.044775,0.03423 0.063857,0.05479 0.080753,0.08698 0.135006,0.196579 0.1933797,0.29837 0.062666,0.116944 0.1250145,0.234192 0.1844694,0.352815 0.015737,0.0314 0.029108,0.06399 0.045868,0.09486 0.023828,0.04388 0.055645,0.08309 0.078893,0.127338 0.081084,0.111096 0.1920486,0.194128 0.2825553,0.29751 0.1807512,0.193049 0.3476433,0.400992 0.492762,0.622092 0.07258,0.11937 0.1128681,0.182211 0.1795128,0.30581 0.098534,0.182741 0.1765863,0.375257 0.2645781,0.563087 0.1050189,0.219893 0.201381,0.44395 0.3200373,0.657096 0.066989,0.121058 0.1344,0.242402 0.2131914,0.35637 0.08954,0.129516 0.1908276,0.250859 0.2869272,0.375404 0.076177,0.08808 0.1322418,0.156242 0.2148849,0.238483 0.1661043,0.165297 0.355314,0.306453 0.5438931,0.444538 0.1322136,0.09322 0.26778,0.180986 0.4003899,0.273571 0.014553,0.01016 0.1561614,0.11322 0.1800165,0.127105 0.4289406,0.249664 0.8604762,0.494841 1.2907146,0.742261 0.1814766,0.08866 0.3648213,0.173141 0.549732,0.254413 0.5108475,0.228598 1.4870912,0.710542 -0.6892179,-0.450998 0.1272369,0.07292 0.2565678,0.142849 0.375213,0.229693 0.00558,0.0034 0.094552,0.05747 0.1027164,0.06415 0.013799,0.0113 0.0238,0.02663 0.036833,0.0388 0.044542,0.0416 0.092459,0.07974 0.1320114,0.126769 0.1140675,0.1121 0.2362446,0.215534 0.3671355,0.307747 0.4299138,0.248343 0.8588208,0.498439 1.2897418,0.745029 0.14682,0.08402 0.309198,0.142714 0.471779,0.186828 0.229612,0.04788 0.463535,0.04699 0.696858,0.02878 0.06565,-0.0038 0.201301,-0.01102 0.267985,-0.01776 0.0217,-0.0022 0.157041,-0.01587 0.186316,-0.03675 0.03744,-0.02671 0.131195,-0.07238 0.09469,-0.100344 -0.386076,-0.295767 -0.824371,-0.516282 -1.236556,-0.774422 -0.108098,0.01691 -0.222004,0.0023 -0.326514,-0.02801 -0.03631,-0.01427 -0.05284,-0.01979 -0.08807,-0.03769 -0.01697,-0.0086 -0.06649,-0.03708 -0.05005,-0.02749 2.024556,1.180024 1.446034,0.856744 1.027929,0.591182 -0.08025,-0.05826 -0.163475,-0.114673 -0.249146,-0.164768 -0.506314,-0.296059 -1.008867,-0.605633 -1.529917,-0.8778 C 9.9197904,20.010278 9.6476064,19.867379 9.3623172,19.753331 8.9858289,19.602225 8.6097891,19.450086 8.2366023,19.29094 7.9038267,19.156862 7.5730146,19.017284 7.2355404,18.895342 7.0370181,18.826759 6.8372658,18.762519 6.6357975,18.703165 c -0.074035,-0.02621 -0.075242,-0.02433 -0.1442952,-0.05746 -0.019231,-0.0092 -0.07525,-0.04016 -0.056813,-0.02944 2.0384703,1.185697 1.4347812,0.823184 0.9982476,0.579962 C 7.2886971,19.106484 7.1378214,19.017381 7.0060833,18.909614 6.9772575,18.886033 6.8294325,18.744863 6.8059254,18.722573 6.5440314,18.479721 6.3016116,18.217239 6.0415188,17.972439 5.9171949,17.851636 5.7935343,17.731626 5.6554116,17.626312 5.1509934,17.241712 4.5265395,17.036119 4.0243137,16.653226 3.9735426,16.624586 3.7118604,16.476941 3.6613266,16.448577 3.5172291,16.367695 3.373566,16.279563 3.2115243,16.239263 c 0,0 1.1564406,0.884282 1.1564406,0.884282 z" />
</svg>
